<svg width="832" height="360" viewBox="0 0 832 360" fill="none" xmlns="http://www.w3.org/2000/svg">
<g clip-path="url(#clip0_6126_218)">
<g clip-path="url(#clip1_6126_218)">
<path d="M435 64C435 46.3269 449.327 32 467 32H832V892C832 909.673 817.673 924 800 924H467C449.327 924 435 909.673 435 892V64Z" fill="url(#paint0_linear_6126_218)"/>
<path d="M459.544 74L463.696 62.432H465.808L469.96 74H468.008L466.976 71.096H462.544L461.504 74H459.544ZM463.008 69.368H466.488L464.752 64.32L463.008 69.368ZM474.522 74.16C473.428 74.16 472.57 73.784 471.946 73.032C471.322 72.28 471.01 71.2107 471.01 69.824C471.01 68.96 471.135 68.2107 471.386 67.576C471.642 66.936 472.018 66.4427 472.514 66.096C473.01 65.744 473.62 65.568 474.346 65.568C474.687 65.568 474.996 65.6107 475.274 65.696C475.556 65.776 475.807 65.8827 476.026 66.016C476.244 66.1493 476.428 66.296 476.578 66.456C476.732 66.616 476.852 66.776 476.938 66.936V62.112H478.898V74H477.458L477.242 72.304C477.172 72.5013 477.074 72.7093 476.946 72.928C476.823 73.1413 476.655 73.3413 476.442 73.528C476.234 73.7147 475.972 73.8667 475.658 73.984C475.343 74.1013 474.964 74.16 474.522 74.16ZM474.922 72.728C475.62 72.728 476.13 72.5013 476.45 72.048C476.775 71.5893 476.938 70.832 476.938 69.776C476.932 69.1733 476.858 68.6667 476.714 68.256C476.575 67.8453 476.362 67.536 476.074 67.328C475.786 67.12 475.41 67.016 474.946 67.016C474.359 67.016 473.876 67.232 473.498 67.664C473.124 68.096 472.938 68.8 472.938 69.776C472.938 70.7467 473.111 71.4827 473.458 71.984C473.804 72.48 474.292 72.728 474.922 72.728ZM484.242 74.16C483.149 74.16 482.29 73.784 481.666 73.032C481.042 72.28 480.73 71.2107 480.73 69.824C480.73 68.96 480.856 68.2107 481.106 67.576C481.362 66.936 481.738 66.4427 482.234 66.096C482.73 65.744 483.341 65.568 484.066 65.568C484.408 65.568 484.717 65.6107 484.994 65.696C485.277 65.776 485.528 65.8827 485.746 66.016C485.965 66.1493 486.149 66.296 486.298 66.456C486.453 66.616 486.573 66.776 486.658 66.936V62.112H488.618V74H487.178L486.962 72.304C486.893 72.5013 486.794 72.7093 486.666 72.928C486.544 73.1413 486.376 73.3413 486.162 73.528C485.954 73.7147 485.693 73.8667 485.378 73.984C485.064 74.1013 484.685 74.16 484.242 74.16ZM484.642 72.728C485.341 72.728 485.85 72.5013 486.17 72.048C486.496 71.5893 486.658 70.832 486.658 69.776C486.653 69.1733 486.578 68.6667 486.434 68.256C486.296 67.8453 486.082 67.536 485.794 67.328C485.506 67.12 485.13 67.016 484.666 67.016C484.08 67.016 483.597 67.232 483.218 67.664C482.845 68.096 482.658 68.8 482.658 69.776C482.658 70.7467 482.832 71.4827 483.178 71.984C483.525 72.48 484.013 72.728 484.642 72.728ZM498.037 74.16C497.279 74.16 496.605 73.9947 496.013 73.664C495.426 73.328 494.965 72.8427 494.629 72.208C494.293 71.568 494.125 70.7973 494.125 69.896C494.125 69.0373 494.282 68.2853 494.597 67.64C494.917 66.9893 495.367 66.4827 495.949 66.12C496.535 65.752 497.231 65.568 498.037 65.568C498.682 65.568 499.25 65.696 499.741 65.952C500.231 66.208 500.623 66.5627 500.917 67.016C501.215 67.4693 501.394 67.984 501.453 68.56H499.797C499.754 68.3093 499.661 68.072 499.517 67.848C499.373 67.6187 499.178 67.4347 498.933 67.296C498.693 67.152 498.399 67.08 498.053 67.08C497.429 67.08 496.925 67.3093 496.541 67.768C496.157 68.2267 495.965 68.9307 495.965 69.88C495.965 70.7547 496.146 71.4507 496.509 71.968C496.877 72.4853 497.402 72.744 498.085 72.744C498.426 72.744 498.719 72.6693 498.965 72.52C499.21 72.3653 499.402 72.176 499.541 71.952C499.685 71.7227 499.775 71.4933 499.813 71.264H501.429C501.381 71.824 501.207 72.3227 500.909 72.76C500.61 73.1973 500.215 73.5413 499.725 73.792C499.234 74.0373 498.671 74.16 498.037 74.16ZM503.301 74V65.728H505.165V67.52C505.298 67.1093 505.488 66.76 505.733 66.472C505.984 66.1787 506.277 65.9547 506.613 65.8C506.949 65.6453 507.314 65.568 507.709 65.568C507.805 65.568 507.898 65.5733 507.989 65.584C508.08 65.5947 508.146 65.6133 508.189 65.64V67.504C508.13 67.4773 508.053 67.4587 507.957 67.448C507.866 67.4373 507.786 67.432 507.717 67.432C507.317 67.4 506.962 67.416 506.653 67.48C506.349 67.544 506.09 67.6533 505.877 67.808C505.669 67.9573 505.512 68.1493 505.405 68.384C505.298 68.6133 505.245 68.8827 505.245 69.192V74H503.301ZM513.412 74.16C512.617 74.16 511.916 73.992 511.308 73.656C510.705 73.3147 510.233 72.8293 509.892 72.2C509.556 71.5707 509.388 70.8213 509.388 69.952C509.388 69.104 509.54 68.352 509.844 67.696C510.153 67.0347 510.599 66.5147 511.18 66.136C511.767 65.7573 512.473 65.568 513.3 65.568C514.116 65.568 514.801 65.7413 515.356 66.088C515.911 66.4347 516.332 66.92 516.62 67.544C516.908 68.1627 517.052 68.888 517.052 69.72V70.312H511.332C511.327 70.7813 511.401 71.1973 511.556 71.56C511.711 71.9227 511.94 72.208 512.244 72.416C512.548 72.6187 512.924 72.72 513.372 72.72C513.831 72.72 514.228 72.6187 514.564 72.416C514.905 72.208 515.132 71.8933 515.244 71.472H517.02C516.924 72.048 516.695 72.536 516.332 72.936C515.975 73.336 515.537 73.64 515.02 73.848C514.508 74.056 513.972 74.16 513.412 74.16ZM511.324 69.104H515.212C515.212 68.704 515.14 68.344 514.996 68.024C514.857 67.6987 514.647 67.4427 514.364 67.256C514.081 67.064 513.724 66.968 513.292 66.968C512.865 66.968 512.505 67.072 512.212 67.28C511.919 67.488 511.697 67.7573 511.548 68.088C511.399 68.4133 511.324 68.752 511.324 69.104ZM522.064 74.16C520.971 74.16 520.112 73.784 519.488 73.032C518.864 72.28 518.552 71.2107 518.552 69.824C518.552 68.96 518.677 68.2107 518.928 67.576C519.184 66.936 519.56 66.4427 520.056 66.096C520.552 65.744 521.163 65.568 521.888 65.568C522.229 65.568 522.539 65.6107 522.816 65.696C523.099 65.776 523.349 65.8827 523.568 66.016C523.787 66.1493 523.971 66.296 524.12 66.456C524.275 66.616 524.395 66.776 524.48 66.936V62.112H526.44V74H525L524.784 72.304C524.715 72.5013 524.616 72.7093 524.488 72.928C524.365 73.1413 524.197 73.3413 523.984 73.528C523.776 73.7147 523.515 73.8667 523.2 73.984C522.885 74.1013 522.507 74.16 522.064 74.16ZM522.464 72.728C523.163 72.728 523.672 72.5013 523.992 72.048C524.317 71.5893 524.48 70.832 524.48 69.776C524.475 69.1733 524.4 68.6667 524.256 68.256C524.117 67.8453 523.904 67.536 523.616 67.328C523.328 67.12 522.952 67.016 522.488 67.016C521.901 67.016 521.419 67.232 521.04 67.664C520.667 68.096 520.48 68.8 520.48 69.776C520.48 70.7467 520.653 71.4827 521 71.984C521.347 72.48 521.835 72.728 522.464 72.728ZM528.823 74V65.728H530.687V74H528.823ZM528.791 64.28V62.44H530.719V64.28H528.791ZM536.316 74.064C535.66 74.064 535.151 73.9787 534.788 73.808C534.431 73.632 534.183 73.384 534.044 73.064C533.905 72.744 533.836 72.3627 533.836 71.92V67.104H532.492V65.728H533.892L534.38 63.272H535.78V65.72H537.628V67.104H535.78L535.788 71.848C535.788 72.0933 535.815 72.2747 535.868 72.392C535.927 72.504 536.017 72.5787 536.14 72.616C536.268 72.648 536.436 72.664 536.644 72.664H537.668V73.896C537.556 73.9387 537.391 73.976 537.172 74.008C536.959 74.0453 536.673 74.064 536.316 74.064ZM546.69 74.16C545.933 74.16 545.258 73.9947 544.666 73.664C544.08 73.328 543.618 72.8427 543.282 72.208C542.946 71.568 542.778 70.7973 542.778 69.896C542.778 69.0373 542.936 68.2853 543.25 67.64C543.57 66.9893 544.021 66.4827 544.602 66.12C545.189 65.752 545.885 65.568 546.69 65.568C547.336 65.568 547.904 65.696 548.394 65.952C548.885 66.208 549.277 66.5627 549.57 67.016C549.869 67.4693 550.048 67.984 550.106 68.56H548.45C548.408 68.3093 548.314 68.072 548.17 67.848C548.026 67.6187 547.832 67.4347 547.586 67.296C547.346 67.152 547.053 67.08 546.706 67.08C546.082 67.08 545.578 67.3093 545.194 67.768C544.81 68.2267 544.618 68.9307 544.618 69.88C544.618 70.7547 544.8 71.4507 545.162 71.968C545.53 72.4853 546.056 72.744 546.738 72.744C547.08 72.744 547.373 72.6693 547.618 72.52C547.864 72.3653 548.056 72.176 548.194 71.952C548.338 71.7227 548.429 71.4933 548.466 71.264H550.082C550.034 71.824 549.861 72.3227 549.562 72.76C549.264 73.1973 548.869 73.5413 548.378 73.792C547.888 74.0373 547.325 74.16 546.69 74.16ZM554.347 74.16C553.819 74.16 553.344 74.064 552.923 73.872C552.507 73.6747 552.179 73.3947 551.939 73.032C551.704 72.664 551.587 72.2187 551.587 71.696C551.587 70.784 551.915 70.096 552.571 69.632C553.232 69.168 554.283 68.9253 555.723 68.904L556.963 68.872V68.312C556.963 67.8747 556.832 67.5333 556.571 67.288C556.315 67.0373 555.915 66.9147 555.371 66.92C554.965 66.9253 554.597 67.0213 554.267 67.208C553.936 67.3893 553.717 67.696 553.611 68.128H551.955C551.987 67.5627 552.149 67.0907 552.443 66.712C552.741 66.328 553.149 66.0427 553.667 65.856C554.184 65.664 554.781 65.568 555.459 65.568C556.248 65.568 556.891 65.672 557.387 65.88C557.883 66.088 558.248 66.3893 558.483 66.784C558.717 67.1733 558.835 67.6453 558.835 68.2V74H557.195L557.035 72.512C556.741 73.136 556.365 73.568 555.907 73.808C555.453 74.0427 554.933 74.16 554.347 74.16ZM554.979 72.84C555.219 72.84 555.456 72.7973 555.691 72.712C555.925 72.6213 556.136 72.5013 556.323 72.352C556.515 72.1973 556.667 72.0267 556.779 71.84C556.896 71.6533 556.957 71.4587 556.963 71.256V69.952L555.947 69.968C555.445 69.9733 555.005 70.0267 554.627 70.128C554.253 70.2293 553.963 70.392 553.755 70.616C553.547 70.8347 553.443 71.128 553.443 71.496C553.443 71.9173 553.589 72.248 553.883 72.488C554.176 72.7227 554.541 72.84 554.979 72.84ZM560.988 74V65.728H562.852V67.52C562.985 67.1093 563.174 66.76 563.42 66.472C563.67 66.1787 563.964 65.9547 564.3 65.8C564.636 65.6453 565.001 65.568 565.396 65.568C565.492 65.568 565.585 65.5733 565.676 65.584C565.766 65.5947 565.833 65.6133 565.876 65.64V67.504C565.817 67.4773 565.74 67.4587 565.644 67.448C565.553 67.4373 565.473 67.432 565.404 67.432C565.004 67.4 564.649 67.416 564.34 67.48C564.036 67.544 563.777 67.6533 563.564 67.808C563.356 67.9573 563.198 68.1493 563.092 68.384C562.985 68.6133 562.932 68.8827 562.932 69.192V74H560.988ZM570.515 74.16C569.421 74.16 568.563 73.784 567.939 73.032C567.315 72.28 567.003 71.2107 567.003 69.824C567.003 68.96 567.128 68.2107 567.379 67.576C567.635 66.936 568.011 66.4427 568.507 66.096C569.003 65.744 569.613 65.568 570.339 65.568C570.68 65.568 570.989 65.6107 571.267 65.696C571.549 65.776 571.8 65.8827 572.019 66.016C572.237 66.1493 572.421 66.296 572.571 66.456C572.725 66.616 572.845 66.776 572.931 66.936V62.112H574.891V74H573.451L573.235 72.304C573.165 72.5013 573.067 72.7093 572.939 72.928C572.816 73.1413 572.648 73.3413 572.435 73.528C572.227 73.7147 571.965 73.8667 571.651 73.984C571.336 74.1013 570.957 74.16 570.515 74.16ZM570.915 72.728C571.613 72.728 572.123 72.5013 572.443 72.048C572.768 71.5893 572.931 70.832 572.931 69.776C572.925 69.1733 572.851 68.6667 572.707 68.256C572.568 67.8453 572.355 67.536 572.067 67.328C571.779 67.12 571.403 67.016 570.939 67.016C570.352 67.016 569.869 67.232 569.491 67.664C569.117 68.096 568.931 68.8 568.931 69.776C568.931 70.7467 569.104 71.4827 569.451 71.984C569.797 72.48 570.285 72.728 570.915 72.728Z" fill="#020617" fill-opacity="0.35"/>
<path d="M459.45 292L462.582 283.324H463.998L467.124 292H465.828L465.012 289.726H461.574L460.752 292H459.45ZM461.892 288.562H464.676L463.284 284.572L461.892 288.562ZM470.63 292.12C469.818 292.12 469.176 291.842 468.704 291.286C468.236 290.726 468.002 289.92 468.002 288.868C468.002 288.224 468.096 287.664 468.284 287.188C468.476 286.708 468.758 286.336 469.13 286.072C469.502 285.808 469.966 285.676 470.522 285.676C470.798 285.676 471.046 285.71 471.266 285.778C471.486 285.846 471.678 285.934 471.842 286.042C472.006 286.15 472.144 286.266 472.256 286.39C472.368 286.514 472.452 286.63 472.508 286.738V283.084H473.804V292H472.838L472.694 290.728C472.65 290.864 472.582 291.012 472.49 291.172C472.402 291.332 472.278 291.484 472.118 291.628C471.962 291.772 471.762 291.89 471.518 291.982C471.274 292.074 470.978 292.12 470.63 292.12ZM470.876 291.154C471.452 291.154 471.868 290.974 472.124 290.614C472.38 290.25 472.508 289.654 472.508 288.826C472.504 288.358 472.446 287.962 472.334 287.638C472.226 287.314 472.054 287.07 471.818 286.906C471.586 286.738 471.28 286.654 470.9 286.654C470.424 286.654 470.034 286.826 469.73 287.17C469.43 287.51 469.28 288.062 469.28 288.826C469.28 289.578 469.416 290.154 469.688 290.554C469.964 290.954 470.36 291.154 470.876 291.154ZM477.885 292.12C477.073 292.12 476.431 291.842 475.959 291.286C475.491 290.726 475.257 289.92 475.257 288.868C475.257 288.224 475.351 287.664 475.539 287.188C475.731 286.708 476.013 286.336 476.385 286.072C476.757 285.808 477.221 285.676 477.777 285.676C478.053 285.676 478.301 285.71 478.521 285.778C478.741 285.846 478.933 285.934 479.097 286.042C479.261 286.15 479.399 286.266 479.511 286.39C479.623 286.514 479.707 286.63 479.763 286.738V283.084H481.059V292H480.093L479.949 290.728C479.905 290.864 479.837 291.012 479.745 291.172C479.657 291.332 479.533 291.484 479.373 291.628C479.217 291.772 479.017 291.89 478.773 291.982C478.529 292.074 478.233 292.12 477.885 292.12ZM478.131 291.154C478.707 291.154 479.123 290.974 479.379 290.614C479.635 290.25 479.763 289.654 479.763 288.826C479.759 288.358 479.701 287.962 479.589 287.638C479.481 287.314 479.309 287.07 479.073 286.906C478.841 286.738 478.535 286.654 478.155 286.654C477.679 286.654 477.289 286.826 476.985 287.17C476.685 287.51 476.535 288.062 476.535 288.826C476.535 289.578 476.671 290.154 476.943 290.554C477.219 290.954 477.615 291.154 478.131 291.154ZM482.925 292V285.796H484.155V287.068C484.259 286.764 484.403 286.51 484.587 286.306C484.775 286.098 484.993 285.942 485.241 285.838C485.489 285.73 485.751 285.676 486.027 285.676C486.111 285.676 486.191 285.682 486.267 285.694C486.343 285.702 486.403 285.718 486.447 285.742V286.978C486.395 286.954 486.327 286.938 486.243 286.93C486.163 286.922 486.093 286.916 486.033 286.912C485.761 286.892 485.513 286.906 485.289 286.954C485.065 287.002 484.871 287.082 484.707 287.194C484.547 287.306 484.423 287.452 484.335 287.632C484.251 287.812 484.209 288.024 484.209 288.268V292H482.925ZM490.361 292.12C489.772 292.12 489.254 291.994 488.806 291.742C488.358 291.486 488.008 291.122 487.756 290.65C487.508 290.178 487.384 289.616 487.384 288.964C487.384 288.32 487.498 287.752 487.726 287.26C487.954 286.764 488.284 286.376 488.716 286.096C489.148 285.816 489.668 285.676 490.277 285.676C490.873 285.676 491.377 285.804 491.788 286.06C492.2 286.316 492.512 286.676 492.725 287.14C492.937 287.6 493.043 288.144 493.043 288.772V289.198H488.674C488.67 289.57 488.73 289.904 488.854 290.2C488.978 290.492 489.162 290.724 489.406 290.896C489.654 291.064 489.962 291.148 490.33 291.148C490.702 291.148 491.023 291.064 491.29 290.896C491.562 290.728 491.74 290.478 491.824 290.146H493.013C492.941 290.57 492.771 290.93 492.503 291.226C492.234 291.522 491.912 291.746 491.536 291.898C491.161 292.046 490.769 292.12 490.361 292.12ZM488.674 288.364H491.818C491.818 288.04 491.762 287.746 491.65 287.482C491.538 287.214 491.367 287.004 491.135 286.852C490.906 286.696 490.618 286.618 490.27 286.618C489.914 286.618 489.618 286.704 489.382 286.876C489.146 287.048 488.968 287.268 488.848 287.536C488.732 287.804 488.674 288.08 488.674 288.364ZM496.839 292.12C496.407 292.12 496.001 292.052 495.621 291.916C495.245 291.78 494.929 291.566 494.673 291.274C494.421 290.982 494.263 290.608 494.199 290.152H495.345C495.397 290.388 495.495 290.584 495.639 290.74C495.787 290.892 495.963 291.006 496.167 291.082C496.375 291.154 496.597 291.19 496.833 291.19C497.225 291.19 497.543 291.12 497.787 290.98C498.031 290.836 498.153 290.616 498.153 290.32C498.153 290.108 498.087 289.938 497.955 289.81C497.823 289.682 497.617 289.588 497.337 289.528L496.101 289.234C495.589 289.114 495.179 288.924 494.871 288.664C494.563 288.4 494.407 288.032 494.403 287.56C494.403 287.196 494.493 286.872 494.673 286.588C494.857 286.304 495.129 286.082 495.489 285.922C495.853 285.758 496.301 285.676 496.833 285.676C497.533 285.676 498.095 285.832 498.519 286.144C498.947 286.456 499.167 286.908 499.179 287.5H498.069C498.029 287.216 497.899 286.994 497.679 286.834C497.463 286.67 497.177 286.588 496.821 286.588C496.453 286.588 496.151 286.662 495.915 286.81C495.679 286.954 495.561 287.176 495.561 287.476C495.561 287.68 495.647 287.842 495.819 287.962C495.995 288.078 496.253 288.174 496.593 288.25L497.769 288.544C498.073 288.624 498.323 288.73 498.519 288.862C498.715 288.99 498.869 289.132 498.981 289.288C499.093 289.444 499.171 289.606 499.215 289.774C499.263 289.942 499.287 290.1 499.287 290.248C499.287 290.64 499.187 290.976 498.987 291.256C498.791 291.532 498.511 291.746 498.147 291.898C497.783 292.046 497.347 292.12 496.839 292.12ZM503.017 292.12C502.585 292.12 502.179 292.052 501.799 291.916C501.423 291.78 501.107 291.566 500.851 291.274C500.599 290.982 500.441 290.608 500.377 290.152H501.523C501.575 290.388 501.673 290.584 501.817 290.74C501.965 290.892 502.141 291.006 502.345 291.082C502.553 291.154 502.775 291.19 503.011 291.19C503.403 291.19 503.721 291.12 503.965 290.98C504.209 290.836 504.331 290.616 504.331 290.32C504.331 290.108 504.265 289.938 504.133 289.81C504.001 289.682 503.795 289.588 503.515 289.528L502.279 289.234C501.767 289.114 501.357 288.924 501.049 288.664C500.741 288.4 500.585 288.032 500.581 287.56C500.581 287.196 500.671 286.872 500.851 286.588C501.035 286.304 501.307 286.082 501.667 285.922C502.031 285.758 502.479 285.676 503.011 285.676C503.711 285.676 504.273 285.832 504.697 286.144C505.125 286.456 505.345 286.908 505.357 287.5H504.247C504.207 287.216 504.077 286.994 503.857 286.834C503.641 286.67 503.355 286.588 502.999 286.588C502.631 286.588 502.329 286.662 502.093 286.81C501.857 286.954 501.739 287.176 501.739 287.476C501.739 287.68 501.825 287.842 501.997 287.962C502.173 288.078 502.431 288.174 502.771 288.25L503.947 288.544C504.251 288.624 504.501 288.73 504.697 288.862C504.893 288.99 505.047 289.132 505.159 289.288C505.271 289.444 505.349 289.606 505.393 289.774C505.441 289.942 505.465 290.1 505.465 290.248C505.465 290.64 505.365 290.976 505.165 291.256C504.969 291.532 504.689 291.746 504.325 291.898C503.961 292.046 503.525 292.12 503.017 292.12Z" fill="#020617" fill-opacity="0.35"/>
<g clip-path="url(#clip2_6126_218)">
<path d="M459 308C459 303.582 462.582 300 467 300H800C804.418 300 808 303.582 808 308V348C808 352.418 804.418 356 800 356H467C462.582 356 459 352.418 459 348V308Z" fill="url(#paint1_linear_6126_218)"/>
</g>
<path d="M459.5 308C459.5 303.858 462.858 300.5 467 300.5H800C804.142 300.5 807.5 303.858 807.5 308V348C807.5 352.142 804.142 355.5 800 355.5H467C462.858 355.5 459.5 352.142 459.5 348V308Z" stroke="#E2E8F0"/>
<path d="M460.098 200V191.324H461.34L465.756 197.792V191.324H467.046V200H465.894L461.382 193.394V200H460.098ZM470.805 200.12C470.405 200.12 470.049 200.048 469.737 199.904C469.429 199.76 469.187 199.552 469.011 199.28C468.835 199.008 468.747 198.68 468.747 198.296C468.747 197.608 468.989 197.094 469.473 196.754C469.961 196.414 470.741 196.234 471.813 196.214L472.833 196.184V195.734C472.833 195.378 472.727 195.098 472.515 194.894C472.303 194.69 471.975 194.59 471.531 194.594C471.203 194.594 470.909 194.67 470.649 194.822C470.389 194.974 470.219 195.224 470.139 195.572H469.029C469.053 195.16 469.171 194.814 469.383 194.534C469.599 194.25 469.895 194.036 470.271 193.892C470.647 193.748 471.087 193.676 471.591 193.676C472.159 193.676 472.625 193.754 472.989 193.91C473.353 194.062 473.623 194.286 473.799 194.582C473.979 194.878 474.069 195.238 474.069 195.662V200H472.977L472.881 198.86C472.649 199.336 472.355 199.666 471.999 199.85C471.643 200.03 471.245 200.12 470.805 200.12ZM471.207 199.226C471.403 199.226 471.597 199.192 471.789 199.124C471.981 199.052 472.155 198.956 472.311 198.836C472.467 198.712 472.591 198.574 472.683 198.422C472.779 198.27 472.829 198.114 472.833 197.954V196.928L471.993 196.946C471.565 196.95 471.201 196.994 470.901 197.078C470.605 197.162 470.377 197.292 470.217 197.468C470.061 197.644 469.983 197.878 469.983 198.17C469.983 198.502 470.097 198.762 470.325 198.95C470.557 199.134 470.851 199.226 471.207 199.226ZM475.775 200V193.796H477.023V194.69C477.199 194.418 477.439 194.182 477.743 193.982C478.047 193.778 478.439 193.676 478.919 193.676C479.143 193.676 479.369 193.714 479.597 193.79C479.829 193.866 480.041 193.98 480.233 194.132C480.429 194.28 480.583 194.464 480.695 194.684C480.891 194.388 481.153 194.146 481.481 193.958C481.809 193.77 482.177 193.676 482.585 193.676C482.805 193.676 483.033 193.712 483.269 193.784C483.505 193.852 483.723 193.97 483.923 194.138C484.127 194.302 484.291 194.53 484.415 194.822C484.543 195.114 484.607 195.484 484.607 195.932V200H483.317V196.07C483.317 195.73 483.259 195.464 483.143 195.272C483.031 195.08 482.883 194.946 482.699 194.87C482.519 194.79 482.327 194.75 482.123 194.75C481.939 194.75 481.747 194.786 481.547 194.858C481.347 194.93 481.177 195.05 481.037 195.218C480.897 195.386 480.827 195.614 480.827 195.902V200H479.543V195.794C479.543 195.566 479.481 195.374 479.357 195.218C479.237 195.062 479.085 194.946 478.901 194.87C478.721 194.79 478.541 194.75 478.361 194.75C478.161 194.75 477.961 194.79 477.761 194.87C477.561 194.95 477.393 195.076 477.257 195.248C477.125 195.416 477.059 195.634 477.059 195.902V200H475.775ZM489 200.12C488.412 200.12 487.894 199.994 487.446 199.742C486.998 199.486 486.648 199.122 486.396 198.65C486.148 198.178 486.024 197.616 486.024 196.964C486.024 196.32 486.138 195.752 486.366 195.26C486.594 194.764 486.924 194.376 487.356 194.096C487.788 193.816 488.308 193.676 488.916 193.676C489.512 193.676 490.016 193.804 490.428 194.06C490.84 194.316 491.152 194.676 491.364 195.14C491.576 195.6 491.682 196.144 491.682 196.772V197.198H487.314C487.31 197.57 487.37 197.904 487.494 198.2C487.618 198.492 487.802 198.724 488.046 198.896C488.294 199.064 488.602 199.148 488.97 199.148C489.342 199.148 489.662 199.064 489.93 198.896C490.202 198.728 490.38 198.478 490.464 198.146H491.652C491.58 198.57 491.41 198.93 491.142 199.226C490.874 199.522 490.552 199.746 490.176 199.898C489.8 200.046 489.408 200.12 489 200.12ZM487.314 196.364H490.458C490.458 196.04 490.402 195.746 490.29 195.482C490.178 195.214 490.006 195.004 489.774 194.852C489.546 194.696 489.258 194.618 488.91 194.618C488.554 194.618 488.258 194.704 488.022 194.876C487.786 195.048 487.608 195.268 487.488 195.536C487.372 195.804 487.314 196.08 487.314 196.364ZM498.468 200.12C497.888 200.12 497.382 199.996 496.95 199.748C496.518 199.496 496.182 199.132 495.942 198.656C495.702 198.18 495.582 197.604 495.582 196.928C495.582 196.276 495.696 195.706 495.924 195.218C496.152 194.73 496.48 194.352 496.908 194.084C497.34 193.812 497.862 193.676 498.474 193.676C499.058 193.676 499.564 193.804 499.992 194.06C500.42 194.312 500.752 194.682 500.988 195.17C501.224 195.654 501.342 196.24 501.342 196.928C501.342 197.556 501.232 198.11 501.012 198.59C500.792 199.07 500.468 199.446 500.04 199.718C499.616 199.986 499.092 200.12 498.468 200.12ZM498.474 199.13C498.83 199.13 499.126 199.038 499.362 198.854C499.598 198.666 499.776 198.404 499.896 198.068C500.016 197.728 500.076 197.336 500.076 196.892C500.076 196.48 500.022 196.106 499.914 195.77C499.81 195.43 499.64 195.16 499.404 194.96C499.172 194.76 498.862 194.66 498.474 194.66C498.118 194.66 497.818 194.752 497.574 194.936C497.334 195.116 497.154 195.374 497.034 195.71C496.914 196.042 496.854 196.436 496.854 196.892C496.854 197.296 496.908 197.668 497.016 198.008C497.124 198.348 497.296 198.62 497.532 198.824C497.772 199.028 498.086 199.13 498.474 199.13ZM502.804 200V193.796H504.058V194.69C504.158 194.522 504.292 194.364 504.46 194.216C504.632 194.068 504.842 193.948 505.09 193.856C505.342 193.764 505.632 193.718 505.96 193.718C506.348 193.718 506.706 193.796 507.034 193.952C507.366 194.104 507.632 194.344 507.832 194.672C508.032 194.996 508.132 195.416 508.132 195.932V200H506.848V196.07C506.848 195.626 506.728 195.296 506.488 195.08C506.252 194.864 505.946 194.756 505.57 194.756C505.318 194.756 505.078 194.798 504.85 194.882C504.622 194.966 504.438 195.094 504.298 195.266C504.158 195.434 504.088 195.646 504.088 195.902V200H502.804ZM515.177 200.12C514.617 200.12 514.119 199.998 513.683 199.754C513.247 199.506 512.905 199.144 512.657 198.668C512.409 198.188 512.285 197.606 512.285 196.922C512.285 196.278 512.399 195.712 512.627 195.224C512.859 194.736 513.191 194.356 513.623 194.084C514.055 193.812 514.573 193.676 515.177 193.676C515.645 193.676 516.059 193.768 516.419 193.952C516.779 194.132 517.071 194.384 517.295 194.708C517.523 195.032 517.661 195.41 517.709 195.842H516.593C516.561 195.638 516.485 195.448 516.365 195.272C516.245 195.096 516.087 194.956 515.891 194.852C515.695 194.744 515.461 194.69 515.189 194.69C514.689 194.69 514.283 194.872 513.971 195.236C513.659 195.6 513.503 196.158 513.503 196.91C513.503 197.598 513.649 198.146 513.941 198.554C514.233 198.962 514.655 199.166 515.207 199.166C515.479 199.166 515.713 199.11 515.909 198.998C516.105 198.886 516.261 198.742 516.377 198.566C516.497 198.39 516.573 198.208 516.605 198.02H517.697C517.649 198.436 517.511 198.802 517.283 199.118C517.059 199.434 516.767 199.68 516.407 199.856C516.047 200.032 515.637 200.12 515.177 200.12ZM520.926 200.12C520.526 200.12 520.17 200.048 519.858 199.904C519.55 199.76 519.308 199.552 519.132 199.28C518.956 199.008 518.868 198.68 518.868 198.296C518.868 197.608 519.11 197.094 519.594 196.754C520.082 196.414 520.862 196.234 521.934 196.214L522.954 196.184V195.734C522.954 195.378 522.848 195.098 522.636 194.894C522.424 194.69 522.096 194.59 521.652 194.594C521.324 194.594 521.03 194.67 520.77 194.822C520.51 194.974 520.34 195.224 520.26 195.572H519.15C519.174 195.16 519.292 194.814 519.504 194.534C519.72 194.25 520.016 194.036 520.392 193.892C520.768 193.748 521.208 193.676 521.712 193.676C522.28 193.676 522.746 193.754 523.11 193.91C523.474 194.062 523.744 194.286 523.92 194.582C524.1 194.878 524.19 195.238 524.19 195.662V200H523.098L523.002 198.86C522.77 199.336 522.476 199.666 522.12 199.85C521.764 200.03 521.366 200.12 520.926 200.12ZM521.328 199.226C521.524 199.226 521.718 199.192 521.91 199.124C522.102 199.052 522.276 198.956 522.432 198.836C522.588 198.712 522.712 198.574 522.804 198.422C522.9 198.27 522.95 198.114 522.954 197.954V196.928L522.114 196.946C521.686 196.95 521.322 196.994 521.022 197.078C520.726 197.162 520.498 197.292 520.338 197.468C520.182 197.644 520.104 197.878 520.104 198.17C520.104 198.502 520.218 198.762 520.446 198.95C520.678 199.134 520.972 199.226 521.328 199.226ZM525.896 200V193.796H527.126V195.068C527.23 194.764 527.374 194.51 527.558 194.306C527.746 194.098 527.964 193.942 528.212 193.838C528.46 193.73 528.722 193.676 528.998 193.676C529.082 193.676 529.162 193.682 529.238 193.694C529.314 193.702 529.374 193.718 529.418 193.742V194.978C529.366 194.954 529.298 194.938 529.214 194.93C529.134 194.922 529.064 194.916 529.004 194.912C528.732 194.892 528.484 194.906 528.26 194.954C528.036 195.002 527.842 195.082 527.678 195.194C527.518 195.306 527.394 195.452 527.306 195.632C527.222 195.812 527.18 196.024 527.18 196.268V200H525.896ZM532.929 200.12C532.117 200.12 531.475 199.842 531.003 199.286C530.535 198.726 530.301 197.92 530.301 196.868C530.301 196.224 530.395 195.664 530.583 195.188C530.775 194.708 531.057 194.336 531.429 194.072C531.801 193.808 532.265 193.676 532.821 193.676C533.097 193.676 533.345 193.71 533.565 193.778C533.785 193.846 533.977 193.934 534.141 194.042C534.305 194.15 534.443 194.266 534.555 194.39C534.667 194.514 534.751 194.63 534.807 194.738V191.084H536.103V200H535.137L534.993 198.728C534.949 198.864 534.881 199.012 534.789 199.172C534.701 199.332 534.577 199.484 534.417 199.628C534.261 199.772 534.061 199.89 533.817 199.982C533.573 200.074 533.277 200.12 532.929 200.12ZM533.175 199.154C533.751 199.154 534.167 198.974 534.423 198.614C534.679 198.25 534.807 197.654 534.807 196.826C534.803 196.358 534.745 195.962 534.633 195.638C534.525 195.314 534.353 195.07 534.117 194.906C533.885 194.738 533.579 194.654 533.199 194.654C532.723 194.654 532.333 194.826 532.029 195.17C531.729 195.51 531.579 196.062 531.579 196.826C531.579 197.578 531.715 198.154 531.987 198.554C532.263 198.954 532.659 199.154 533.175 199.154Z" fill="#020617" fill-opacity="0.35"/>
<g clip-path="url(#clip3_6126_218)">
<path d="M459 216C459 211.582 462.582 208 467 208H800C804.418 208 808 211.582 808 216V256C808 260.418 804.418 264 800 264H467C462.582 264 459 260.418 459 256V216Z" fill="url(#paint2_linear_6126_218)"/>
</g>
<path d="M459.5 216C459.5 211.858 462.858 208.5 467 208.5H800C804.142 208.5 807.5 211.858 807.5 216V256C807.5 260.142 804.142 263.5 800 263.5H467C462.858 263.5 459.5 260.142 459.5 256V216Z" stroke="#E2E8F0"/>
<path d="M463.38 108.12C462.596 108.12 461.924 107.94 461.364 107.58C460.804 107.216 460.374 106.7 460.074 106.032C459.778 105.36 459.63 104.556 459.63 103.62C459.63 102.688 459.778 101.894 460.074 101.238C460.37 100.578 460.798 100.074 461.358 99.726C461.918 99.378 462.592 99.204 463.38 99.204C464.004 99.204 464.558 99.332 465.042 99.588C465.526 99.844 465.914 100.188 466.206 100.62C466.502 101.052 466.678 101.53 466.734 102.054H465.366C465.306 101.726 465.19 101.43 465.018 101.166C464.85 100.898 464.626 100.688 464.346 100.536C464.066 100.38 463.734 100.302 463.35 100.302C462.858 100.302 462.44 100.418 462.096 100.65C461.752 100.882 461.49 101.244 461.31 101.736C461.134 102.228 461.046 102.862 461.046 103.638C461.046 104.81 461.244 105.668 461.64 106.212C462.036 106.752 462.606 107.022 463.35 107.022C463.734 107.022 464.066 106.94 464.346 106.776C464.626 106.608 464.85 106.386 465.018 106.11C465.19 105.83 465.306 105.526 465.366 105.198H466.734C466.686 105.578 466.586 105.944 466.434 106.296C466.282 106.644 466.07 106.956 465.798 107.232C465.53 107.508 465.196 107.726 464.796 107.886C464.396 108.042 463.924 108.12 463.38 108.12ZM469.95 108.12C469.55 108.12 469.194 108.048 468.882 107.904C468.574 107.76 468.332 107.552 468.156 107.28C467.98 107.008 467.892 106.68 467.892 106.296C467.892 105.608 468.134 105.094 468.618 104.754C469.106 104.414 469.886 104.234 470.958 104.214L471.978 104.184V103.734C471.978 103.378 471.872 103.098 471.66 102.894C471.448 102.69 471.12 102.59 470.676 102.594C470.348 102.594 470.054 102.67 469.794 102.822C469.534 102.974 469.364 103.224 469.284 103.572H468.174C468.198 103.16 468.316 102.814 468.528 102.534C468.744 102.25 469.04 102.036 469.416 101.892C469.792 101.748 470.232 101.676 470.736 101.676C471.304 101.676 471.77 101.754 472.134 101.91C472.498 102.062 472.768 102.286 472.944 102.582C473.124 102.878 473.214 103.238 473.214 103.662V108H472.122L472.026 106.86C471.794 107.336 471.5 107.666 471.144 107.85C470.788 108.03 470.39 108.12 469.95 108.12ZM470.352 107.226C470.548 107.226 470.742 107.192 470.934 107.124C471.126 107.052 471.3 106.956 471.456 106.836C471.612 106.712 471.736 106.574 471.828 106.422C471.924 106.27 471.974 106.114 471.978 105.954V104.928L471.138 104.946C470.71 104.95 470.346 104.994 470.046 105.078C469.75 105.162 469.522 105.292 469.362 105.468C469.206 105.644 469.128 105.878 469.128 106.17C469.128 106.502 469.242 106.762 469.47 106.95C469.702 107.134 469.996 107.226 470.352 107.226ZM474.92 108V101.796H476.15V103.068C476.254 102.764 476.398 102.51 476.582 102.306C476.77 102.098 476.988 101.942 477.236 101.838C477.484 101.73 477.746 101.676 478.022 101.676C478.106 101.676 478.186 101.682 478.262 101.694C478.338 101.702 478.398 101.718 478.442 101.742V102.978C478.39 102.954 478.322 102.938 478.238 102.93C478.158 102.922 478.088 102.916 478.028 102.912C477.756 102.892 477.508 102.906 477.284 102.954C477.06 103.002 476.866 103.082 476.702 103.194C476.542 103.306 476.418 103.452 476.33 103.632C476.246 103.812 476.204 104.024 476.204 104.268V108H474.92ZM481.953 108.12C481.141 108.12 480.499 107.842 480.027 107.286C479.559 106.726 479.325 105.92 479.325 104.868C479.325 104.224 479.419 103.664 479.607 103.188C479.799 102.708 480.081 102.336 480.453 102.072C480.825 101.808 481.289 101.676 481.845 101.676C482.121 101.676 482.369 101.71 482.589 101.778C482.809 101.846 483.001 101.934 483.165 102.042C483.329 102.15 483.467 102.266 483.579 102.39C483.691 102.514 483.775 102.63 483.831 102.738V99.084H485.127V108H484.161L484.017 106.728C483.973 106.864 483.905 107.012 483.813 107.172C483.725 107.332 483.601 107.484 483.441 107.628C483.285 107.772 483.085 107.89 482.841 107.982C482.597 108.074 482.301 108.12 481.953 108.12ZM482.199 107.154C482.775 107.154 483.191 106.974 483.447 106.614C483.703 106.25 483.831 105.654 483.831 104.826C483.827 104.358 483.769 103.962 483.657 103.638C483.549 103.314 483.377 103.07 483.141 102.906C482.909 102.738 482.603 102.654 482.223 102.654C481.747 102.654 481.357 102.826 481.053 103.17C480.753 103.51 480.603 104.062 480.603 104.826C480.603 105.578 480.739 106.154 481.011 106.554C481.287 106.954 481.683 107.154 482.199 107.154ZM491.999 108.12C491.187 108.12 490.545 107.842 490.073 107.286C489.605 106.726 489.371 105.92 489.371 104.868C489.371 104.224 489.465 103.664 489.653 103.188C489.845 102.708 490.127 102.336 490.499 102.072C490.871 101.808 491.335 101.676 491.891 101.676C492.167 101.676 492.415 101.71 492.635 101.778C492.855 101.846 493.047 101.934 493.211 102.042C493.375 102.15 493.513 102.266 493.625 102.39C493.737 102.514 493.821 102.63 493.877 102.738V99.084H495.173V108H494.207L494.063 106.728C494.019 106.864 493.951 107.012 493.859 107.172C493.771 107.332 493.647 107.484 493.487 107.628C493.331 107.772 493.131 107.89 492.887 107.982C492.643 108.074 492.347 108.12 491.999 108.12ZM492.245 107.154C492.821 107.154 493.237 106.974 493.493 106.614C493.749 106.25 493.877 105.654 493.877 104.826C493.873 104.358 493.815 103.962 493.703 103.638C493.595 103.314 493.423 103.07 493.187 102.906C492.955 102.738 492.649 102.654 492.269 102.654C491.793 102.654 491.403 102.826 491.099 103.17C490.799 103.51 490.649 104.062 490.649 104.826C490.649 105.578 490.785 106.154 491.057 106.554C491.333 106.954 491.729 107.154 492.245 107.154ZM499.656 108.12C499.068 108.12 498.55 107.994 498.102 107.742C497.654 107.486 497.304 107.122 497.052 106.65C496.804 106.178 496.68 105.616 496.68 104.964C496.68 104.32 496.794 103.752 497.022 103.26C497.25 102.764 497.58 102.376 498.012 102.096C498.444 101.816 498.964 101.676 499.572 101.676C500.168 101.676 500.672 101.804 501.084 102.06C501.496 102.316 501.808 102.676 502.02 103.14C502.232 103.6 502.338 104.144 502.338 104.772V105.198H497.97C497.966 105.57 498.026 105.904 498.15 106.2C498.274 106.492 498.458 106.724 498.702 106.896C498.95 107.064 499.258 107.148 499.626 107.148C499.998 107.148 500.318 107.064 500.586 106.896C500.858 106.728 501.036 106.478 501.12 106.146H502.308C502.236 106.57 502.066 106.93 501.798 107.226C501.53 107.522 501.208 107.746 500.832 107.898C500.456 108.046 500.064 108.12 499.656 108.12ZM497.97 104.364H501.114C501.114 104.04 501.058 103.746 500.946 103.482C500.834 103.214 500.662 103.004 500.43 102.852C500.202 102.696 499.914 102.618 499.566 102.618C499.21 102.618 498.914 102.704 498.678 102.876C498.442 103.048 498.264 103.268 498.144 103.536C498.028 103.804 497.97 104.08 497.97 104.364ZM505.984 108.042C505.524 108.042 505.168 107.98 504.916 107.856C504.664 107.732 504.488 107.554 504.388 107.322C504.288 107.086 504.238 106.802 504.238 106.47V102.72H503.23V101.796H504.28L504.592 99.972H505.528V101.79H506.92V102.72H505.528L505.534 106.422C505.534 106.626 505.554 106.776 505.594 106.872C505.638 106.964 505.71 107.024 505.81 107.052C505.914 107.076 506.054 107.088 506.23 107.088H506.95V107.922C506.874 107.954 506.756 107.982 506.596 108.006C506.44 108.03 506.236 108.042 505.984 108.042ZM510.155 108.12C509.755 108.12 509.399 108.048 509.087 107.904C508.779 107.76 508.537 107.552 508.361 107.28C508.185 107.008 508.097 106.68 508.097 106.296C508.097 105.608 508.339 105.094 508.823 104.754C509.311 104.414 510.091 104.234 511.163 104.214L512.183 104.184V103.734C512.183 103.378 512.077 103.098 511.865 102.894C511.653 102.69 511.325 102.59 510.881 102.594C510.553 102.594 510.259 102.67 509.999 102.822C509.739 102.974 509.569 103.224 509.489 103.572H508.379C508.403 103.16 508.521 102.814 508.733 102.534C508.949 102.25 509.245 102.036 509.621 101.892C509.997 101.748 510.437 101.676 510.941 101.676C511.509 101.676 511.975 101.754 512.339 101.91C512.703 102.062 512.973 102.286 513.149 102.582C513.329 102.878 513.419 103.238 513.419 103.662V108H512.327L512.231 106.86C511.999 107.336 511.705 107.666 511.349 107.85C510.993 108.03 510.595 108.12 510.155 108.12ZM510.557 107.226C510.753 107.226 510.947 107.192 511.139 107.124C511.331 107.052 511.505 106.956 511.661 106.836C511.817 106.712 511.941 106.574 512.033 106.422C512.129 106.27 512.179 106.114 512.183 105.954V104.928L511.343 104.946C510.915 104.95 510.551 104.994 510.251 105.078C509.955 105.162 509.727 105.292 509.567 105.468C509.411 105.644 509.333 105.878 509.333 106.17C509.333 106.502 509.447 106.762 509.675 106.95C509.907 107.134 510.201 107.226 510.557 107.226ZM515.155 108V101.796H516.391V108H515.155ZM515.125 100.596V99.33H516.415V100.596H515.125ZM519.97 108.084C519.602 108.084 519.306 108.036 519.082 107.94C518.862 107.844 518.694 107.716 518.578 107.556C518.462 107.392 518.384 107.208 518.344 107.004C518.308 106.796 518.29 106.582 518.29 106.362V99.084H519.556V106.23C519.556 106.518 519.612 106.738 519.724 106.89C519.84 107.042 520.016 107.128 520.252 107.148L520.576 107.16V107.976C520.476 108.008 520.372 108.034 520.264 108.054C520.16 108.074 520.062 108.084 519.97 108.084ZM524.223 108.12C523.791 108.12 523.385 108.052 523.005 107.916C522.629 107.78 522.313 107.566 522.057 107.274C521.805 106.982 521.647 106.608 521.583 106.152H522.729C522.781 106.388 522.879 106.584 523.023 106.74C523.171 106.892 523.347 107.006 523.551 107.082C523.759 107.154 523.981 107.19 524.217 107.19C524.609 107.19 524.927 107.12 525.171 106.98C525.415 106.836 525.537 106.616 525.537 106.32C525.537 106.108 525.471 105.938 525.339 105.81C525.207 105.682 525.001 105.588 524.721 105.528L523.485 105.234C522.973 105.114 522.563 104.924 522.255 104.664C521.947 104.4 521.791 104.032 521.787 103.56C521.787 103.196 521.877 102.872 522.057 102.588C522.241 102.304 522.513 102.082 522.873 101.922C523.237 101.758 523.685 101.676 524.217 101.676C524.917 101.676 525.479 101.832 525.903 102.144C526.331 102.456 526.551 102.908 526.563 103.5H525.453C525.413 103.216 525.283 102.994 525.063 102.834C524.847 102.67 524.561 102.588 524.205 102.588C523.837 102.588 523.535 102.662 523.299 102.81C523.063 102.954 522.945 103.176 522.945 103.476C522.945 103.68 523.031 103.842 523.203 103.962C523.379 104.078 523.637 104.174 523.977 104.25L525.153 104.544C525.457 104.624 525.707 104.73 525.903 104.862C526.099 104.99 526.253 105.132 526.365 105.288C526.477 105.444 526.555 105.606 526.599 105.774C526.647 105.942 526.671 106.1 526.671 106.248C526.671 106.64 526.571 106.976 526.371 107.256C526.175 107.532 525.895 107.746 525.531 107.898C525.167 108.046 524.731 108.12 524.223 108.12Z" fill="#020617" fill-opacity="0.35"/>
<g filter="url(#filter0_d_6126_218)">
<g clip-path="url(#clip4_6126_218)">
<path d="M459 124C459 119.582 462.582 116 467 116H800C804.418 116 808 119.582 808 124V164C808 168.418 804.418 172 800 172H467C462.582 172 459 168.418 459 164V124Z" fill="url(#paint3_linear_6126_218)"/>
<path d="M480.784 150.16C479.744 150.16 478.856 149.923 478.12 149.448C477.389 148.973 476.829 148.291 476.44 147.4C476.056 146.509 475.864 145.435 475.864 144.176C475.864 142.923 476.056 141.856 476.44 140.976C476.824 140.096 477.381 139.427 478.112 138.968C478.848 138.504 479.739 138.272 480.784 138.272C481.6 138.272 482.323 138.443 482.952 138.784C483.581 139.12 484.088 139.571 484.472 140.136C484.856 140.701 485.083 141.323 485.152 142H483.576C483.491 141.547 483.328 141.136 483.088 140.768C482.848 140.4 482.533 140.107 482.144 139.888C481.755 139.669 481.288 139.56 480.744 139.56C480.045 139.56 479.453 139.725 478.968 140.056C478.488 140.381 478.123 140.885 477.872 141.568C477.627 142.251 477.504 143.125 477.504 144.192C477.504 145.803 477.779 146.987 478.328 147.744C478.883 148.496 479.688 148.872 480.744 148.872C481.288 148.872 481.755 148.757 482.144 148.528C482.533 148.299 482.848 147.992 483.088 147.608C483.328 147.224 483.491 146.808 483.576 146.36H485.152C485.093 146.851 484.96 147.325 484.752 147.784C484.549 148.237 484.269 148.643 483.912 149C483.555 149.357 483.115 149.64 482.592 149.848C482.075 150.056 481.472 150.16 480.784 150.16ZM489.53 150.16C488.992 150.16 488.517 150.067 488.106 149.88C487.701 149.688 487.381 149.413 487.146 149.056C486.917 148.699 486.802 148.267 486.802 147.76C486.802 146.843 487.122 146.16 487.762 145.712C488.402 145.264 489.429 145.024 490.842 144.992L492.314 144.952V144.304C492.314 143.797 492.162 143.397 491.858 143.104C491.554 142.805 491.085 142.656 490.45 142.656C489.976 142.661 489.557 142.773 489.194 142.992C488.832 143.211 488.6 143.568 488.498 144.064H487.194C487.226 143.525 487.376 143.072 487.642 142.704C487.914 142.331 488.296 142.048 488.786 141.856C489.277 141.664 489.856 141.568 490.522 141.568C491.242 141.568 491.84 141.669 492.314 141.872C492.794 142.075 493.152 142.373 493.386 142.768C493.626 143.163 493.746 143.648 493.746 144.224V150H492.482L492.37 148.448C492.056 149.093 491.65 149.541 491.154 149.792C490.664 150.037 490.122 150.16 489.53 150.16ZM489.97 149.096C490.253 149.096 490.53 149.045 490.802 148.944C491.08 148.843 491.33 148.707 491.554 148.536C491.784 148.36 491.968 148.165 492.106 147.952C492.245 147.733 492.314 147.509 492.314 147.28V145.864L491.09 145.888C490.456 145.899 489.928 145.963 489.506 146.08C489.085 146.197 488.768 146.381 488.554 146.632C488.341 146.883 488.234 147.211 488.234 147.616C488.234 148.08 488.397 148.443 488.722 148.704C489.048 148.965 489.464 149.096 489.97 149.096ZM496.134 150V141.728H497.542V143.32C497.681 142.925 497.875 142.6 498.126 142.344C498.377 142.083 498.662 141.888 498.982 141.76C499.307 141.632 499.643 141.568 499.99 141.568C500.113 141.568 500.233 141.576 500.35 141.592C500.467 141.608 500.558 141.635 500.622 141.672V143.104C500.542 143.067 500.438 143.043 500.31 143.032C500.187 143.016 500.083 143.008 499.998 143.008C499.667 142.987 499.358 143.008 499.07 143.072C498.782 143.131 498.529 143.235 498.31 143.384C498.091 143.533 497.918 143.731 497.79 143.976C497.667 144.216 497.606 144.509 497.606 144.856V150H496.134ZM505.355 150.16C504.278 150.16 503.424 149.792 502.795 149.056C502.171 148.32 501.859 147.245 501.859 145.832C501.859 144.973 501.984 144.224 502.235 143.584C502.486 142.944 502.862 142.448 503.363 142.096C503.864 141.744 504.488 141.568 505.235 141.568C505.635 141.568 505.987 141.619 506.291 141.72C506.595 141.821 506.859 141.949 507.083 142.104C507.307 142.259 507.488 142.419 507.627 142.584C507.771 142.749 507.878 142.901 507.947 143.04V138.112H509.443V150H508.307L508.147 148.304C508.094 148.464 508.008 148.651 507.891 148.864C507.774 149.072 507.608 149.277 507.395 149.48C507.187 149.677 506.915 149.84 506.579 149.968C506.243 150.096 505.835 150.16 505.355 150.16ZM505.619 149.024C506.451 149.024 507.046 148.771 507.403 148.264C507.766 147.752 507.947 146.917 507.947 145.76C507.942 145.115 507.862 144.565 507.707 144.112C507.552 143.659 507.307 143.315 506.971 143.08C506.64 142.84 506.198 142.72 505.643 142.72C504.966 142.72 504.414 142.963 503.987 143.448C503.56 143.933 503.347 144.704 503.347 145.76C503.347 146.795 503.539 147.597 503.923 148.168C504.307 148.739 504.872 149.024 505.619 149.024ZM515.937 150V141.728H517.369V142.928C517.502 142.699 517.686 142.483 517.921 142.28C518.161 142.077 518.449 141.915 518.785 141.792C519.126 141.669 519.518 141.608 519.961 141.608C520.483 141.608 520.963 141.712 521.401 141.92C521.843 142.128 522.195 142.453 522.457 142.896C522.723 143.333 522.857 143.899 522.857 144.592V150H521.377V144.736C521.377 144.091 521.206 143.613 520.865 143.304C520.529 142.989 520.091 142.832 519.553 142.832C519.179 142.832 518.83 142.893 518.505 143.016C518.179 143.133 517.915 143.315 517.713 143.56C517.51 143.8 517.409 144.104 517.409 144.472V150H515.937ZM528.291 150.16C527.859 150.155 527.451 150.093 527.067 149.976C526.688 149.853 526.352 149.675 526.059 149.44C525.766 149.205 525.534 148.915 525.363 148.568C525.198 148.216 525.115 147.808 525.115 147.344V141.728H526.595V147.192C526.595 147.731 526.76 148.168 527.091 148.504C527.427 148.84 527.931 149.008 528.603 149.008C529.211 149.008 529.699 148.851 530.067 148.536C530.44 148.216 530.627 147.741 530.627 147.112V141.728H532.099V150H530.923L530.771 148.416C530.67 148.832 530.496 149.168 530.251 149.424C530.011 149.68 529.72 149.869 529.379 149.992C529.043 150.109 528.68 150.165 528.291 150.16ZM534.706 150V141.728H536.13V142.928C536.359 142.565 536.674 142.248 537.074 141.976C537.474 141.704 537.994 141.568 538.634 141.568C538.933 141.568 539.237 141.619 539.546 141.72C539.861 141.821 540.149 141.973 540.41 142.176C540.671 142.379 540.874 142.627 541.018 142.92C541.274 142.515 541.621 142.189 542.058 141.944C542.495 141.693 542.989 141.568 543.538 141.568C543.826 141.568 544.127 141.613 544.442 141.704C544.757 141.789 545.047 141.944 545.314 142.168C545.586 142.387 545.807 142.693 545.978 143.088C546.149 143.477 546.234 143.979 546.234 144.592V150H544.746V144.736C544.746 144.235 544.666 143.848 544.506 143.576C544.346 143.299 544.135 143.104 543.874 142.992C543.618 142.88 543.343 142.824 543.05 142.824C542.794 142.824 542.522 142.875 542.234 142.976C541.946 143.077 541.701 143.248 541.498 143.488C541.295 143.728 541.194 144.056 541.194 144.472V150H539.722V144.304C539.722 143.979 539.634 143.707 539.458 143.488C539.287 143.269 539.071 143.104 538.81 142.992C538.554 142.88 538.298 142.824 538.042 142.824C537.759 142.824 537.474 142.88 537.186 142.992C536.903 143.104 536.663 143.283 536.466 143.528C536.274 143.768 536.178 144.083 536.178 144.472V150H534.706ZM552.718 150.16C552.232 150.16 551.822 150.096 551.486 149.968C551.155 149.84 550.883 149.677 550.67 149.48C550.456 149.277 550.291 149.072 550.174 148.864C550.056 148.651 549.971 148.464 549.918 148.304L549.758 150H548.63V138.112H550.118V143.04C550.187 142.901 550.291 142.749 550.43 142.584C550.574 142.419 550.758 142.259 550.982 142.104C551.206 141.949 551.47 141.821 551.774 141.72C552.083 141.619 552.435 141.568 552.83 141.568C553.864 141.568 554.686 141.928 555.294 142.648C555.907 143.368 556.214 144.429 556.214 145.832C556.214 146.701 556.083 147.461 555.822 148.112C555.56 148.757 555.171 149.261 554.654 149.624C554.136 149.981 553.491 150.16 552.718 150.16ZM552.454 149.024C553.126 149.024 553.672 148.765 554.094 148.248C554.515 147.725 554.726 146.896 554.726 145.76C554.726 144.795 554.528 144.048 554.134 143.52C553.744 142.987 553.174 142.72 552.422 142.72C551.872 142.72 551.43 142.84 551.094 143.08C550.763 143.315 550.518 143.659 550.358 144.112C550.203 144.565 550.123 145.115 550.118 145.76C550.118 146.917 550.296 147.752 550.654 148.264C551.016 148.771 551.616 149.024 552.454 149.024ZM561.753 150.16C560.985 150.16 560.307 149.992 559.721 149.656C559.134 149.32 558.675 148.837 558.345 148.208C558.014 147.579 557.849 146.824 557.849 145.944C557.849 145.075 557.998 144.312 558.297 143.656C558.595 143 559.027 142.488 559.593 142.12C560.163 141.752 560.849 141.568 561.649 141.568C562.427 141.568 563.086 141.736 563.625 142.072C564.163 142.408 564.571 142.883 564.849 143.496C565.131 144.104 565.273 144.827 565.273 145.664V146.208H559.345C559.345 146.731 559.43 147.205 559.601 147.632C559.777 148.053 560.041 148.389 560.393 148.64C560.745 148.891 561.19 149.016 561.729 149.016C562.257 149.016 562.71 148.893 563.089 148.648C563.473 148.403 563.718 148.048 563.825 147.584H565.217C565.121 148.144 564.897 148.616 564.545 149C564.198 149.384 563.779 149.675 563.289 149.872C562.803 150.064 562.291 150.16 561.753 150.16ZM559.353 145.208H563.849C563.849 144.733 563.769 144.307 563.609 143.928C563.449 143.544 563.203 143.243 562.873 143.024C562.547 142.8 562.137 142.688 561.641 142.688C561.123 142.688 560.694 142.813 560.353 143.064C560.011 143.309 559.758 143.627 559.593 144.016C559.427 144.4 559.347 144.797 559.353 145.208ZM567.399 150V141.728H568.807V143.32C568.946 142.925 569.14 142.6 569.391 142.344C569.642 142.083 569.927 141.888 570.247 141.76C570.572 141.632 570.908 141.568 571.255 141.568C571.378 141.568 571.498 141.576 571.615 141.592C571.732 141.608 571.823 141.635 571.887 141.672V143.104C571.807 143.067 571.703 143.043 571.575 143.032C571.452 143.016 571.348 143.008 571.263 143.008C570.932 142.987 570.623 143.008 570.335 143.072C570.047 143.131 569.794 143.235 569.575 143.384C569.356 143.533 569.183 143.731 569.055 143.976C568.932 144.216 568.871 144.509 568.871 144.856V150H567.399Z" fill="#020617" fill-opacity="0.6"/>
<path d="M693.528 150V138.432H695.576L699.064 147.984L702.6 138.432H704.64V150H703.112V140.648L699.76 150H698.376L695.048 140.736V150H693.528ZM707.78 150V138.432H709.828L713.316 147.984L716.852 138.432H718.892V150H717.364V140.648L714.012 150H712.628L709.3 140.736V150H707.78ZM720.72 150.616L724.72 138.432H725.872L721.864 150.616H720.72ZM727.721 150V138.432C727.758 138.432 727.87 138.435 728.057 138.44C728.249 138.44 728.481 138.44 728.753 138.44C729.025 138.435 729.308 138.435 729.601 138.44C729.894 138.44 730.164 138.443 730.409 138.448C731.828 138.469 732.977 138.701 733.857 139.144C734.742 139.581 735.39 140.219 735.801 141.056C736.217 141.893 736.425 142.923 736.425 144.144C736.425 145.424 736.201 146.499 735.753 147.368C735.31 148.237 734.633 148.893 733.721 149.336C732.814 149.779 731.66 150 730.257 150H727.721ZM729.241 148.728H730.257C731.212 148.728 732.033 148.581 732.721 148.288C733.409 147.989 733.937 147.507 734.305 146.84C734.678 146.173 734.865 145.283 734.865 144.168C734.865 143.053 734.684 142.171 734.321 141.52C733.964 140.869 733.446 140.405 732.769 140.128C732.092 139.845 731.276 139.704 730.321 139.704H729.241V148.728ZM738.895 150V138.432C738.932 138.432 739.044 138.435 739.231 138.44C739.423 138.44 739.655 138.44 739.927 138.44C740.199 138.435 740.482 138.435 740.775 138.44C741.068 138.44 741.338 138.443 741.583 138.448C743.002 138.469 744.151 138.701 745.031 139.144C745.916 139.581 746.564 140.219 746.975 141.056C747.391 141.893 747.599 142.923 747.599 144.144C747.599 145.424 747.375 146.499 746.927 147.368C746.484 148.237 745.807 148.893 744.895 149.336C743.988 149.779 742.834 150 741.431 150H738.895ZM740.415 148.728H741.431C742.386 148.728 743.207 148.581 743.895 148.288C744.583 147.989 745.111 147.507 745.479 146.84C745.852 146.173 746.039 145.283 746.039 144.168C746.039 143.053 745.858 142.171 745.495 141.52C745.138 140.869 744.62 140.405 743.943 140.128C743.266 139.845 742.45 139.704 741.495 139.704H740.415V148.728Z" fill="#020617" fill-opacity="0.6"/>
<path d="M770.784 150.16C769.744 150.16 768.856 149.923 768.12 149.448C767.389 148.973 766.829 148.291 766.44 147.4C766.056 146.509 765.864 145.435 765.864 144.176C765.864 142.923 766.056 141.856 766.44 140.976C766.824 140.096 767.381 139.427 768.112 138.968C768.848 138.504 769.739 138.272 770.784 138.272C771.6 138.272 772.323 138.443 772.952 138.784C773.581 139.12 774.088 139.571 774.472 140.136C774.856 140.701 775.083 141.323 775.152 142H773.576C773.491 141.547 773.328 141.136 773.088 140.768C772.848 140.4 772.533 140.107 772.144 139.888C771.755 139.669 771.288 139.56 770.744 139.56C770.045 139.56 769.453 139.725 768.968 140.056C768.488 140.381 768.123 140.885 767.872 141.568C767.627 142.251 767.504 143.125 767.504 144.192C767.504 145.803 767.779 146.987 768.328 147.744C768.883 148.496 769.688 148.872 770.744 148.872C771.288 148.872 771.755 148.757 772.144 148.528C772.533 148.299 772.848 147.992 773.088 147.608C773.328 147.224 773.491 146.808 773.576 146.36H775.152C775.093 146.851 774.96 147.325 774.752 147.784C774.549 148.237 774.269 148.643 773.912 149C773.555 149.357 773.115 149.64 772.592 149.848C772.075 150.056 771.472 150.16 770.784 150.16ZM777.624 150V138.432H779.104V150H777.624ZM785.195 150L781.075 138.432H782.539L786.083 148.32L789.627 138.432H791.091L786.979 150H785.195Z" fill="#020617" fill-opacity="0.6"/>
</g>
<path d="M459.5 124C459.5 119.858 462.858 116.5 467 116.5H800C804.142 116.5 807.5 119.858 807.5 124V164C807.5 168.142 804.142 171.5 800 171.5H467C462.858 171.5 459.5 168.142 459.5 164V124Z" stroke="url(#paint4_linear_6126_218)"/>
</g>
</g>
<path d="M833.5 32V30.5H832H467C448.498 30.5 433.5 45.4984 433.5 64V892C433.5 910.502 448.498 925.5 467 925.5H800C818.502 925.5 833.5 910.502 833.5 892V32Z" stroke="url(#paint5_linear_6126_218)" stroke-opacity="0.35" stroke-width="3"/>
<path d="M459 324C397.074 324 307.879 324 280.975 324C276.557 324 273 320.448 273 316.03C273 293.505 273 230.281 273 219" stroke="url(#paint6_linear_6126_218)" stroke-dasharray="2 2"/>
<path d="M387.361 402.446C337.277 402.446 265.573 402.446 241.855 402.446C237.436 402.446 233.903 398.938 233.903 394.52C233.903 362.035 233.903 239.822 233.903 218.991" stroke="url(#paint7_linear_6126_218)" stroke-dasharray="2 2"/>
<path d="M0 294C65.9405 294 161.074 294 189.002 294C193.421 294 196.993 290.424 196.993 286.005C196.993 268.291 196.993 226.693 196.993 218.991" stroke="url(#paint8_linear_6126_218)" stroke-dasharray="2 2"/>
<path d="M459 234H320C315.582 234 312 230.418 312 226C312 223.627 312 221.261 312 219" stroke="url(#paint9_linear_6126_218)" stroke-dasharray="2 2"/>
<path d="M0 260H148.493C152.911 260 156.493 256.419 156.493 252.001C156.493 241.055 156.493 229.602 156.493 218.991" stroke="url(#paint10_linear_6126_218)" stroke-dasharray="2 2"/>
<path d="M459 143L401.376 143C396.957 143 393.376 146.582 393.376 151L393.376 183C393.376 187.418 389.794 191 385.376 191L333 191" stroke="url(#paint11_linear_6126_218)" stroke-dasharray="2 2"/>
<rect y="218.991" width="832" height="261.009" fill="url(#paint12_linear_6126_218)"/>
<g opacity="0.75" filter="url(#filter1_f_6126_218)">
<path d="M139.007 175C139.007 168.373 144.38 163 151.007 163H321.007C327.634 163 333.007 168.373 333.007 175V207C333.007 213.627 327.634 219 321.007 219H151.007C144.38 219 139.007 213.627 139.007 207V175Z" fill="white"/>
<path d="M151.007 160.5C142.999 160.5 136.507 166.992 136.507 175V207C136.507 215.008 142.999 221.5 151.007 221.5H321.007C329.015 221.5 335.507 215.008 335.507 207V175C335.507 166.992 329.015 160.5 321.007 160.5H151.007Z" stroke="url(#paint13_linear_6126_218)" stroke-width="5"/>
</g>
<g clip-path="url(#clip5_6126_218)">
<path d="M139.007 175C139.007 168.373 144.38 163 151.007 163H321.007C327.634 163 333.007 168.373 333.007 175V207C333.007 213.627 327.634 219 321.007 219H151.007C144.38 219 139.007 213.627 139.007 207V175Z" fill="white"/>
<g opacity="0.5" filter="url(#filter2_f_6126_218)">
<path d="M181 203C221.869 203 255 168.974 255 127C255 85.0264 221.869 51 181 51C140.131 51 107 85.0264 107 127C107 168.974 140.131 203 181 203Z" fill="#DFECEE"/>
</g>
<g clip-path="url(#clip6_6126_218)">
<path d="M179.007 179H155.007V203H179.007V179Z" fill="#4F868E"/>
<path d="M169.447 187.084C168.976 187.088 168.511 187.198 168.089 187.406C167.666 187.615 167.296 187.917 167.007 188.289C166.718 187.917 166.349 187.615 165.926 187.406C165.504 187.198 165.04 187.088 164.568 187.084C162.811 187.084 161.382 188.596 161.382 190.458V194.147C161.382 194.346 161.461 194.537 161.602 194.677C161.742 194.818 161.933 194.897 162.132 194.897C162.331 194.897 162.522 194.818 162.662 194.677C162.803 194.537 162.882 194.346 162.882 194.147V190.456C162.882 189.421 163.641 188.581 164.573 188.581C165.506 188.581 166.265 189.424 166.265 190.456V194.145C166.265 194.344 166.344 194.534 166.484 194.675C166.625 194.815 166.816 194.894 167.015 194.894C167.214 194.894 167.404 194.815 167.545 194.675C167.686 194.534 167.765 194.344 167.765 194.145V190.456C167.765 189.421 168.523 188.581 169.456 188.581C170.388 188.581 171.147 189.424 171.147 190.456V194.145C171.147 194.344 171.226 194.534 171.367 194.675C171.507 194.815 171.698 194.894 171.897 194.894C172.096 194.894 172.287 194.815 172.427 194.675C172.568 194.534 172.647 194.344 172.647 194.145V190.456C172.633 188.596 171.205 187.084 169.447 187.084Z" fill="white"/>
<path d="M167.007 181.616C164.522 181.619 162.139 182.608 160.381 184.364C158.624 186.121 157.635 188.504 157.632 190.988C157.635 193.473 158.624 195.855 160.381 197.612C162.139 199.369 164.522 200.357 167.007 200.36C169.493 200.358 171.876 199.369 173.633 197.612C175.391 195.855 176.379 193.473 176.382 190.988C176.379 188.504 175.39 186.121 173.633 184.364C171.875 182.608 169.493 181.619 167.007 181.616ZM167.007 199.985C164.621 199.983 162.333 199.034 160.646 197.347C158.959 195.661 158.01 193.374 158.007 190.988C158.01 188.603 158.959 186.316 160.646 184.629C162.333 182.942 164.621 181.994 167.007 181.991C169.393 181.994 171.681 182.942 173.368 184.629C175.055 186.316 176.004 188.603 176.007 190.988C176.004 193.374 175.055 195.661 173.368 197.347C171.681 199.034 169.393 199.983 167.007 199.985Z" fill="white"/>
</g>
<path d="M192.538 185.633L188.773 196H187.234L191.57 184.625H192.562L192.538 185.633ZM195.695 196L191.921 185.633L191.898 184.625H192.89L197.241 196H195.695ZM195.499 191.789V193.023H189.109V191.789H195.499ZM203.624 194.047V187.547H205.077V196H203.695L203.624 194.047ZM203.898 192.266L204.499 192.25C204.499 192.812 204.439 193.333 204.32 193.812C204.205 194.286 204.017 194.698 203.757 195.047C203.497 195.396 203.156 195.669 202.734 195.867C202.312 196.06 201.799 196.156 201.195 196.156C200.783 196.156 200.406 196.096 200.062 195.977C199.723 195.857 199.432 195.672 199.187 195.422C198.942 195.172 198.752 194.846 198.616 194.445C198.486 194.044 198.421 193.562 198.421 193V187.547H199.866V193.016C199.866 193.396 199.908 193.711 199.991 193.961C200.08 194.206 200.197 194.401 200.343 194.547C200.494 194.688 200.661 194.786 200.843 194.844C201.031 194.901 201.223 194.93 201.421 194.93C202.036 194.93 202.523 194.812 202.882 194.578C203.241 194.339 203.499 194.018 203.656 193.617C203.817 193.211 203.898 192.76 203.898 192.266ZM210.82 187.547V188.656H206.249V187.547H210.82ZM207.796 185.492H209.241V193.906C209.241 194.193 209.286 194.409 209.374 194.555C209.463 194.701 209.577 194.797 209.718 194.844C209.859 194.891 210.01 194.914 210.171 194.914C210.291 194.914 210.416 194.904 210.546 194.883C210.682 194.857 210.783 194.836 210.851 194.82L210.859 196C210.744 196.036 210.593 196.07 210.406 196.102C210.223 196.138 210.002 196.156 209.741 196.156C209.387 196.156 209.062 196.086 208.765 195.945C208.468 195.805 208.231 195.57 208.054 195.242C207.882 194.909 207.796 194.461 207.796 193.898V185.492ZM211.976 191.867V191.688C211.976 191.078 212.064 190.513 212.241 189.992C212.419 189.466 212.674 189.01 213.007 188.625C213.34 188.234 213.744 187.932 214.218 187.719C214.692 187.5 215.223 187.391 215.812 187.391C216.406 187.391 216.939 187.5 217.413 187.719C217.892 187.932 218.299 188.234 218.632 188.625C218.971 189.01 219.228 189.466 219.406 189.992C219.583 190.513 219.671 191.078 219.671 191.688V191.867C219.671 192.477 219.583 193.042 219.406 193.562C219.228 194.083 218.971 194.539 218.632 194.93C218.299 195.315 217.895 195.617 217.421 195.836C216.952 196.049 216.421 196.156 215.827 196.156C215.234 196.156 214.7 196.049 214.226 195.836C213.752 195.617 213.346 195.315 213.007 194.93C212.674 194.539 212.419 194.083 212.241 193.562C212.064 193.042 211.976 192.477 211.976 191.867ZM213.421 191.688V191.867C213.421 192.289 213.471 192.688 213.57 193.062C213.669 193.432 213.817 193.76 214.015 194.047C214.218 194.333 214.471 194.56 214.773 194.727C215.075 194.888 215.426 194.969 215.827 194.969C216.223 194.969 216.57 194.888 216.866 194.727C217.169 194.56 217.419 194.333 217.616 194.047C217.814 193.76 217.963 193.432 218.062 193.062C218.166 192.688 218.218 192.289 218.218 191.867V191.688C218.218 191.271 218.166 190.878 218.062 190.508C217.963 190.133 217.812 189.802 217.609 189.516C217.411 189.224 217.161 188.995 216.859 188.828C216.562 188.661 216.213 188.578 215.812 188.578C215.416 188.578 215.067 188.661 214.765 188.828C214.468 188.995 214.218 189.224 214.015 189.516C213.817 189.802 213.669 190.133 213.57 190.508C213.471 190.878 213.421 191.271 213.421 191.688ZM223.413 196H221.968V186.812C221.968 186.172 222.093 185.63 222.343 185.188C222.593 184.745 222.95 184.409 223.413 184.18C223.877 183.951 224.426 183.836 225.062 183.836C225.437 183.836 225.804 183.883 226.163 183.977C226.523 184.065 226.892 184.177 227.273 184.312L227.031 185.531C226.791 185.438 226.512 185.349 226.195 185.266C225.882 185.177 225.538 185.133 225.163 185.133C224.544 185.133 224.096 185.273 223.82 185.555C223.549 185.831 223.413 186.25 223.413 186.812V196ZM225.14 187.547V188.656H220.632V187.547H225.14ZM227.984 187.547V196H226.538V187.547H227.984ZM231.929 184V196H230.476V184H231.929ZM235.82 184V196H234.366V184H235.82ZM244.249 194.5L246.421 187.547H247.374L247.187 188.93L244.976 196H244.046L244.249 194.5ZM242.788 187.547L244.64 194.578L244.773 196H243.796L241.343 187.547H242.788ZM249.452 194.523L251.218 187.547H252.656L250.202 196H249.234L249.452 194.523ZM247.585 187.547L249.71 194.383L249.952 196H249.031L246.757 188.914L246.57 187.547H247.585ZM255.71 187.547V196H254.257V187.547H255.71ZM254.148 185.305C254.148 185.07 254.218 184.872 254.359 184.711C254.504 184.549 254.718 184.469 254.999 184.469C255.275 184.469 255.486 184.549 255.632 184.711C255.783 184.872 255.859 185.07 255.859 185.305C255.859 185.529 255.783 185.721 255.632 185.883C255.486 186.039 255.275 186.117 254.999 186.117C254.718 186.117 254.504 186.039 254.359 185.883C254.218 185.721 254.148 185.529 254.148 185.305ZM261.57 187.547V188.656H256.999V187.547H261.57ZM258.546 185.492H259.991V193.906C259.991 194.193 260.036 194.409 260.124 194.555C260.213 194.701 260.327 194.797 260.468 194.844C260.609 194.891 260.76 194.914 260.921 194.914C261.041 194.914 261.166 194.904 261.296 194.883C261.432 194.857 261.533 194.836 261.601 194.82L261.609 196C261.494 196.036 261.343 196.07 261.156 196.102C260.973 196.138 260.752 196.156 260.491 196.156C260.137 196.156 259.812 196.086 259.515 195.945C259.218 195.805 258.981 195.57 258.804 195.242C258.632 194.909 258.546 194.461 258.546 193.898V185.492ZM264.71 184V196H263.265V184H264.71ZM264.366 191.453L263.765 191.43C263.77 190.852 263.856 190.318 264.023 189.828C264.189 189.333 264.424 188.904 264.726 188.539C265.028 188.174 265.387 187.893 265.804 187.695C266.226 187.492 266.692 187.391 267.202 187.391C267.619 187.391 267.994 187.448 268.327 187.562C268.661 187.672 268.945 187.849 269.179 188.094C269.419 188.339 269.601 188.656 269.726 189.047C269.851 189.432 269.913 189.904 269.913 190.461V196H268.46V190.445C268.46 190.003 268.395 189.648 268.265 189.383C268.135 189.112 267.945 188.917 267.695 188.797C267.445 188.672 267.137 188.609 266.773 188.609C266.413 188.609 266.085 188.685 265.788 188.836C265.497 188.987 265.244 189.195 265.031 189.461C264.822 189.727 264.658 190.031 264.538 190.375C264.424 190.714 264.366 191.073 264.366 191.453ZM276.741 184.625H278.202L281.929 193.898L285.648 184.625H287.116L282.491 196H281.351L276.741 184.625ZM276.265 184.625H277.554L277.765 191.562V196H276.265V184.625ZM286.296 184.625H287.585V196H286.085V191.562L286.296 184.625ZM293.523 196.156C292.934 196.156 292.4 196.057 291.921 195.859C291.447 195.656 291.038 195.372 290.695 195.008C290.356 194.643 290.096 194.211 289.913 193.711C289.731 193.211 289.64 192.664 289.64 192.07V191.742C289.64 191.055 289.741 190.443 289.945 189.906C290.148 189.365 290.424 188.906 290.773 188.531C291.122 188.156 291.517 187.872 291.96 187.68C292.403 187.487 292.861 187.391 293.335 187.391C293.939 187.391 294.46 187.495 294.898 187.703C295.34 187.911 295.702 188.203 295.984 188.578C296.265 188.948 296.473 189.385 296.609 189.891C296.744 190.391 296.812 190.938 296.812 191.531V192.18H290.499V191H295.366V190.891C295.346 190.516 295.267 190.151 295.132 189.797C295.002 189.443 294.794 189.151 294.507 188.922C294.221 188.693 293.83 188.578 293.335 188.578C293.007 188.578 292.705 188.648 292.429 188.789C292.153 188.924 291.916 189.128 291.718 189.398C291.52 189.669 291.366 190 291.257 190.391C291.148 190.781 291.093 191.232 291.093 191.742V192.07C291.093 192.471 291.148 192.849 291.257 193.203C291.372 193.552 291.536 193.859 291.749 194.125C291.968 194.391 292.231 194.599 292.538 194.75C292.851 194.901 293.205 194.977 293.601 194.977C294.111 194.977 294.544 194.872 294.898 194.664C295.252 194.456 295.562 194.177 295.827 193.828L296.702 194.523C296.52 194.799 296.288 195.062 296.007 195.312C295.726 195.562 295.379 195.766 294.968 195.922C294.562 196.078 294.08 196.156 293.523 196.156ZM302.007 196.156C301.419 196.156 300.885 196.057 300.406 195.859C299.932 195.656 299.523 195.372 299.179 195.008C298.84 194.643 298.58 194.211 298.398 193.711C298.215 193.211 298.124 192.664 298.124 192.07V191.742C298.124 191.055 298.226 190.443 298.429 189.906C298.632 189.365 298.908 188.906 299.257 188.531C299.606 188.156 300.002 187.872 300.445 187.68C300.887 187.487 301.346 187.391 301.82 187.391C302.424 187.391 302.945 187.495 303.382 187.703C303.825 187.911 304.187 188.203 304.468 188.578C304.749 188.948 304.958 189.385 305.093 189.891C305.228 190.391 305.296 190.938 305.296 191.531V192.18H298.984V191H303.851V190.891C303.83 190.516 303.752 190.151 303.616 189.797C303.486 189.443 303.278 189.151 302.991 188.922C302.705 188.693 302.314 188.578 301.82 188.578C301.491 188.578 301.189 188.648 300.913 188.789C300.637 188.924 300.4 189.128 300.202 189.398C300.004 189.669 299.851 190 299.741 190.391C299.632 190.781 299.577 191.232 299.577 191.742V192.07C299.577 192.471 299.632 192.849 299.741 193.203C299.856 193.552 300.02 193.859 300.234 194.125C300.452 194.391 300.715 194.599 301.023 194.75C301.335 194.901 301.689 194.977 302.085 194.977C302.596 194.977 303.028 194.872 303.382 194.664C303.736 194.456 304.046 194.177 304.312 193.828L305.187 194.523C305.004 194.799 304.773 195.062 304.491 195.312C304.21 195.562 303.864 195.766 303.452 195.922C303.046 196.078 302.564 196.156 302.007 196.156Z" fill="#1E293B"/>
</g>
<path d="M151.007 162.5C144.104 162.5 138.507 168.096 138.507 175V207C138.507 213.904 144.104 219.5 151.007 219.5H321.007C327.911 219.5 333.507 213.904 333.507 207V175C333.507 168.096 327.911 162.5 321.007 162.5H151.007Z" stroke="url(#paint14_linear_6126_218)"/>
<circle cx="157" cy="90" r="1" transform="rotate(90 157 90)" fill="#020617" fill-opacity="0.15"/>
<circle cx="130.007" cy="56.4902" r="1" transform="rotate(90 130.007 56.4902)" fill="#020617" fill-opacity="0.15"/>
<circle cx="130.007" cy="90" r="1" transform="rotate(90 130.007 90)" fill="#020617" fill-opacity="0.15"/>
<circle cx="130.007" cy="74" r="1" transform="rotate(90 130.007 74)" fill="#BC52AD"/>
<circle cx="130.007" cy="109" r="1" transform="rotate(90 130.007 109)" fill="#F9DF89"/>
<circle cx="91" cy="128" r="1" transform="rotate(90 91 128)" fill="#020617" fill-opacity="0.15"/>
<circle cx="115.007" cy="168.491" r="1" transform="rotate(90 115.007 168.491)" fill="#020617" fill-opacity="0.35"/>
<circle cx="130.007" cy="182.491" r="1" transform="rotate(90 130.007 182.491)" fill="#020617" fill-opacity="0.15"/>
<circle cx="115.007" cy="195.491" r="1" transform="rotate(90 115.007 195.491)" fill="#4F868E"/>
<circle cx="146.007" cy="109" r="1" transform="rotate(90 146.007 109)" fill="#020617" fill-opacity="0.15"/>
<circle cx="115.007" cy="109" r="1" transform="rotate(90 115.007 109)" fill="#020617" fill-opacity="0.15"/>
<circle cx="115.007" cy="148" r="1" transform="rotate(90 115.007 148)" fill="#020617" fill-opacity="0.15"/>
<circle cx="102" cy="128" r="1" transform="rotate(90 102 128)" fill="#020617" fill-opacity="0.15"/>
<circle cx="247.5" cy="148" r="1" transform="rotate(180 247.5 148)" fill="#020617" fill-opacity="0.15"/>
<circle cx="168.007" cy="90" r="1" transform="rotate(180 168.007 90)" fill="#020617" fill-opacity="0.15"/>
<circle cx="274" cy="148" r="1" transform="rotate(180 274 148)" fill="#020617" fill-opacity="0.15"/>
<circle cx="293" cy="148" r="1" transform="rotate(180 293 148)" fill="#4F868E"/>
<circle cx="146.007" cy="74" r="1" transform="rotate(180 146.007 74)" fill="#4F868E"/>
<circle cx="233.5" cy="148" r="1" transform="rotate(180 233.5 148)" fill="#020617" fill-opacity="0.35"/>
<circle cx="262" cy="139" r="1" transform="rotate(180 262 139)" fill="#4F868E"/>
<circle cx="221.5" cy="128" r="1" transform="rotate(180 221.5 128)" fill="#020617" fill-opacity="0.35"/>
<circle cx="253" cy="128" r="1" transform="rotate(180 253 128)" fill="#020617" fill-opacity="0.15"/>
<circle cx="239.5" cy="109" r="1" transform="rotate(180 239.5 109)" fill="#F4B62B"/>
<circle cx="229.5" cy="121" r="1" transform="rotate(180 229.5 121)" fill="#020617" fill-opacity="0.15"/>
<circle cx="208" cy="109" r="1" transform="rotate(180 208 109)" fill="#020617" fill-opacity="0.15"/>
<circle cx="181.5" cy="121" r="1" transform="rotate(180 181.5 121)" fill="#020617" fill-opacity="0.15"/>
<circle cx="168.007" cy="139" r="1" transform="rotate(180 168.007 139)" fill="#020617" fill-opacity="0.35"/>
<circle cx="181.5" cy="148" r="1" transform="rotate(180 181.5 148)" fill="#020617" fill-opacity="0.15"/>
<circle cx="181.5" cy="109" r="1" transform="rotate(180 181.5 109)" fill="#020617" fill-opacity="0.15"/>
<circle cx="146.007" cy="148" r="1" transform="rotate(180 146.007 148)" fill="#F4B62B"/>
<circle cx="273" cy="128" r="1" transform="rotate(180 273 128)" fill="#020617" fill-opacity="0.15"/>
<circle cx="208" cy="128" r="1" transform="rotate(180 208 128)" fill="#020617" fill-opacity="0.15"/>
<circle cx="192.5" cy="139" r="1" transform="rotate(180 192.5 139)" fill="#020617" fill-opacity="0.15"/>
<circle cx="208.5" cy="139" r="1" transform="rotate(180 208.5 139)" fill="#BC52AD"/>
<circle cx="146.007" cy="128" r="1" transform="rotate(180 146.007 128)" fill="#BC52AD"/>
</g>
<defs>
<filter id="filter0_d_6126_218" x="456" y="113" width="355" height="62" filterUnits="userSpaceOnUse" color-interpolation-filters="sRGB">
<feFlood flood-opacity="0" result="BackgroundImageFix"/>
<feColorMatrix in="SourceAlpha" type="matrix" values="0 0 0 0 0 0 0 0 0 0 0 0 0 0 0 0 0 0 127 0" result="hardAlpha"/>
<feMorphology radius="3" operator="dilate" in="SourceAlpha" result="effect1_dropShadow_6126_218"/>
<feOffset/>
<feComposite in2="hardAlpha" operator="out"/>
<feColorMatrix type="matrix" values="0 0 0 0 0.309804 0 0 0 0 0.52549 0 0 0 0 0.556863 0 0 0 0.4 0"/>
<feBlend mode="normal" in2="BackgroundImageFix" result="effect1_dropShadow_6126_218"/>
<feBlend mode="normal" in="SourceGraphic" in2="effect1_dropShadow_6126_218" result="shape"/>
</filter>
<filter id="filter1_f_6126_218" x="104.007" y="128" width="264" height="126" filterUnits="userSpaceOnUse" color-interpolation-filters="sRGB">
<feFlood flood-opacity="0" result="BackgroundImageFix"/>
<feBlend mode="normal" in="SourceGraphic" in2="BackgroundImageFix" result="shape"/>
<feGaussianBlur stdDeviation="15" result="effect1_foregroundBlur_6126_218"/>
</filter>
<filter id="filter2_f_6126_218" x="57" y="1" width="248" height="252" filterUnits="userSpaceOnUse" color-interpolation-filters="sRGB">
<feFlood flood-opacity="0" result="BackgroundImageFix"/>
<feBlend mode="normal" in="SourceGraphic" in2="BackgroundImageFix" result="shape"/>
<feGaussianBlur stdDeviation="25" result="effect1_foregroundBlur_6126_218"/>
</filter>
<linearGradient id="paint0_linear_6126_218" x1="779" y1="32" x2="565" y2="433" gradientUnits="userSpaceOnUse">
<stop stop-color="#F1F5F9"/>
<stop offset="1" stop-color="white"/>
</linearGradient>
<linearGradient id="paint1_linear_6126_218" x1="459" y1="328" x2="808" y2="328" gradientUnits="userSpaceOnUse">
<stop stop-color="white"/>
<stop offset="1" stop-color="#F8FAFC"/>
</linearGradient>
<linearGradient id="paint2_linear_6126_218" x1="459" y1="236" x2="808" y2="236" gradientUnits="userSpaceOnUse">
<stop stop-color="white"/>
<stop offset="1" stop-color="#F8FAFC"/>
</linearGradient>
<linearGradient id="paint3_linear_6126_218" x1="459" y1="144" x2="808" y2="144" gradientUnits="userSpaceOnUse">
<stop stop-color="white"/>
<stop offset="1" stop-color="#F3F8F8"/>
</linearGradient>
<linearGradient id="paint4_linear_6126_218" x1="459" y1="116" x2="799.182" y2="205.513" gradientUnits="userSpaceOnUse">
<stop stop-color="#3B5B63"/>
<stop offset="1" stop-color="#4F868E"/>
</linearGradient>
<linearGradient id="paint5_linear_6126_218" x1="725" y1="32" x2="514" y2="320" gradientUnits="userSpaceOnUse">
<stop stop-color="#64748B"/>
<stop offset="1" stop-color="#F1F5F9"/>
</linearGradient>
<linearGradient id="paint6_linear_6126_218" x1="459" y1="324" x2="458.865" y2="279.915" gradientUnits="userSpaceOnUse">
<stop offset="0.17" stop-color="#4F868E"/>
<stop offset="1" stop-color="#86AD6E"/>
</linearGradient>
<linearGradient id="paint7_linear_6126_218" x1="387.361" y1="402.446" x2="386.863" y2="325.424" gradientUnits="userSpaceOnUse">
<stop offset="0.17" stop-color="#4F868E"/>
<stop offset="1" stop-color="#F26E1D"/>
</linearGradient>
<linearGradient id="paint8_linear_6126_218" x1="-30.3252" y1="256.495" x2="-19.247" y2="220.433" gradientUnits="userSpaceOnUse">
<stop offset="0.17" stop-color="white"/>
<stop offset="1" stop-color="#BC52AD"/>
</linearGradient>
<linearGradient id="paint9_linear_6126_218" x1="442.344" y1="228.823" x2="440.689" y2="218.955" gradientUnits="userSpaceOnUse">
<stop offset="0.17" stop-color="#4F868E"/>
<stop offset="1" stop-color="#BC52AD"/>
</linearGradient>
<linearGradient id="paint10_linear_6126_218" x1="17.7317" y1="245.848" x2="27.8077" y2="222.448" gradientUnits="userSpaceOnUse">
<stop offset="0.17" stop-color="white"/>
<stop offset="1" stop-color="#F4B62B"/>
</linearGradient>
<linearGradient id="paint11_linear_6126_218" x1="459" y1="142.998" x2="444.007" y2="176.35" gradientUnits="userSpaceOnUse">
<stop offset="0.17" stop-color="#4F868E"/>
<stop offset="1" stop-color="#F4B62B"/>
</linearGradient>
<linearGradient id="paint12_linear_6126_218" x1="416" y1="268.771" x2="416" y2="346.132" gradientUnits="userSpaceOnUse">
<stop stop-color="white" stop-opacity="0"/>
<stop offset="1" stop-color="white"/>
</linearGradient>
<linearGradient id="paint13_linear_6126_218" x1="139.203" y1="163" x2="331.235" y2="223.965" gradientUnits="userSpaceOnUse">
<stop stop-color="#F4B62B"/>
<stop offset="0.5" stop-color="#BC52AD"/>
<stop offset="1" stop-color="#4F868E"/>
</linearGradient>
<linearGradient id="paint14_linear_6126_218" x1="139.203" y1="163" x2="331.235" y2="223.965" gradientUnits="userSpaceOnUse">
<stop stop-color="#F4B62B"/>
<stop offset="0.5" stop-color="#BC52AD"/>
<stop offset="1" stop-color="#4F868E"/>
</linearGradient>
<clipPath id="clip0_6126_218">
<rect width="832" height="480" fill="white"/>
</clipPath>
<clipPath id="clip1_6126_218">
<path d="M435 64C435 46.3269 449.327 32 467 32H832V892C832 909.673 817.673 924 800 924H467C449.327 924 435 909.673 435 892V64Z" fill="white"/>
</clipPath>
<clipPath id="clip2_6126_218">
<path d="M459 308C459 303.582 462.582 300 467 300H800C804.418 300 808 303.582 808 308V348C808 352.418 804.418 356 800 356H467C462.582 356 459 352.418 459 348V308Z" fill="white"/>
</clipPath>
<clipPath id="clip3_6126_218">
<path d="M459 216C459 211.582 462.582 208 467 208H800C804.418 208 808 211.582 808 216V256C808 260.418 804.418 264 800 264H467C462.582 264 459 260.418 459 256V216Z" fill="white"/>
</clipPath>
<clipPath id="clip4_6126_218">
<path d="M459 124C459 119.582 462.582 116 467 116H800C804.418 116 808 119.582 808 124V164C808 168.418 804.418 172 800 172H467C462.582 172 459 168.418 459 164V124Z" fill="white"/>
</clipPath>
<clipPath id="clip5_6126_218">
<path d="M139.007 175C139.007 168.373 144.38 163 151.007 163H321.007C327.634 163 333.007 168.373 333.007 175V207C333.007 213.627 327.634 219 321.007 219H151.007C144.38 219 139.007 213.627 139.007 207V175Z" fill="white"/>
</clipPath>
<clipPath id="clip6_6126_218">
<rect x="155.007" y="179" width="24" height="24" rx="3" fill="white"/>
</clipPath>
</defs>
</svg>
