<svg width="405" height="305" viewBox="0 0 405 305" fill="none" xmlns="http://www.w3.org/2000/svg">
<g filter="url(#filter0_d_6214_585)">
<g clip-path="url(#clip0_6214_585)">
<g opacity="0.75" filter="url(#filter1_f_6214_585)">
<path d="M81 112C81 105.373 86.3726 100 93 100H359C365.627 100 371 105.373 371 112V168C371 174.627 365.627 180 359 180H93C86.3726 180 81 174.627 81 168V112Z" fill="white"/>
<path d="M93 97.5C84.9919 97.5 78.5 103.992 78.5 112V168C78.5 176.008 84.9919 182.5 93 182.5H359C367.008 182.5 373.5 176.008 373.5 168V112C373.5 103.992 367.008 97.5 359 97.5H93Z" stroke="url(#paint0_linear_6214_585)" stroke-width="5"/>
</g>
<g clip-path="url(#clip1_6214_585)">
<g clip-path="url(#clip2_6214_585)">
<path fill-rule="evenodd" clip-rule="evenodd" d="M76.2299 66.5768H67.6279L71.386 62.8188C71.6863 62.5185 71.6863 62.0256 71.386 61.7253C71.0857 61.4249 70.6005 61.4249 70.3002 61.7253L65.2253 66.8002C64.9249 67.1005 64.9249 67.5857 65.2253 67.886L70.3002 72.9609C70.6005 73.2613 71.0857 73.2613 71.386 72.9609C71.6863 72.6606 71.6863 72.1754 71.386 71.8751L67.6279 68.117H76.2299C76.6535 68.117 77 67.7705 77 67.3469C77 66.9234 76.6535 66.5768 76.2299 66.5768Z" fill="#020617" fill-opacity="0.15"/>
<path fill-rule="evenodd" clip-rule="evenodd" d="M96.7701 68.117H105.372L101.614 71.8751C101.314 72.1754 101.314 72.6683 101.614 72.9686C101.914 73.269 102.399 73.269 102.7 72.9686L107.775 67.8937C108.075 67.5934 108.075 67.1082 107.775 66.8079L102.708 61.7253C102.407 61.4249 101.922 61.4249 101.622 61.7253C101.321 62.0256 101.321 62.5107 101.622 62.8111L105.372 66.5768H96.7701C96.3465 66.5768 96 66.9234 96 67.3469C96 67.7705 96.3465 68.117 96.7701 68.117Z" fill="#020617" fill-opacity="0.15"/>
<path fill-rule="evenodd" clip-rule="evenodd" d="M138.998 65.8312V62.3045C138.998 62.0045 138.638 61.8579 138.431 62.0712L137.245 63.2579C136.038 62.0512 134.318 61.3579 132.438 61.5245C129.645 61.7779 127.345 64.0245 127.038 66.8179C126.638 70.4312 129.458 73.4979 132.998 73.4979C136.058 73.4979 138.585 71.2046 138.951 68.2446C138.998 67.8446 138.685 67.4979 138.285 67.4979C137.951 67.4979 137.671 67.7446 137.631 68.0712C137.345 70.3979 135.338 72.1979 132.931 72.1645C130.458 72.1312 128.371 70.0445 128.331 67.5645C128.291 64.9646 130.405 62.8312 132.998 62.8312C134.285 62.8312 135.451 63.3579 136.298 64.1979L134.905 65.5912C134.691 65.8045 134.838 66.1645 135.138 66.1645H138.665C138.851 66.1645 138.998 66.0179 138.998 65.8312Z" fill="#020617" fill-opacity="0.15"/>
</g>
<rect x="153" y="53.5" width="182" height="28" rx="14" fill="#020617" fill-opacity="0.05"/>
<rect x="153" y="53.5" width="182" height="28" rx="14" stroke="#020617" stroke-opacity="0.07"/>
<path fill-rule="evenodd" clip-rule="evenodd" d="M174 65.5H173.5V64.5C173.5 63.12 172.38 62 171 62C169.62 62 168.5 63.12 168.5 64.5V65.5H168C167.45 65.5 167 65.95 167 66.5V71.5C167 72.05 167.45 72.5 168 72.5H174C174.55 72.5 175 72.05 175 71.5V66.5C175 65.95 174.55 65.5 174 65.5ZM169.5 65.5V64.5C169.5 63.67 170.17 63 171 63C171.83 63 172.5 63.67 172.5 64.5V65.5H169.5Z" fill="#020617" fill-opacity="0.15"/>
<path d="M187.222 66.5732V72.5H185.95V65.1035H187.153L187.222 66.5732ZM186.962 68.5215L186.374 68.501C186.379 67.9951 186.445 67.528 186.572 67.0996C186.7 66.6667 186.889 66.2907 187.14 65.9717C187.39 65.6527 187.702 65.4066 188.076 65.2334C188.45 65.0557 188.883 64.9668 189.375 64.9668C189.721 64.9668 190.04 65.0169 190.332 65.1172C190.624 65.2129 190.877 65.3656 191.091 65.5752C191.305 65.7848 191.471 66.0537 191.59 66.3818C191.708 66.71 191.768 67.1064 191.768 67.5713V72.5H190.503V67.6328C190.503 67.2454 190.437 66.9355 190.305 66.7031C190.177 66.4707 189.995 66.3021 189.758 66.1973C189.521 66.0879 189.243 66.0332 188.924 66.0332C188.55 66.0332 188.238 66.0993 187.987 66.2314C187.737 66.3636 187.536 66.5459 187.386 66.7783C187.235 67.0107 187.126 67.2773 187.058 67.5781C186.994 67.8743 186.962 68.1888 186.962 68.5215ZM191.754 67.8242L190.906 68.084C190.911 67.6784 190.977 67.2887 191.104 66.915C191.237 66.5413 191.426 66.2087 191.672 65.917C191.923 65.6253 192.23 65.3952 192.595 65.2266C192.959 65.0534 193.376 64.9668 193.846 64.9668C194.242 64.9668 194.593 65.0192 194.898 65.124C195.208 65.2288 195.468 65.3906 195.678 65.6094C195.892 65.8236 196.054 66.0993 196.163 66.4365C196.272 66.7738 196.327 67.1748 196.327 67.6396V72.5H195.056V67.626C195.056 67.2113 194.99 66.89 194.857 66.6621C194.73 66.4297 194.548 66.2679 194.311 66.1768C194.078 66.0811 193.8 66.0332 193.477 66.0332C193.199 66.0332 192.952 66.0811 192.738 66.1768C192.524 66.2725 192.344 66.4046 192.198 66.5732C192.052 66.7373 191.941 66.9264 191.863 67.1406C191.79 67.3548 191.754 67.5827 191.754 67.8242ZM201.561 72.6367C201.046 72.6367 200.578 72.5501 200.159 72.377C199.744 72.1992 199.387 71.9508 199.086 71.6318C198.79 71.3128 198.562 70.9346 198.402 70.4971C198.243 70.0596 198.163 69.5811 198.163 69.0615V68.7744C198.163 68.1729 198.252 67.6374 198.43 67.168C198.607 66.694 198.849 66.293 199.154 65.9648C199.46 65.6367 199.806 65.3883 200.193 65.2197C200.581 65.0511 200.982 64.9668 201.396 64.9668C201.925 64.9668 202.381 65.0579 202.764 65.2402C203.151 65.4225 203.468 65.6777 203.714 66.0059C203.96 66.3294 204.142 66.7122 204.261 67.1543C204.379 67.5918 204.438 68.0703 204.438 68.5898V69.1572H198.915V68.125H203.174V68.0293C203.156 67.7012 203.087 67.3822 202.969 67.0723C202.855 66.7624 202.673 66.5072 202.422 66.3066C202.171 66.1061 201.829 66.0059 201.396 66.0059C201.109 66.0059 200.845 66.0674 200.604 66.1904C200.362 66.3089 200.155 66.4867 199.981 66.7236C199.808 66.9606 199.674 67.25 199.578 67.5918C199.482 67.9336 199.435 68.3278 199.435 68.7744V69.0615C199.435 69.4124 199.482 69.7428 199.578 70.0527C199.678 70.3581 199.822 70.627 200.009 70.8594C200.2 71.0918 200.43 71.2741 200.699 71.4062C200.973 71.5384 201.283 71.6045 201.629 71.6045C202.076 71.6045 202.454 71.5133 202.764 71.3311C203.074 71.1488 203.345 70.9049 203.577 70.5996L204.343 71.208C204.183 71.4495 203.98 71.6797 203.734 71.8984C203.488 72.1172 203.185 72.2949 202.825 72.4316C202.47 72.5684 202.048 72.6367 201.561 72.6367ZM209.234 72.6367C208.719 72.6367 208.252 72.5501 207.833 72.377C207.418 72.1992 207.061 71.9508 206.76 71.6318C206.464 71.3128 206.236 70.9346 206.076 70.4971C205.917 70.0596 205.837 69.5811 205.837 69.0615V68.7744C205.837 68.1729 205.926 67.6374 206.104 67.168C206.281 66.694 206.523 66.293 206.828 65.9648C207.133 65.6367 207.48 65.3883 207.867 65.2197C208.255 65.0511 208.656 64.9668 209.07 64.9668C209.599 64.9668 210.055 65.0579 210.438 65.2402C210.825 65.4225 211.142 65.6777 211.388 66.0059C211.634 66.3294 211.816 66.7122 211.935 67.1543C212.053 67.5918 212.112 68.0703 212.112 68.5898V69.1572H206.589V68.125H210.848V68.0293C210.829 67.7012 210.761 67.3822 210.643 67.0723C210.529 66.7624 210.346 66.5072 210.096 66.3066C209.845 66.1061 209.503 66.0059 209.07 66.0059C208.783 66.0059 208.519 66.0674 208.277 66.1904C208.036 66.3089 207.828 66.4867 207.655 66.7236C207.482 66.9606 207.348 67.25 207.252 67.5918C207.156 67.9336 207.108 68.3278 207.108 68.7744V69.0615C207.108 69.4124 207.156 69.7428 207.252 70.0527C207.352 70.3581 207.496 70.627 207.683 70.8594C207.874 71.0918 208.104 71.2741 208.373 71.4062C208.646 71.5384 208.956 71.6045 209.303 71.6045C209.749 71.6045 210.128 71.5133 210.438 71.3311C210.747 71.1488 211.019 70.9049 211.251 70.5996L212.017 71.208C211.857 71.4495 211.654 71.6797 211.408 71.8984C211.162 72.1172 210.859 72.2949 210.499 72.4316C210.144 72.5684 209.722 72.6367 209.234 72.6367ZM214.693 65.1035L216.313 67.7969L217.954 65.1035H219.438L217.018 68.7539L219.513 72.5H218.05L216.341 69.7246L214.632 72.5H213.162L215.65 68.7539L213.237 65.1035H214.693ZM224.131 65.1035V66.0742H220.132V65.1035H224.131ZM221.485 63.3057H222.75V70.668C222.75 70.9186 222.789 71.1077 222.866 71.2354C222.944 71.363 223.044 71.4473 223.167 71.4883C223.29 71.5293 223.422 71.5498 223.563 71.5498C223.668 71.5498 223.778 71.5407 223.892 71.5225C224.01 71.4997 224.099 71.4814 224.158 71.4678L224.165 72.5C224.065 72.5319 223.933 72.5615 223.769 72.5889C223.609 72.6208 223.415 72.6367 223.188 72.6367C222.878 72.6367 222.593 72.5752 222.333 72.4521C222.073 72.3291 221.866 72.124 221.711 71.8369C221.561 71.5452 221.485 71.1533 221.485 70.6611V63.3057ZM228.934 72.6367C228.419 72.6367 227.951 72.5501 227.532 72.377C227.118 72.1992 226.76 71.9508 226.459 71.6318C226.163 71.3128 225.935 70.9346 225.775 70.4971C225.616 70.0596 225.536 69.5811 225.536 69.0615V68.7744C225.536 68.1729 225.625 67.6374 225.803 67.168C225.98 66.694 226.222 66.293 226.527 65.9648C226.833 65.6367 227.179 65.3883 227.566 65.2197C227.954 65.0511 228.355 64.9668 228.77 64.9668C229.298 64.9668 229.754 65.0579 230.137 65.2402C230.524 65.4225 230.841 65.6777 231.087 66.0059C231.333 66.3294 231.515 66.7122 231.634 67.1543C231.752 67.5918 231.812 68.0703 231.812 68.5898V69.1572H226.288V68.125H230.547V68.0293C230.529 67.7012 230.46 67.3822 230.342 67.0723C230.228 66.7624 230.046 66.5072 229.795 66.3066C229.544 66.1061 229.202 66.0059 228.77 66.0059C228.482 66.0059 228.218 66.0674 227.977 66.1904C227.735 66.3089 227.528 66.4867 227.354 66.7236C227.181 66.9606 227.047 67.25 226.951 67.5918C226.855 67.9336 226.808 68.3278 226.808 68.7744V69.0615C226.808 69.4124 226.855 69.7428 226.951 70.0527C227.051 70.3581 227.195 70.627 227.382 70.8594C227.573 71.0918 227.803 71.2741 228.072 71.4062C228.346 71.5384 228.656 71.6045 229.002 71.6045C229.449 71.6045 229.827 71.5133 230.137 71.3311C230.447 71.1488 230.718 70.9049 230.95 70.5996L231.716 71.208C231.556 71.4495 231.354 71.6797 231.107 71.8984C230.861 72.1172 230.558 72.2949 230.198 72.4316C229.843 72.5684 229.421 72.6367 228.934 72.6367ZM234.803 66.6826V72.5H233.538V65.1035H234.734L234.803 66.6826ZM234.502 68.5215L233.976 68.501C233.98 67.9951 234.055 67.528 234.201 67.0996C234.347 66.6667 234.552 66.2907 234.816 65.9717C235.081 65.6527 235.395 65.4066 235.76 65.2334C236.129 65.0557 236.537 64.9668 236.983 64.9668C237.348 64.9668 237.676 65.0169 237.968 65.1172C238.259 65.2129 238.508 65.3678 238.713 65.582C238.923 65.7962 239.082 66.0742 239.191 66.416C239.301 66.7533 239.355 67.1657 239.355 67.6533V72.5H238.084V67.6396C238.084 67.2523 238.027 66.9424 237.913 66.71C237.799 66.473 237.633 66.3021 237.414 66.1973C237.195 66.0879 236.926 66.0332 236.607 66.0332C236.293 66.0332 236.006 66.0993 235.746 66.2314C235.491 66.3636 235.27 66.5459 235.083 66.7783C234.901 67.0107 234.757 67.2773 234.652 67.5781C234.552 67.8743 234.502 68.1888 234.502 68.5215ZM245.833 70.5381C245.833 70.3558 245.792 70.1872 245.71 70.0322C245.632 69.8727 245.471 69.7292 245.225 69.6016C244.983 69.4694 244.618 69.3555 244.131 69.2598C243.721 69.1732 243.349 69.0706 243.017 68.9521C242.688 68.8337 242.408 68.6901 242.176 68.5215C241.948 68.3529 241.772 68.1546 241.649 67.9268C241.526 67.6989 241.465 67.4323 241.465 67.127C241.465 66.8353 241.529 66.5596 241.656 66.2998C241.788 66.04 241.973 65.8099 242.21 65.6094C242.451 65.4089 242.741 65.2516 243.078 65.1377C243.415 65.0238 243.791 64.9668 244.206 64.9668C244.799 64.9668 245.304 65.0716 245.724 65.2812C246.143 65.4909 246.464 65.7712 246.688 66.1221C246.911 66.4684 247.022 66.8535 247.022 67.2773H245.758C245.758 67.0723 245.696 66.874 245.573 66.6826C245.455 66.4867 245.279 66.3249 245.047 66.1973C244.819 66.0697 244.539 66.0059 244.206 66.0059C243.855 66.0059 243.57 66.0605 243.352 66.1699C243.137 66.2747 242.98 66.4092 242.88 66.5732C242.784 66.7373 242.736 66.9105 242.736 67.0928C242.736 67.2295 242.759 67.3525 242.805 67.4619C242.855 67.5667 242.941 67.6647 243.064 67.7559C243.188 67.8424 243.361 67.9245 243.584 68.002C243.807 68.0794 244.092 68.1569 244.438 68.2344C245.045 68.3711 245.544 68.5352 245.936 68.7266C246.327 68.918 246.619 69.1527 246.811 69.4307C247.002 69.7087 247.098 70.0459 247.098 70.4424C247.098 70.766 247.029 71.0622 246.893 71.3311C246.76 71.5999 246.567 71.8324 246.312 72.0283C246.061 72.2197 245.76 72.3701 245.409 72.4795C245.063 72.5843 244.673 72.6367 244.24 72.6367C243.589 72.6367 243.037 72.5205 242.586 72.2881C242.135 72.0557 241.793 71.7549 241.561 71.3857C241.328 71.0166 241.212 70.627 241.212 70.2168H242.483C242.502 70.5632 242.602 70.8389 242.784 71.0439C242.966 71.2445 243.19 71.388 243.454 71.4746C243.718 71.5566 243.98 71.5977 244.24 71.5977C244.587 71.5977 244.876 71.5521 245.108 71.4609C245.345 71.3698 245.525 71.2445 245.648 71.085C245.771 70.9255 245.833 70.7432 245.833 70.5381ZM250.383 65.1035V72.5H249.111V65.1035H250.383ZM249.016 63.1416C249.016 62.9365 249.077 62.7633 249.2 62.6221C249.328 62.4808 249.515 62.4102 249.761 62.4102C250.002 62.4102 250.187 62.4808 250.314 62.6221C250.447 62.7633 250.513 62.9365 250.513 63.1416C250.513 63.3376 250.447 63.5062 250.314 63.6475C250.187 63.7842 250.002 63.8525 249.761 63.8525C249.515 63.8525 249.328 63.7842 249.2 63.6475C249.077 63.5062 249.016 63.3376 249.016 63.1416ZM252.328 68.8838V68.7266C252.328 68.1934 252.406 67.6989 252.561 67.2432C252.715 66.7829 252.939 66.3841 253.23 66.0469C253.522 65.7051 253.875 65.4408 254.29 65.2539C254.705 65.0625 255.17 64.9668 255.685 64.9668C256.204 64.9668 256.671 65.0625 257.086 65.2539C257.505 65.4408 257.861 65.7051 258.152 66.0469C258.449 66.3841 258.674 66.7829 258.829 67.2432C258.984 67.6989 259.062 68.1934 259.062 68.7266V68.8838C259.062 69.417 258.984 69.9115 258.829 70.3672C258.674 70.8229 258.449 71.2217 258.152 71.5635C257.861 71.9007 257.507 72.165 257.093 72.3564C256.683 72.5433 256.218 72.6367 255.698 72.6367C255.179 72.6367 254.712 72.5433 254.297 72.3564C253.882 72.165 253.527 71.9007 253.23 71.5635C252.939 71.2217 252.715 70.8229 252.561 70.3672C252.406 69.9115 252.328 69.417 252.328 68.8838ZM253.593 68.7266V68.8838C253.593 69.2529 253.636 69.6016 253.723 69.9297C253.809 70.2533 253.939 70.5404 254.112 70.791C254.29 71.0417 254.511 71.2399 254.775 71.3857C255.04 71.527 255.347 71.5977 255.698 71.5977C256.045 71.5977 256.348 71.527 256.607 71.3857C256.872 71.2399 257.09 71.0417 257.264 70.791C257.437 70.5404 257.567 70.2533 257.653 69.9297C257.744 69.6016 257.79 69.2529 257.79 68.8838V68.7266C257.79 68.362 257.744 68.0179 257.653 67.6943C257.567 67.3662 257.435 67.0768 257.257 66.8262C257.084 66.571 256.865 66.3704 256.601 66.2246C256.341 66.0788 256.035 66.0059 255.685 66.0059C255.338 66.0059 255.033 66.0788 254.769 66.2246C254.509 66.3704 254.29 66.571 254.112 66.8262C253.939 67.0768 253.809 67.3662 253.723 67.6943C253.636 68.0179 253.593 68.362 253.593 68.7266ZM262.162 66.6826V72.5H260.897V65.1035H262.094L262.162 66.6826ZM261.861 68.5215L261.335 68.501C261.34 67.9951 261.415 67.528 261.561 67.0996C261.706 66.6667 261.911 66.2907 262.176 65.9717C262.44 65.6527 262.755 65.4066 263.119 65.2334C263.488 65.0557 263.896 64.9668 264.343 64.9668C264.707 64.9668 265.035 65.0169 265.327 65.1172C265.619 65.2129 265.867 65.3678 266.072 65.582C266.282 65.7962 266.441 66.0742 266.551 66.416C266.66 66.7533 266.715 67.1657 266.715 67.6533V72.5H265.443V67.6396C265.443 67.2523 265.386 66.9424 265.272 66.71C265.159 66.473 264.992 66.3021 264.773 66.1973C264.555 66.0879 264.286 66.0332 263.967 66.0332C263.652 66.0332 263.365 66.0993 263.105 66.2314C262.85 66.3636 262.629 66.5459 262.442 66.7783C262.26 67.0107 262.117 67.2773 262.012 67.5781C261.911 67.8743 261.861 68.1888 261.861 68.5215ZM268.906 71.8301C268.906 71.6159 268.972 71.4359 269.104 71.29C269.241 71.1396 269.437 71.0645 269.692 71.0645C269.948 71.0645 270.141 71.1396 270.273 71.29C270.41 71.4359 270.479 71.6159 270.479 71.8301C270.479 72.0397 270.41 72.2174 270.273 72.3633C270.141 72.5091 269.948 72.582 269.692 72.582C269.437 72.582 269.241 72.5091 269.104 72.3633C268.972 72.2174 268.906 72.0397 268.906 71.8301ZM272.492 68.8838V68.7266C272.492 68.1934 272.57 67.6989 272.725 67.2432C272.88 66.7829 273.103 66.3841 273.395 66.0469C273.686 65.7051 274.039 65.4408 274.454 65.2539C274.869 65.0625 275.334 64.9668 275.849 64.9668C276.368 64.9668 276.835 65.0625 277.25 65.2539C277.669 65.4408 278.025 65.7051 278.316 66.0469C278.613 66.3841 278.838 66.7829 278.993 67.2432C279.148 67.6989 279.226 68.1934 279.226 68.7266V68.8838C279.226 69.417 279.148 69.9115 278.993 70.3672C278.838 70.8229 278.613 71.2217 278.316 71.5635C278.025 71.9007 277.672 72.165 277.257 72.3564C276.847 72.5433 276.382 72.6367 275.862 72.6367C275.343 72.6367 274.876 72.5433 274.461 72.3564C274.046 72.165 273.691 71.9007 273.395 71.5635C273.103 71.2217 272.88 70.8229 272.725 70.3672C272.57 69.9115 272.492 69.417 272.492 68.8838ZM273.757 68.7266V68.8838C273.757 69.2529 273.8 69.6016 273.887 69.9297C273.973 70.2533 274.103 70.5404 274.276 70.791C274.454 71.0417 274.675 71.2399 274.939 71.3857C275.204 71.527 275.511 71.5977 275.862 71.5977C276.209 71.5977 276.512 71.527 276.771 71.3857C277.036 71.2399 277.255 71.0417 277.428 70.791C277.601 70.5404 277.731 70.2533 277.817 69.9297C277.909 69.6016 277.954 69.2529 277.954 68.8838V68.7266C277.954 68.362 277.909 68.0179 277.817 67.6943C277.731 67.3662 277.599 67.0768 277.421 66.8262C277.248 66.571 277.029 66.3704 276.765 66.2246C276.505 66.0788 276.2 66.0059 275.849 66.0059C275.502 66.0059 275.197 66.0788 274.933 66.2246C274.673 66.3704 274.454 66.571 274.276 66.8262C274.103 67.0768 273.973 67.3662 273.887 67.6943C273.8 68.0179 273.757 68.362 273.757 68.7266ZM282.326 66.2656V72.5H281.062V65.1035H282.292L282.326 66.2656ZM284.637 65.0625L284.63 66.2383C284.525 66.2155 284.425 66.2018 284.329 66.1973C284.238 66.1882 284.133 66.1836 284.015 66.1836C283.723 66.1836 283.465 66.2292 283.242 66.3203C283.019 66.4115 282.83 66.5391 282.675 66.7031C282.52 66.8672 282.397 67.0632 282.306 67.291C282.219 67.5143 282.162 67.7604 282.135 68.0293L281.779 68.2344C281.779 67.7878 281.823 67.3685 281.909 66.9766C282 66.5846 282.139 66.2383 282.326 65.9375C282.513 65.6322 282.75 65.3952 283.037 65.2266C283.329 65.0534 283.675 64.9668 284.076 64.9668C284.167 64.9668 284.272 64.9782 284.391 65.001C284.509 65.0192 284.591 65.0397 284.637 65.0625ZM290.711 65.1035H291.859V72.3428C291.859 72.9945 291.727 73.5505 291.463 74.0107C291.199 74.471 290.829 74.8197 290.355 75.0566C289.886 75.2982 289.344 75.4189 288.729 75.4189C288.473 75.4189 288.173 75.3779 287.826 75.2959C287.484 75.2184 287.147 75.084 286.814 74.8926C286.486 74.7057 286.211 74.4528 285.987 74.1338L286.65 73.3818C286.96 73.7555 287.284 74.0153 287.621 74.1611C287.963 74.307 288.3 74.3799 288.633 74.3799C289.034 74.3799 289.38 74.3047 289.672 74.1543C289.964 74.0039 290.189 73.7806 290.349 73.4844C290.513 73.1927 290.595 72.8327 290.595 72.4043V66.7305L290.711 65.1035ZM285.618 68.8838V68.7402C285.618 68.1751 285.684 67.6624 285.816 67.2021C285.953 66.7373 286.147 66.3385 286.397 66.0059C286.653 65.6732 286.96 65.418 287.32 65.2402C287.68 65.0579 288.086 64.9668 288.537 64.9668C289.002 64.9668 289.408 65.0488 289.754 65.2129C290.105 65.3724 290.401 65.6071 290.643 65.917C290.889 66.2223 291.082 66.5915 291.224 67.0244C291.365 67.4574 291.463 67.9473 291.518 68.4941V69.123C291.467 69.6654 291.369 70.153 291.224 70.5859C291.082 71.0189 290.889 71.388 290.643 71.6934C290.401 71.9987 290.105 72.2334 289.754 72.3975C289.403 72.557 288.993 72.6367 288.523 72.6367C288.081 72.6367 287.68 72.5433 287.32 72.3564C286.965 72.1696 286.66 71.9076 286.404 71.5703C286.149 71.2331 285.953 70.8366 285.816 70.3809C285.684 69.9206 285.618 69.4215 285.618 68.8838ZM286.883 68.7402V68.8838C286.883 69.2529 286.919 69.5993 286.992 69.9229C287.07 70.2464 287.186 70.5312 287.341 70.7773C287.5 71.0234 287.703 71.2171 287.949 71.3584C288.195 71.4951 288.489 71.5635 288.831 71.5635C289.25 71.5635 289.597 71.4746 289.87 71.2969C290.144 71.1191 290.36 70.8844 290.52 70.5928C290.684 70.3011 290.811 69.9844 290.902 69.6426V67.9951C290.852 67.7445 290.775 67.5029 290.67 67.2705C290.57 67.0335 290.438 66.8239 290.273 66.6416C290.114 66.4548 289.916 66.3066 289.679 66.1973C289.442 66.0879 289.164 66.0332 288.845 66.0332C288.498 66.0332 288.2 66.1061 287.949 66.252C287.703 66.3932 287.5 66.5892 287.341 66.8398C287.186 67.0859 287.07 67.373 286.992 67.7012C286.919 68.0247 286.883 68.3711 286.883 68.7402Z" fill="#020617" fill-opacity="0.25"/>
<path fill-rule="evenodd" clip-rule="evenodd" d="M320.362 65.3401L316.969 65.0456L315.644 61.9259C315.406 61.358 314.592 61.358 314.354 61.9259L313.029 65.0526L309.643 65.3401C309.026 65.3892 308.774 66.1603 309.243 66.5669L311.816 68.7963L311.045 72.1053C310.905 72.7083 311.557 73.185 312.09 72.8625L314.999 71.1098L317.908 72.8695C318.441 73.192 319.093 72.7153 318.953 72.1124L318.182 68.7963L320.755 66.5669C321.224 66.1603 320.979 65.3892 320.362 65.3401ZM314.999 69.7988L312.363 71.3903L313.064 68.3897L310.737 66.3706L313.807 66.1042L314.999 63.2789L316.198 66.1112L319.268 66.3777L316.941 68.3967L317.642 71.3973L314.999 69.7988Z" fill="#020617" fill-opacity="0.15"/>
<rect x="345" y="53.5" width="28" height="28" rx="14" stroke="#E2E8F0" stroke-width="4"/>
<path d="M359 55.4692C355.813 55.4731 352.759 56.7402 350.505 58.9927C348.252 61.2452 346.985 64.2991 346.981 67.4846C346.985 70.6701 348.252 73.7241 350.505 75.9766C352.759 78.2291 355.813 79.4962 359 79.5C362.187 79.4966 365.242 78.2296 367.495 75.977C369.748 73.7244 371.016 70.6703 371.019 67.4846C371.015 64.2991 369.748 61.2452 367.495 58.9927C365.241 56.7402 362.187 55.4731 359 55.4692ZM359 79.0194C355.941 79.016 353.008 77.7996 350.845 75.6372C348.682 73.4747 347.465 70.5428 347.462 67.4846C347.465 64.4264 348.682 61.4945 350.845 59.3321C353.008 57.1696 355.941 55.9532 359 55.9499C362.059 55.9532 364.992 57.1696 367.155 59.3321C369.318 61.4945 370.535 64.4264 370.538 67.4846C370.535 70.5428 369.318 73.4747 367.155 75.6372C364.992 77.7996 362.059 79.016 359 79.0194Z" fill="#4F868E"/>
<path d="M359 79.0194C355.941 79.016 353.008 77.7996 350.845 75.6372C348.682 73.4747 347.465 70.5428 347.462 67.4846C347.465 64.4264 348.682 61.4945 350.845 59.3321C353.008 57.1696 355.941 55.9532 359 55.9499C362.059 55.9532 364.992 57.1696 367.155 59.3321C369.318 61.4945 370.535 64.4264 370.538 67.4846C370.535 70.5428 369.318 73.4747 367.155 75.6372C364.992 77.7996 362.059 79.016 359 79.0194Z" fill="#4F868E"/>
<path d="M362.128 62.48C361.524 62.4841 360.928 62.6252 360.387 62.8928C359.845 63.1603 359.371 63.5472 359 64.0244C358.63 63.5472 358.156 63.1603 357.614 62.8928C357.073 62.6253 356.477 62.4841 355.873 62.48C353.62 62.48 351.788 64.4184 351.788 66.8055V71.5348C351.788 71.7897 351.89 72.0342 352.07 72.2145C352.25 72.3947 352.495 72.496 352.75 72.496C353.005 72.496 353.25 72.3947 353.43 72.2145C353.61 72.0342 353.712 71.7897 353.712 71.5348V66.8023C353.712 65.4758 354.684 64.3992 355.88 64.3992C357.075 64.3992 358.048 65.479 358.048 66.8023V71.5316C358.048 71.7865 358.149 72.031 358.33 72.2112C358.51 72.3915 358.755 72.4928 359.01 72.4928C359.265 72.4928 359.509 72.3915 359.69 72.2112C359.87 72.031 359.971 71.7865 359.971 71.5316V66.8023C359.971 65.4758 360.944 64.3992 362.139 64.3992C363.335 64.3992 364.308 65.479 364.308 66.8023V71.5316C364.308 71.7865 364.409 72.031 364.589 72.2112C364.77 72.3915 365.014 72.4928 365.269 72.4928C365.524 72.4928 365.769 72.3915 365.949 72.2112C366.129 72.031 366.231 71.7865 366.231 71.5316V66.8023C366.213 64.4184 364.381 62.48 362.128 62.48Z" fill="#F3F8F8"/>
</g>
<rect x="26" y="113" width="59" height="1" fill="url(#paint1_linear_6214_585)"/>
<rect x="14" y="126" width="71" height="1" fill="url(#paint2_linear_6214_585)"/>
<rect y="139" width="85" height="1" fill="url(#paint3_linear_6214_585)"/>
<rect x="22" y="152" width="63" height="1" fill="url(#paint4_linear_6214_585)"/>
<rect x="37" y="165" width="48" height="1" fill="url(#paint5_linear_6214_585)"/>
<g clip-path="url(#clip3_6214_585)">
<path d="M81 112C81 105.373 86.3726 100 93 100H359C365.627 100 371 105.373 371 112V168C371 174.627 365.627 180 359 180H93C86.3726 180 81 174.627 81 168V112Z" fill="white"/>
<g opacity="0.8">
<mask id="path-20-inside-1_6214_585" fill="white">
<path d="M81 100H371V140H81V100Z"/>
</mask>
<path d="M371 139H81V141H371V139Z" fill="#F1F5F9" mask="url(#path-20-inside-1_6214_585)"/>
<path d="M94.146 124V115.324C94.174 115.324 94.258 115.326 94.398 115.33C94.542 115.33 94.716 115.33 94.92 115.33C95.124 115.326 95.336 115.326 95.556 115.33C95.776 115.33 95.978 115.332 96.162 115.336C97.226 115.352 98.088 115.526 98.748 115.858C99.412 116.186 99.898 116.664 100.206 117.292C100.518 117.92 100.674 118.692 100.674 119.608C100.674 120.568 100.506 121.374 100.17 122.026C99.838 122.678 99.33 123.17 98.646 123.502C97.966 123.834 97.1 124 96.048 124H94.146ZM95.286 123.046H96.048C96.764 123.046 97.38 122.936 97.896 122.716C98.412 122.492 98.808 122.13 99.084 121.63C99.364 121.13 99.504 120.462 99.504 119.626C99.504 118.79 99.368 118.128 99.096 117.64C98.828 117.152 98.44 116.804 97.932 116.596C97.424 116.384 96.812 116.278 96.096 116.278H95.286V123.046ZM104.782 124.12C104.21 124.12 103.71 123.998 103.282 123.754C102.858 123.506 102.528 123.144 102.292 122.668C102.056 122.192 101.938 121.61 101.938 120.922C101.938 120.274 102.048 119.706 102.268 119.218C102.488 118.73 102.81 118.352 103.234 118.084C103.658 117.812 104.176 117.676 104.788 117.676C105.36 117.676 105.856 117.802 106.276 118.054C106.696 118.302 107.022 118.668 107.254 119.152C107.49 119.636 107.608 120.226 107.608 120.922C107.608 121.554 107.5 122.11 107.284 122.59C107.068 123.07 106.75 123.446 106.33 123.718C105.914 123.986 105.398 124.12 104.782 124.12ZM104.788 123.244C105.156 123.244 105.468 123.15 105.724 122.962C105.98 122.774 106.174 122.504 106.306 122.152C106.442 121.8 106.51 121.382 106.51 120.898C106.51 120.454 106.45 120.056 106.33 119.704C106.214 119.348 106.03 119.066 105.778 118.858C105.526 118.65 105.196 118.546 104.788 118.546C104.412 118.546 104.094 118.64 103.834 118.828C103.574 119.012 103.376 119.28 103.24 119.632C103.108 119.984 103.042 120.406 103.042 120.898C103.042 121.334 103.1 121.73 103.216 122.086C103.336 122.442 103.524 122.724 103.78 122.932C104.04 123.14 104.376 123.244 104.788 123.244ZM112.051 124V117.796H113.125V118.696C113.225 118.524 113.363 118.362 113.539 118.21C113.719 118.058 113.935 117.936 114.187 117.844C114.443 117.752 114.737 117.706 115.069 117.706C115.461 117.706 115.821 117.784 116.149 117.94C116.481 118.096 116.745 118.34 116.941 118.672C117.141 119 117.241 119.424 117.241 119.944V124H116.131V120.052C116.131 119.568 116.003 119.21 115.747 118.978C115.495 118.742 115.167 118.624 114.763 118.624C114.483 118.624 114.221 118.67 113.977 118.762C113.733 118.85 113.535 118.986 113.383 119.17C113.231 119.35 113.155 119.578 113.155 119.854V124H112.051ZM121.521 124.12C120.949 124.12 120.449 123.998 120.021 123.754C119.597 123.506 119.267 123.144 119.031 122.668C118.795 122.192 118.677 121.61 118.677 120.922C118.677 120.274 118.787 119.706 119.007 119.218C119.227 118.73 119.549 118.352 119.973 118.084C120.397 117.812 120.915 117.676 121.527 117.676C122.099 117.676 122.595 117.802 123.015 118.054C123.435 118.302 123.761 118.668 123.993 119.152C124.229 119.636 124.347 120.226 124.347 120.922C124.347 121.554 124.239 122.11 124.023 122.59C123.807 123.07 123.489 123.446 123.069 123.718C122.653 123.986 122.137 124.12 121.521 124.12ZM121.527 123.244C121.895 123.244 122.207 123.15 122.463 122.962C122.719 122.774 122.913 122.504 123.045 122.152C123.181 121.8 123.249 121.382 123.249 120.898C123.249 120.454 123.189 120.056 123.069 119.704C122.953 119.348 122.769 119.066 122.517 118.858C122.265 118.65 121.935 118.546 121.527 118.546C121.151 118.546 120.833 118.64 120.573 118.828C120.313 119.012 120.115 119.28 119.979 119.632C119.847 119.984 119.781 120.406 119.781 120.898C119.781 121.334 119.839 121.73 119.955 122.086C120.075 122.442 120.263 122.724 120.519 122.932C120.779 123.14 121.115 123.244 121.527 123.244ZM127.875 124.03C127.447 124.03 127.115 123.972 126.879 123.856C126.643 123.74 126.477 123.568 126.381 123.34C126.289 123.112 126.243 122.832 126.243 122.5V118.606H125.235V117.796H126.273L126.543 115.99H127.359V117.79H128.757V118.606H127.359V122.464C127.359 122.684 127.381 122.846 127.425 122.95C127.473 123.05 127.551 123.114 127.659 123.142C127.767 123.17 127.919 123.184 128.115 123.184H128.793V123.928C128.717 123.956 128.601 123.98 128.445 124C128.293 124.02 128.103 124.03 127.875 124.03ZM135.535 124.12C135.103 124.12 134.701 124.054 134.329 123.922C133.961 123.786 133.655 123.576 133.411 123.292C133.167 123.004 133.015 122.638 132.955 122.194H133.963C134.015 122.438 134.115 122.642 134.263 122.806C134.411 122.966 134.593 123.088 134.809 123.172C135.029 123.252 135.269 123.292 135.529 123.292C135.949 123.292 136.287 123.214 136.543 123.058C136.799 122.902 136.927 122.662 136.927 122.338C136.927 122.11 136.859 121.928 136.723 121.792C136.591 121.652 136.383 121.55 136.099 121.486L134.815 121.168C134.315 121.048 133.915 120.86 133.615 120.604C133.319 120.348 133.169 119.99 133.165 119.53C133.165 119.166 133.253 118.846 133.429 118.57C133.605 118.294 133.867 118.076 134.215 117.916C134.567 117.756 135.005 117.676 135.529 117.676C136.205 117.676 136.749 117.828 137.161 118.132C137.573 118.432 137.789 118.874 137.809 119.458H136.825C136.785 119.162 136.653 118.928 136.429 118.756C136.205 118.58 135.901 118.492 135.517 118.492C135.125 118.492 134.803 118.572 134.551 118.732C134.303 118.888 134.179 119.132 134.179 119.464C134.179 119.684 134.267 119.858 134.443 119.986C134.623 120.11 134.883 120.214 135.223 120.298L136.471 120.61C136.755 120.686 136.991 120.786 137.179 120.91C137.367 121.034 137.515 121.172 137.623 121.324C137.731 121.476 137.807 121.636 137.851 121.804C137.899 121.968 137.923 122.126 137.923 122.278C137.923 122.658 137.829 122.986 137.641 123.262C137.453 123.534 137.181 123.746 136.825 123.898C136.469 124.046 136.039 124.12 135.535 124.12ZM142.055 124.12C141.479 124.12 140.971 123.994 140.531 123.742C140.091 123.49 139.747 123.128 139.499 122.656C139.251 122.184 139.127 121.618 139.127 120.958C139.127 120.306 139.239 119.734 139.463 119.242C139.687 118.75 140.011 118.366 140.435 118.09C140.863 117.814 141.377 117.676 141.977 117.676C142.561 117.676 143.055 117.802 143.459 118.054C143.863 118.306 144.169 118.662 144.377 119.122C144.589 119.578 144.695 120.12 144.695 120.748V121.156H140.249C140.249 121.548 140.313 121.904 140.441 122.224C140.573 122.54 140.771 122.792 141.035 122.98C141.299 123.168 141.633 123.262 142.037 123.262C142.433 123.262 142.773 123.17 143.057 122.986C143.345 122.802 143.529 122.536 143.609 122.188H144.653C144.581 122.608 144.413 122.962 144.149 123.25C143.889 123.538 143.575 123.756 143.207 123.904C142.843 124.048 142.459 124.12 142.055 124.12ZM140.255 120.406H143.627C143.627 120.05 143.567 119.73 143.447 119.446C143.327 119.158 143.143 118.932 142.895 118.768C142.651 118.6 142.343 118.516 141.971 118.516C141.583 118.516 141.261 118.61 141.005 118.798C140.749 118.982 140.559 119.22 140.435 119.512C140.311 119.8 140.251 120.098 140.255 120.406ZM147.856 124.078C147.52 124.078 147.248 124.032 147.04 123.94C146.836 123.848 146.678 123.724 146.566 123.568C146.458 123.412 146.384 123.234 146.344 123.034C146.308 122.83 146.29 122.62 146.29 122.404V115.084H147.382V122.296C147.382 122.608 147.442 122.842 147.562 122.998C147.686 123.154 147.858 123.24 148.078 123.256L148.414 123.262V123.982C148.322 124.01 148.226 124.032 148.126 124.048C148.026 124.068 147.936 124.078 147.856 124.078ZM151.373 124.078C151.037 124.078 150.765 124.032 150.557 123.94C150.353 123.848 150.195 123.724 150.083 123.568C149.975 123.412 149.901 123.234 149.861 123.034C149.825 122.83 149.807 122.62 149.807 122.404V115.084H150.899V122.296C150.899 122.608 150.959 122.842 151.079 122.998C151.203 123.154 151.375 123.24 151.595 123.256L151.931 123.262V123.982C151.839 124.01 151.743 124.032 151.643 124.048C151.543 124.068 151.453 124.078 151.373 124.078ZM152.744 124.462L155.744 115.324H156.608L153.602 124.462H152.744ZM159.999 124.12C159.567 124.12 159.165 124.054 158.793 123.922C158.425 123.786 158.119 123.576 157.875 123.292C157.631 123.004 157.479 122.638 157.419 122.194H158.427C158.479 122.438 158.579 122.642 158.727 122.806C158.875 122.966 159.057 123.088 159.273 123.172C159.493 123.252 159.733 123.292 159.993 123.292C160.413 123.292 160.751 123.214 161.007 123.058C161.263 122.902 161.391 122.662 161.391 122.338C161.391 122.11 161.323 121.928 161.187 121.792C161.055 121.652 160.847 121.55 160.563 121.486L159.279 121.168C158.779 121.048 158.379 120.86 158.079 120.604C157.783 120.348 157.633 119.99 157.629 119.53C157.629 119.166 157.717 118.846 157.893 118.57C158.069 118.294 158.331 118.076 158.679 117.916C159.031 117.756 159.469 117.676 159.993 117.676C160.669 117.676 161.213 117.828 161.625 118.132C162.037 118.432 162.253 118.874 162.273 119.458H161.289C161.249 119.162 161.117 118.928 160.893 118.756C160.669 118.58 160.365 118.492 159.981 118.492C159.589 118.492 159.267 118.572 159.015 118.732C158.767 118.888 158.643 119.132 158.643 119.464C158.643 119.684 158.731 119.858 158.907 119.986C159.087 120.11 159.347 120.214 159.687 120.298L160.935 120.61C161.219 120.686 161.455 120.786 161.643 120.91C161.831 121.034 161.979 121.172 162.087 121.324C162.195 121.476 162.271 121.636 162.315 121.804C162.363 121.968 162.387 122.126 162.387 122.278C162.387 122.658 162.293 122.986 162.105 123.262C161.917 123.534 161.645 123.746 161.289 123.898C160.933 124.046 160.503 124.12 159.999 124.12ZM163.897 124V115.084H164.977V118.708C165.081 118.536 165.221 118.376 165.397 118.228C165.573 118.076 165.787 117.954 166.039 117.862C166.291 117.766 166.583 117.718 166.915 117.718C167.319 117.718 167.685 117.794 168.013 117.946C168.341 118.094 168.601 118.306 168.793 118.582C168.985 118.858 169.081 119.186 169.081 119.566V124H167.971V119.788C167.971 119.416 167.843 119.13 167.587 118.93C167.335 118.726 167.005 118.624 166.597 118.624C166.321 118.624 166.061 118.67 165.817 118.762C165.573 118.85 165.375 118.986 165.223 119.17C165.075 119.35 165.001 119.58 165.001 119.86V124H163.897ZM172.588 124.12C172.184 124.12 171.828 124.05 171.52 123.91C171.216 123.766 170.976 123.56 170.8 123.292C170.628 123.024 170.542 122.7 170.542 122.32C170.542 121.632 170.782 121.12 171.262 120.784C171.742 120.448 172.512 120.268 173.572 120.244L174.676 120.214V119.728C174.676 119.348 174.562 119.048 174.334 118.828C174.106 118.604 173.754 118.492 173.278 118.492C172.922 118.496 172.608 118.58 172.336 118.744C172.064 118.908 171.89 119.176 171.814 119.548H170.836C170.86 119.144 170.972 118.804 171.172 118.528C171.376 118.248 171.662 118.036 172.03 117.892C172.398 117.748 172.832 117.676 173.332 117.676C173.872 117.676 174.32 117.752 174.676 117.904C175.036 118.056 175.304 118.28 175.48 118.576C175.66 118.872 175.75 119.236 175.75 119.668V124H174.802L174.718 122.836C174.482 123.32 174.178 123.656 173.806 123.844C173.438 124.028 173.032 124.12 172.588 124.12ZM172.918 123.322C173.13 123.322 173.338 123.284 173.542 123.208C173.75 123.132 173.938 123.03 174.106 122.902C174.278 122.77 174.416 122.624 174.52 122.464C174.624 122.3 174.676 122.132 174.676 121.96V120.898L173.758 120.916C173.282 120.924 172.886 120.972 172.57 121.06C172.254 121.148 172.016 121.286 171.856 121.474C171.696 121.662 171.616 121.908 171.616 122.212C171.616 122.56 171.738 122.832 171.982 123.028C172.226 123.224 172.538 123.322 172.918 123.322ZM177.541 124V117.796H178.597V118.99C178.701 118.694 178.847 118.45 179.035 118.258C179.223 118.062 179.437 117.916 179.677 117.82C179.921 117.724 180.173 117.676 180.433 117.676C180.525 117.676 180.615 117.682 180.703 117.694C180.791 117.706 180.859 117.726 180.907 117.754V118.828C180.847 118.8 180.769 118.782 180.673 118.774C180.581 118.762 180.503 118.756 180.439 118.756C180.191 118.74 179.959 118.756 179.743 118.804C179.527 118.848 179.337 118.926 179.173 119.038C179.009 119.15 178.879 119.298 178.783 119.482C178.691 119.662 178.645 119.882 178.645 120.142V124H177.541ZM184.816 124.12C184.24 124.12 183.732 123.994 183.292 123.742C182.852 123.49 182.508 123.128 182.26 122.656C182.012 122.184 181.888 121.618 181.888 120.958C181.888 120.306 182 119.734 182.224 119.242C182.448 118.75 182.772 118.366 183.196 118.09C183.624 117.814 184.138 117.676 184.738 117.676C185.322 117.676 185.816 117.802 186.22 118.054C186.624 118.306 186.93 118.662 187.138 119.122C187.35 119.578 187.456 120.12 187.456 120.748V121.156H183.01C183.01 121.548 183.074 121.904 183.202 122.224C183.334 122.54 183.532 122.792 183.796 122.98C184.06 123.168 184.394 123.262 184.798 123.262C185.194 123.262 185.534 123.17 185.818 122.986C186.106 122.802 186.29 122.536 186.37 122.188H187.414C187.342 122.608 187.174 122.962 186.91 123.25C186.65 123.538 186.336 123.756 185.968 123.904C185.604 124.048 185.22 124.12 184.816 124.12ZM183.016 120.406H186.388C186.388 120.05 186.328 119.73 186.208 119.446C186.088 119.158 185.904 118.932 185.656 118.768C185.412 118.6 185.104 118.516 184.732 118.516C184.344 118.516 184.022 118.61 183.766 118.798C183.51 118.982 183.32 119.22 183.196 119.512C183.072 119.8 183.012 120.098 183.016 120.406ZM191.959 124V117.796H193.027V118.696C193.199 118.424 193.435 118.186 193.735 117.982C194.035 117.778 194.425 117.676 194.905 117.676C195.129 117.676 195.357 117.714 195.589 117.79C195.825 117.866 196.041 117.98 196.237 118.132C196.433 118.284 196.585 118.47 196.693 118.69C196.885 118.386 197.145 118.142 197.473 117.958C197.801 117.77 198.171 117.676 198.583 117.676C198.799 117.676 199.025 117.71 199.261 117.778C199.497 117.842 199.715 117.958 199.915 118.126C200.119 118.29 200.285 118.52 200.413 118.816C200.541 119.108 200.605 119.484 200.605 119.944V124H199.489V120.052C199.489 119.676 199.429 119.386 199.309 119.182C199.189 118.974 199.031 118.828 198.835 118.744C198.643 118.66 198.437 118.618 198.217 118.618C198.025 118.618 197.821 118.656 197.605 118.732C197.389 118.808 197.205 118.936 197.053 119.116C196.901 119.296 196.825 119.542 196.825 119.854V124H195.721V119.728C195.721 119.484 195.655 119.28 195.523 119.116C195.395 118.952 195.233 118.828 195.037 118.744C194.845 118.66 194.653 118.618 194.461 118.618C194.249 118.618 194.035 118.66 193.819 118.744C193.607 118.828 193.427 118.962 193.279 119.146C193.135 119.326 193.063 119.562 193.063 119.854V124H191.959ZM202.821 125.98C202.457 125.98 202.207 125.954 202.071 125.902C201.935 125.85 201.867 125.824 201.867 125.824V125.104L202.503 125.116C202.731 125.124 202.921 125.108 203.073 125.068C203.225 125.028 203.347 124.974 203.439 124.906C203.531 124.838 203.601 124.762 203.649 124.678C203.701 124.594 203.743 124.514 203.775 124.438L203.991 123.85L201.567 117.796H202.689L204.519 122.584L206.337 117.796H207.423L204.813 124.468C204.649 124.86 204.467 125.166 204.267 125.386C204.071 125.606 203.851 125.76 203.607 125.848C203.367 125.936 203.105 125.98 202.821 125.98ZM211.616 125.932V117.796H212.72L212.732 118.876C212.804 118.748 212.896 118.614 213.008 118.474C213.124 118.334 213.264 118.204 213.428 118.084C213.596 117.964 213.79 117.866 214.01 117.79C214.234 117.714 214.488 117.676 214.772 117.676C215.268 117.676 215.704 117.79 216.08 118.018C216.46 118.242 216.756 118.586 216.968 119.05C217.18 119.514 217.286 120.102 217.286 120.814C217.286 121.526 217.182 122.128 216.974 122.62C216.77 123.108 216.474 123.48 216.086 123.736C215.698 123.992 215.23 124.12 214.682 124.12C214.406 124.12 214.16 124.08 213.944 124C213.732 123.924 213.546 123.824 213.386 123.7C213.23 123.572 213.098 123.436 212.99 123.292C212.886 123.148 212.8 123.01 212.732 122.878V125.932H211.616ZM214.472 123.256C214.984 123.256 215.402 123.062 215.726 122.674C216.05 122.282 216.212 121.674 216.212 120.85C216.212 120.142 216.064 119.58 215.768 119.164C215.472 118.748 215.04 118.54 214.472 118.54C213.896 118.54 213.46 118.754 213.164 119.182C212.868 119.606 212.72 120.162 212.72 120.85C212.72 121.294 212.786 121.698 212.918 122.062C213.05 122.426 213.246 122.716 213.506 122.932C213.766 123.148 214.088 123.256 214.472 123.256ZM221.446 124.12C220.87 124.12 220.362 123.994 219.922 123.742C219.482 123.49 219.138 123.128 218.89 122.656C218.642 122.184 218.518 121.618 218.518 120.958C218.518 120.306 218.63 119.734 218.854 119.242C219.078 118.75 219.402 118.366 219.826 118.09C220.254 117.814 220.768 117.676 221.368 117.676C221.952 117.676 222.446 117.802 222.85 118.054C223.254 118.306 223.56 118.662 223.768 119.122C223.98 119.578 224.086 120.12 224.086 120.748V121.156H219.64C219.64 121.548 219.704 121.904 219.832 122.224C219.964 122.54 220.162 122.792 220.426 122.98C220.69 123.168 221.024 123.262 221.428 123.262C221.824 123.262 222.164 123.17 222.448 122.986C222.736 122.802 222.92 122.536 223 122.188H224.044C223.972 122.608 223.804 122.962 223.54 123.25C223.28 123.538 222.966 123.756 222.598 123.904C222.234 124.048 221.85 124.12 221.446 124.12ZM219.646 120.406H223.018C223.018 120.05 222.958 119.73 222.838 119.446C222.718 119.158 222.534 118.932 222.286 118.768C222.042 118.6 221.734 118.516 221.362 118.516C220.974 118.516 220.652 118.61 220.396 118.798C220.14 118.982 219.95 119.22 219.826 119.512C219.702 119.8 219.642 120.098 219.646 120.406ZM225.681 124V117.796H226.737V118.99C226.841 118.694 226.987 118.45 227.175 118.258C227.363 118.062 227.577 117.916 227.817 117.82C228.061 117.724 228.313 117.676 228.573 117.676C228.665 117.676 228.755 117.682 228.843 117.694C228.931 117.706 228.999 117.726 229.047 117.754V118.828C228.987 118.8 228.909 118.782 228.813 118.774C228.721 118.762 228.643 118.756 228.579 118.756C228.331 118.74 228.099 118.756 227.883 118.804C227.667 118.848 227.477 118.926 227.313 119.038C227.149 119.15 227.019 119.298 226.923 119.482C226.831 119.662 226.785 119.882 226.785 120.142V124H225.681ZM232.625 124.12C232.193 124.12 231.791 124.054 231.419 123.922C231.051 123.786 230.745 123.576 230.501 123.292C230.257 123.004 230.105 122.638 230.045 122.194H231.053C231.105 122.438 231.205 122.642 231.353 122.806C231.501 122.966 231.683 123.088 231.899 123.172C232.119 123.252 232.359 123.292 232.619 123.292C233.039 123.292 233.377 123.214 233.633 123.058C233.889 122.902 234.017 122.662 234.017 122.338C234.017 122.11 233.949 121.928 233.813 121.792C233.681 121.652 233.473 121.55 233.189 121.486L231.905 121.168C231.405 121.048 231.005 120.86 230.705 120.604C230.409 120.348 230.259 119.99 230.255 119.53C230.255 119.166 230.343 118.846 230.519 118.57C230.695 118.294 230.957 118.076 231.305 117.916C231.657 117.756 232.095 117.676 232.619 117.676C233.295 117.676 233.839 117.828 234.251 118.132C234.663 118.432 234.879 118.874 234.899 119.458H233.915C233.875 119.162 233.743 118.928 233.519 118.756C233.295 118.58 232.991 118.492 232.607 118.492C232.215 118.492 231.893 118.572 231.641 118.732C231.393 118.888 231.269 119.132 231.269 119.464C231.269 119.684 231.357 119.858 231.533 119.986C231.713 120.11 231.973 120.214 232.313 120.298L233.561 120.61C233.845 120.686 234.081 120.786 234.269 120.91C234.457 121.034 234.605 121.172 234.713 121.324C234.821 121.476 234.897 121.636 234.941 121.804C234.989 121.968 235.013 122.126 235.013 122.278C235.013 122.658 234.919 122.986 234.731 123.262C234.543 123.534 234.271 123.746 233.915 123.898C233.559 124.046 233.129 124.12 232.625 124.12ZM239.007 124.12C238.435 124.12 237.935 123.998 237.507 123.754C237.083 123.506 236.753 123.144 236.517 122.668C236.281 122.192 236.163 121.61 236.163 120.922C236.163 120.274 236.273 119.706 236.493 119.218C236.713 118.73 237.035 118.352 237.459 118.084C237.883 117.812 238.401 117.676 239.013 117.676C239.585 117.676 240.081 117.802 240.501 118.054C240.921 118.302 241.247 118.668 241.479 119.152C241.715 119.636 241.833 120.226 241.833 120.922C241.833 121.554 241.725 122.11 241.509 122.59C241.293 123.07 240.975 123.446 240.555 123.718C240.139 123.986 239.623 124.12 239.007 124.12ZM239.013 123.244C239.381 123.244 239.693 123.15 239.949 122.962C240.205 122.774 240.399 122.504 240.531 122.152C240.667 121.8 240.735 121.382 240.735 120.898C240.735 120.454 240.675 120.056 240.555 119.704C240.439 119.348 240.255 119.066 240.003 118.858C239.751 118.65 239.421 118.546 239.013 118.546C238.637 118.546 238.319 118.64 238.059 118.828C237.799 119.012 237.601 119.28 237.465 119.632C237.333 119.984 237.267 120.406 237.267 120.898C237.267 121.334 237.325 121.73 237.441 122.086C237.561 122.442 237.749 122.724 238.005 122.932C238.265 123.14 238.601 123.244 239.013 123.244ZM243.369 124V117.796H244.443V118.696C244.543 118.524 244.681 118.362 244.857 118.21C245.037 118.058 245.253 117.936 245.505 117.844C245.761 117.752 246.055 117.706 246.387 117.706C246.779 117.706 247.139 117.784 247.467 117.94C247.799 118.096 248.063 118.34 248.259 118.672C248.459 119 248.559 119.424 248.559 119.944V124H247.449V120.052C247.449 119.568 247.321 119.21 247.065 118.978C246.813 118.742 246.485 118.624 246.081 118.624C245.801 118.624 245.539 118.67 245.295 118.762C245.051 118.85 244.853 118.986 244.701 119.17C244.549 119.35 244.473 119.578 244.473 119.854V124H243.369ZM252.071 124.12C251.667 124.12 251.311 124.05 251.003 123.91C250.699 123.766 250.459 123.56 250.283 123.292C250.111 123.024 250.025 122.7 250.025 122.32C250.025 121.632 250.265 121.12 250.745 120.784C251.225 120.448 251.995 120.268 253.055 120.244L254.159 120.214V119.728C254.159 119.348 254.045 119.048 253.817 118.828C253.589 118.604 253.237 118.492 252.761 118.492C252.405 118.496 252.091 118.58 251.819 118.744C251.547 118.908 251.373 119.176 251.297 119.548H250.319C250.343 119.144 250.455 118.804 250.655 118.528C250.859 118.248 251.145 118.036 251.513 117.892C251.881 117.748 252.315 117.676 252.815 117.676C253.355 117.676 253.803 117.752 254.159 117.904C254.519 118.056 254.787 118.28 254.963 118.576C255.143 118.872 255.233 119.236 255.233 119.668V124H254.285L254.201 122.836C253.965 123.32 253.661 123.656 253.289 123.844C252.921 124.028 252.515 124.12 252.071 124.12ZM252.401 123.322C252.613 123.322 252.821 123.284 253.025 123.208C253.233 123.132 253.421 123.03 253.589 122.902C253.761 122.77 253.899 122.624 254.003 122.464C254.107 122.3 254.159 122.132 254.159 121.96V120.898L253.241 120.916C252.765 120.924 252.369 120.972 252.053 121.06C251.737 121.148 251.499 121.286 251.339 121.474C251.179 121.662 251.099 121.908 251.099 122.212C251.099 122.56 251.221 122.832 251.465 123.028C251.709 123.224 252.021 123.322 252.401 123.322ZM258.59 124.078C258.254 124.078 257.982 124.032 257.774 123.94C257.57 123.848 257.412 123.724 257.3 123.568C257.192 123.412 257.118 123.234 257.078 123.034C257.042 122.83 257.024 122.62 257.024 122.404V115.084H258.116V122.296C258.116 122.608 258.176 122.842 258.296 122.998C258.42 123.154 258.592 123.24 258.812 123.256L259.148 123.262V123.982C259.056 124.01 258.96 124.032 258.86 124.048C258.76 124.068 258.67 124.078 258.59 124.078ZM265.804 124.12C264.996 124.12 264.356 123.844 263.884 123.292C263.416 122.74 263.182 121.934 263.182 120.874C263.182 120.23 263.276 119.668 263.464 119.188C263.652 118.708 263.934 118.336 264.31 118.072C264.686 117.808 265.154 117.676 265.714 117.676C266.014 117.676 266.278 117.714 266.506 117.79C266.734 117.866 266.932 117.962 267.1 118.078C267.268 118.194 267.404 118.314 267.508 118.438C267.616 118.562 267.696 118.676 267.748 118.78V115.084H268.87V124H268.018L267.898 122.728C267.858 122.848 267.794 122.988 267.706 123.148C267.618 123.304 267.494 123.458 267.334 123.61C267.178 123.758 266.974 123.88 266.722 123.976C266.47 124.072 266.164 124.12 265.804 124.12ZM266.002 123.268C266.626 123.268 267.072 123.078 267.34 122.698C267.612 122.314 267.748 121.688 267.748 120.82C267.744 120.336 267.684 119.924 267.568 119.584C267.452 119.244 267.268 118.986 267.016 118.81C266.768 118.63 266.436 118.54 266.02 118.54C265.512 118.54 265.098 118.722 264.778 119.086C264.458 119.45 264.298 120.028 264.298 120.82C264.298 121.596 264.442 122.198 264.73 122.626C265.018 123.054 265.442 123.268 266.002 123.268ZM272.502 124.12C272.098 124.12 271.742 124.05 271.434 123.91C271.13 123.766 270.89 123.56 270.714 123.292C270.542 123.024 270.456 122.7 270.456 122.32C270.456 121.632 270.696 121.12 271.176 120.784C271.656 120.448 272.426 120.268 273.486 120.244L274.59 120.214V119.728C274.59 119.348 274.476 119.048 274.248 118.828C274.02 118.604 273.668 118.492 273.192 118.492C272.836 118.496 272.522 118.58 272.25 118.744C271.978 118.908 271.804 119.176 271.728 119.548H270.75C270.774 119.144 270.886 118.804 271.086 118.528C271.29 118.248 271.576 118.036 271.944 117.892C272.312 117.748 272.746 117.676 273.246 117.676C273.786 117.676 274.234 117.752 274.59 117.904C274.95 118.056 275.218 118.28 275.394 118.576C275.574 118.872 275.664 119.236 275.664 119.668V124H274.716L274.632 122.836C274.396 123.32 274.092 123.656 273.72 123.844C273.352 124.028 272.946 124.12 272.502 124.12ZM272.832 123.322C273.044 123.322 273.252 123.284 273.456 123.208C273.664 123.132 273.852 123.03 274.02 122.902C274.192 122.77 274.33 122.624 274.434 122.464C274.538 122.3 274.59 122.132 274.59 121.96V120.898L273.672 120.916C273.196 120.924 272.8 120.972 272.484 121.06C272.168 121.148 271.93 121.286 271.77 121.474C271.61 121.662 271.53 121.908 271.53 122.212C271.53 122.56 271.652 122.832 271.896 123.028C272.14 123.224 272.452 123.322 272.832 123.322ZM279.471 124.03C279.043 124.03 278.711 123.972 278.475 123.856C278.239 123.74 278.073 123.568 277.977 123.34C277.885 123.112 277.839 122.832 277.839 122.5V118.606H276.831V117.796H277.869L278.139 115.99H278.955V117.79H280.353V118.606H278.955V122.464C278.955 122.684 278.977 122.846 279.021 122.95C279.069 123.05 279.147 123.114 279.255 123.142C279.363 123.17 279.515 123.184 279.711 123.184H280.389V123.928C280.313 123.956 280.197 123.98 280.041 124C279.889 124.02 279.699 124.03 279.471 124.03ZM283.626 124.12C283.222 124.12 282.866 124.05 282.558 123.91C282.254 123.766 282.014 123.56 281.838 123.292C281.666 123.024 281.58 122.7 281.58 122.32C281.58 121.632 281.82 121.12 282.3 120.784C282.78 120.448 283.55 120.268 284.61 120.244L285.714 120.214V119.728C285.714 119.348 285.6 119.048 285.372 118.828C285.144 118.604 284.792 118.492 284.316 118.492C283.96 118.496 283.646 118.58 283.374 118.744C283.102 118.908 282.928 119.176 282.852 119.548H281.874C281.898 119.144 282.01 118.804 282.21 118.528C282.414 118.248 282.7 118.036 283.068 117.892C283.436 117.748 283.87 117.676 284.37 117.676C284.91 117.676 285.358 117.752 285.714 117.904C286.074 118.056 286.342 118.28 286.518 118.576C286.698 118.872 286.788 119.236 286.788 119.668V124H285.84L285.756 122.836C285.52 123.32 285.216 123.656 284.844 123.844C284.476 124.028 284.07 124.12 283.626 124.12ZM283.956 123.322C284.168 123.322 284.376 123.284 284.58 123.208C284.788 123.132 284.976 123.03 285.144 122.902C285.316 122.77 285.454 122.624 285.558 122.464C285.662 122.3 285.714 122.132 285.714 121.96V120.898L284.796 120.916C284.32 120.924 283.924 120.972 283.608 121.06C283.292 121.148 283.054 121.286 282.894 121.474C282.734 121.662 282.654 121.908 282.654 122.212C282.654 122.56 282.776 122.832 283.02 123.028C283.264 123.224 283.576 123.322 283.956 123.322Z" fill="#1E293B"/>
<path d="M319.5 120C319.5 113.649 324.649 108.5 331 108.5H351C357.351 108.5 362.5 113.649 362.5 120C362.5 126.351 357.351 131.5 351 131.5H331C324.649 131.5 319.5 126.351 319.5 120Z" fill="#3B5B63"/>
<path d="M319.5 120C319.5 113.649 324.649 108.5 331 108.5H351C357.351 108.5 362.5 113.649 362.5 120C362.5 126.351 357.351 131.5 351 131.5H331C324.649 131.5 319.5 126.351 319.5 120Z" stroke="#374E53"/>
<g filter="url(#filter2_dd_6214_585)">
<path d="M341 120C341 114.477 345.477 110 351 110C356.523 110 361 114.477 361 120C361 125.523 356.523 130 351 130C345.477 130 341 125.523 341 120Z" fill="white" shape-rendering="crispEdges"/>
<path fill-rule="evenodd" clip-rule="evenodd" d="M354.997 116.718C355.153 116.854 355.169 117.091 355.032 117.247L349.782 123.247C349.714 123.325 349.616 123.371 349.512 123.375C349.409 123.378 349.308 123.339 349.235 123.265L346.985 121.015C346.838 120.869 346.838 120.631 346.985 120.485C347.131 120.338 347.369 120.338 347.515 120.485L349.482 122.451L354.468 116.753C354.604 116.597 354.841 116.581 354.997 116.718Z" fill="#374E53"/>
</g>
</g>
<g opacity="0.6">
<path d="M94.146 164V155.324H99.618L99.612 156.302H95.262V159.134H99.18V160.106H95.256V162.998L99.732 163.01V164H94.146ZM101.267 164V157.796H102.341V158.696C102.441 158.524 102.579 158.362 102.755 158.21C102.935 158.058 103.151 157.936 103.403 157.844C103.659 157.752 103.953 157.706 104.285 157.706C104.677 157.706 105.037 157.784 105.365 157.94C105.697 158.096 105.961 158.34 106.157 158.672C106.357 159 106.457 159.424 106.457 159.944V164H105.347V160.052C105.347 159.568 105.219 159.21 104.963 158.978C104.711 158.742 104.383 158.624 103.979 158.624C103.699 158.624 103.437 158.67 103.193 158.762C102.949 158.85 102.751 158.986 102.599 159.17C102.447 159.35 102.371 159.578 102.371 159.854V164H101.267ZM109.969 164.12C109.565 164.12 109.209 164.05 108.901 163.91C108.597 163.766 108.357 163.56 108.181 163.292C108.009 163.024 107.923 162.7 107.923 162.32C107.923 161.632 108.163 161.12 108.643 160.784C109.123 160.448 109.893 160.268 110.953 160.244L112.057 160.214V159.728C112.057 159.348 111.943 159.048 111.715 158.828C111.487 158.604 111.135 158.492 110.659 158.492C110.303 158.496 109.989 158.58 109.717 158.744C109.445 158.908 109.271 159.176 109.195 159.548H108.217C108.241 159.144 108.353 158.804 108.553 158.528C108.757 158.248 109.043 158.036 109.411 157.892C109.779 157.748 110.213 157.676 110.713 157.676C111.253 157.676 111.701 157.752 112.057 157.904C112.417 158.056 112.685 158.28 112.861 158.576C113.041 158.872 113.131 159.236 113.131 159.668V164H112.183L112.099 162.836C111.863 163.32 111.559 163.656 111.187 163.844C110.819 164.028 110.413 164.12 109.969 164.12ZM110.299 163.322C110.511 163.322 110.719 163.284 110.923 163.208C111.131 163.132 111.319 163.03 111.487 162.902C111.659 162.77 111.797 162.624 111.901 162.464C112.005 162.3 112.057 162.132 112.057 161.96V160.898L111.139 160.916C110.663 160.924 110.267 160.972 109.951 161.06C109.635 161.148 109.397 161.286 109.237 161.474C109.077 161.662 108.997 161.908 108.997 162.212C108.997 162.56 109.119 162.832 109.363 163.028C109.607 163.224 109.919 163.322 110.299 163.322ZM117.988 164.12C117.624 164.12 117.316 164.072 117.064 163.976C116.816 163.88 116.612 163.758 116.452 163.61C116.292 163.458 116.168 163.304 116.08 163.148C115.992 162.988 115.928 162.848 115.888 162.728L115.768 164H114.922V155.084H116.038V158.78C116.09 158.676 116.168 158.562 116.272 158.438C116.38 158.314 116.518 158.194 116.686 158.078C116.854 157.962 117.052 157.866 117.28 157.79C117.512 157.714 117.776 157.676 118.072 157.676C118.848 157.676 119.464 157.946 119.92 158.486C120.38 159.026 120.61 159.822 120.61 160.874C120.61 161.526 120.512 162.096 120.316 162.584C120.12 163.068 119.828 163.446 119.44 163.718C119.052 163.986 118.568 164.12 117.988 164.12ZM117.79 163.268C118.294 163.268 118.704 163.074 119.02 162.686C119.336 162.294 119.494 161.672 119.494 160.82C119.494 160.096 119.346 159.536 119.05 159.14C118.758 158.74 118.33 158.54 117.766 158.54C117.354 158.54 117.022 158.63 116.77 158.81C116.522 158.986 116.338 159.244 116.218 159.584C116.102 159.924 116.042 160.336 116.038 160.82C116.038 161.688 116.172 162.314 116.44 162.698C116.712 163.078 117.162 163.268 117.79 163.268ZM123.708 164.078C123.372 164.078 123.1 164.032 122.892 163.94C122.688 163.848 122.53 163.724 122.418 163.568C122.31 163.412 122.236 163.234 122.196 163.034C122.16 162.83 122.142 162.62 122.142 162.404V155.084H123.234V162.296C123.234 162.608 123.294 162.842 123.414 162.998C123.538 163.154 123.71 163.24 123.93 163.256L124.266 163.262V163.982C124.174 164.01 124.078 164.032 123.978 164.048C123.878 164.068 123.788 164.078 123.708 164.078ZM128.164 164.12C127.588 164.12 127.08 163.994 126.64 163.742C126.2 163.49 125.856 163.128 125.608 162.656C125.36 162.184 125.236 161.618 125.236 160.958C125.236 160.306 125.348 159.734 125.572 159.242C125.796 158.75 126.12 158.366 126.544 158.09C126.972 157.814 127.486 157.676 128.086 157.676C128.67 157.676 129.164 157.802 129.568 158.054C129.972 158.306 130.278 158.662 130.486 159.122C130.698 159.578 130.804 160.12 130.804 160.748V161.156H126.358C126.358 161.548 126.422 161.904 126.55 162.224C126.682 162.54 126.88 162.792 127.144 162.98C127.408 163.168 127.742 163.262 128.146 163.262C128.542 163.262 128.882 163.17 129.166 162.986C129.454 162.802 129.638 162.536 129.718 162.188H130.762C130.69 162.608 130.522 162.962 130.258 163.25C129.998 163.538 129.684 163.756 129.316 163.904C128.952 164.048 128.568 164.12 128.164 164.12ZM126.364 160.406H129.736C129.736 160.05 129.676 159.73 129.556 159.446C129.436 159.158 129.252 158.932 129.004 158.768C128.76 158.6 128.452 158.516 128.08 158.516C127.692 158.516 127.37 158.61 127.114 158.798C126.858 158.982 126.668 159.22 126.544 159.512C126.42 159.8 126.36 160.098 126.364 160.406ZM134.661 164.12C133.853 164.12 133.213 163.844 132.741 163.292C132.273 162.74 132.039 161.934 132.039 160.874C132.039 160.23 132.133 159.668 132.321 159.188C132.509 158.708 132.791 158.336 133.167 158.072C133.543 157.808 134.011 157.676 134.571 157.676C134.871 157.676 135.135 157.714 135.363 157.79C135.591 157.866 135.789 157.962 135.957 158.078C136.125 158.194 136.261 158.314 136.365 158.438C136.473 158.562 136.553 158.676 136.605 158.78V155.084H137.727V164H136.875L136.755 162.728C136.715 162.848 136.651 162.988 136.563 163.148C136.475 163.304 136.351 163.458 136.191 163.61C136.035 163.758 135.831 163.88 135.579 163.976C135.327 164.072 135.021 164.12 134.661 164.12ZM134.859 163.268C135.483 163.268 135.929 163.078 136.197 162.698C136.469 162.314 136.605 161.688 136.605 160.82C136.601 160.336 136.541 159.924 136.425 159.584C136.309 159.244 136.125 158.986 135.873 158.81C135.625 158.63 135.293 158.54 134.877 158.54C134.369 158.54 133.955 158.722 133.635 159.086C133.315 159.45 133.155 160.028 133.155 160.82C133.155 161.596 133.299 162.198 133.587 162.626C133.875 163.054 134.299 163.268 134.859 163.268ZM144.929 164.12C144.357 164.12 143.857 163.998 143.429 163.754C143.005 163.506 142.675 163.144 142.439 162.668C142.203 162.192 142.085 161.61 142.085 160.922C142.085 160.274 142.195 159.706 142.415 159.218C142.635 158.73 142.957 158.352 143.381 158.084C143.805 157.812 144.323 157.676 144.935 157.676C145.507 157.676 146.003 157.802 146.423 158.054C146.843 158.302 147.169 158.668 147.401 159.152C147.637 159.636 147.755 160.226 147.755 160.922C147.755 161.554 147.647 162.11 147.431 162.59C147.215 163.07 146.897 163.446 146.477 163.718C146.061 163.986 145.545 164.12 144.929 164.12ZM144.935 163.244C145.303 163.244 145.615 163.15 145.871 162.962C146.127 162.774 146.321 162.504 146.453 162.152C146.589 161.8 146.657 161.382 146.657 160.898C146.657 160.454 146.597 160.056 146.477 159.704C146.361 159.348 146.177 159.066 145.925 158.858C145.673 158.65 145.343 158.546 144.935 158.546C144.559 158.546 144.241 158.64 143.981 158.828C143.721 159.012 143.523 159.28 143.387 159.632C143.255 159.984 143.189 160.406 143.189 160.898C143.189 161.334 143.247 161.73 143.363 162.086C143.483 162.442 143.671 162.724 143.927 162.932C144.187 163.14 144.523 163.244 144.935 163.244ZM149.29 164V157.796H150.364V158.696C150.464 158.524 150.602 158.362 150.778 158.21C150.958 158.058 151.174 157.936 151.426 157.844C151.682 157.752 151.976 157.706 152.308 157.706C152.7 157.706 153.06 157.784 153.388 157.94C153.72 158.096 153.984 158.34 154.18 158.672C154.38 159 154.48 159.424 154.48 159.944V164H153.37V160.052C153.37 159.568 153.242 159.21 152.986 158.978C152.734 158.742 152.406 158.624 152.002 158.624C151.722 158.624 151.46 158.67 151.216 158.762C150.972 158.85 150.774 158.986 150.622 159.17C150.47 159.35 150.394 159.578 150.394 159.854V164H149.29ZM161.528 164.03C161.1 164.03 160.768 163.972 160.532 163.856C160.296 163.74 160.13 163.568 160.034 163.34C159.942 163.112 159.896 162.832 159.896 162.5V158.606H158.888V157.796H159.926L160.196 155.99H161.012V157.79H162.41V158.606H161.012V162.464C161.012 162.684 161.034 162.846 161.078 162.95C161.126 163.05 161.204 163.114 161.312 163.142C161.42 163.17 161.572 163.184 161.768 163.184H162.446V163.928C162.37 163.956 162.254 163.98 162.098 164C161.946 164.02 161.756 164.03 161.528 164.03ZM163.978 164V155.084H165.058V158.708C165.162 158.536 165.302 158.376 165.478 158.228C165.654 158.076 165.868 157.954 166.12 157.862C166.372 157.766 166.664 157.718 166.996 157.718C167.4 157.718 167.766 157.794 168.094 157.946C168.422 158.094 168.682 158.306 168.874 158.582C169.066 158.858 169.162 159.186 169.162 159.566V164H168.052V159.788C168.052 159.416 167.924 159.13 167.668 158.93C167.416 158.726 167.086 158.624 166.678 158.624C166.402 158.624 166.142 158.67 165.898 158.762C165.654 158.85 165.456 158.986 165.304 159.17C165.156 159.35 165.082 159.58 165.082 159.86V164H163.978ZM170.982 164V157.796H172.056V164H170.982ZM170.952 156.482V155.33H172.086V156.482H170.952ZM176.209 164.12C175.777 164.12 175.375 164.054 175.003 163.922C174.635 163.786 174.329 163.576 174.085 163.292C173.841 163.004 173.689 162.638 173.629 162.194H174.637C174.689 162.438 174.789 162.642 174.937 162.806C175.085 162.966 175.267 163.088 175.483 163.172C175.703 163.252 175.943 163.292 176.203 163.292C176.623 163.292 176.961 163.214 177.217 163.058C177.473 162.902 177.601 162.662 177.601 162.338C177.601 162.11 177.533 161.928 177.397 161.792C177.265 161.652 177.057 161.55 176.773 161.486L175.489 161.168C174.989 161.048 174.589 160.86 174.289 160.604C173.993 160.348 173.843 159.99 173.839 159.53C173.839 159.166 173.927 158.846 174.103 158.57C174.279 158.294 174.541 158.076 174.889 157.916C175.241 157.756 175.679 157.676 176.203 157.676C176.879 157.676 177.423 157.828 177.835 158.132C178.247 158.432 178.463 158.874 178.483 159.458H177.499C177.459 159.162 177.327 158.928 177.103 158.756C176.879 158.58 176.575 158.492 176.191 158.492C175.799 158.492 175.477 158.572 175.225 158.732C174.977 158.888 174.853 159.132 174.853 159.464C174.853 159.684 174.941 159.858 175.117 159.986C175.297 160.11 175.557 160.214 175.897 160.298L177.145 160.61C177.429 160.686 177.665 160.786 177.853 160.91C178.041 161.034 178.189 161.172 178.297 161.324C178.405 161.476 178.481 161.636 178.525 161.804C178.573 161.968 178.597 162.126 178.597 162.278C178.597 162.658 178.503 162.986 178.315 163.262C178.127 163.534 177.855 163.746 177.499 163.898C177.143 164.046 176.713 164.12 176.209 164.12ZM184.282 164L182.362 157.796H183.394L184.81 162.566H184.906L186.304 157.796H187.144L188.596 162.554H188.698L190.054 157.796H191.098L189.214 164H188.122L186.712 159.422L185.362 164H184.282ZM194.896 164.12C194.32 164.12 193.812 163.994 193.372 163.742C192.932 163.49 192.588 163.128 192.34 162.656C192.092 162.184 191.968 161.618 191.968 160.958C191.968 160.306 192.08 159.734 192.304 159.242C192.528 158.75 192.852 158.366 193.276 158.09C193.704 157.814 194.218 157.676 194.818 157.676C195.402 157.676 195.896 157.802 196.3 158.054C196.704 158.306 197.01 158.662 197.218 159.122C197.43 159.578 197.536 160.12 197.536 160.748V161.156H193.09C193.09 161.548 193.154 161.904 193.282 162.224C193.414 162.54 193.612 162.792 193.876 162.98C194.14 163.168 194.474 163.262 194.878 163.262C195.274 163.262 195.614 163.17 195.898 162.986C196.186 162.802 196.37 162.536 196.45 162.188H197.494C197.422 162.608 197.254 162.962 196.99 163.25C196.73 163.538 196.416 163.756 196.048 163.904C195.684 164.048 195.3 164.12 194.896 164.12ZM193.096 160.406H196.468C196.468 160.05 196.408 159.73 196.288 159.446C196.168 159.158 195.984 158.932 195.736 158.768C195.492 158.6 195.184 158.516 194.812 158.516C194.424 158.516 194.102 158.61 193.846 158.798C193.59 158.982 193.4 159.22 193.276 159.512C193.152 159.8 193.092 160.098 193.096 160.406ZM202.197 164.12C201.833 164.12 201.525 164.072 201.273 163.976C201.025 163.88 200.821 163.758 200.661 163.61C200.501 163.458 200.377 163.304 200.289 163.148C200.201 162.988 200.137 162.848 200.097 162.728L199.977 164H199.131V155.084H200.247V158.78C200.299 158.676 200.377 158.562 200.481 158.438C200.589 158.314 200.727 158.194 200.895 158.078C201.063 157.962 201.261 157.866 201.489 157.79C201.721 157.714 201.985 157.676 202.281 157.676C203.057 157.676 203.673 157.946 204.129 158.486C204.589 159.026 204.819 159.822 204.819 160.874C204.819 161.526 204.721 162.096 204.525 162.584C204.329 163.068 204.037 163.446 203.649 163.718C203.261 163.986 202.777 164.12 202.197 164.12ZM201.999 163.268C202.503 163.268 202.913 163.074 203.229 162.686C203.545 162.294 203.703 161.672 203.703 160.82C203.703 160.096 203.555 159.536 203.259 159.14C202.967 158.74 202.539 158.54 201.975 158.54C201.563 158.54 201.231 158.63 200.979 158.81C200.731 158.986 200.547 159.244 200.427 159.584C200.311 159.924 200.251 160.336 200.247 160.82C200.247 161.688 200.381 162.314 200.649 162.698C200.921 163.078 201.371 163.268 201.999 163.268ZM208.548 164.12C208.116 164.12 207.714 164.054 207.342 163.922C206.974 163.786 206.668 163.576 206.424 163.292C206.18 163.004 206.028 162.638 205.968 162.194H206.976C207.028 162.438 207.128 162.642 207.276 162.806C207.424 162.966 207.606 163.088 207.822 163.172C208.042 163.252 208.282 163.292 208.542 163.292C208.962 163.292 209.3 163.214 209.556 163.058C209.812 162.902 209.94 162.662 209.94 162.338C209.94 162.11 209.872 161.928 209.736 161.792C209.604 161.652 209.396 161.55 209.112 161.486L207.828 161.168C207.328 161.048 206.928 160.86 206.628 160.604C206.332 160.348 206.182 159.99 206.178 159.53C206.178 159.166 206.266 158.846 206.442 158.57C206.618 158.294 206.88 158.076 207.228 157.916C207.58 157.756 208.018 157.676 208.542 157.676C209.218 157.676 209.762 157.828 210.174 158.132C210.586 158.432 210.802 158.874 210.822 159.458H209.838C209.798 159.162 209.666 158.928 209.442 158.756C209.218 158.58 208.914 158.492 208.53 158.492C208.138 158.492 207.816 158.572 207.564 158.732C207.316 158.888 207.192 159.132 207.192 159.464C207.192 159.684 207.28 159.858 207.456 159.986C207.636 160.11 207.896 160.214 208.236 160.298L209.484 160.61C209.768 160.686 210.004 160.786 210.192 160.91C210.38 161.034 210.528 161.172 210.636 161.324C210.744 161.476 210.82 161.636 210.864 161.804C210.912 161.968 210.936 162.126 210.936 162.278C210.936 162.658 210.842 162.986 210.654 163.262C210.466 163.534 210.194 163.746 209.838 163.898C209.482 164.046 209.052 164.12 208.548 164.12ZM212.476 164V157.796H213.55V164H212.476ZM212.446 156.482V155.33H213.58V156.482H212.446ZM217.745 164.03C217.317 164.03 216.985 163.972 216.749 163.856C216.513 163.74 216.347 163.568 216.251 163.34C216.159 163.112 216.113 162.832 216.113 162.5V158.606H215.105V157.796H216.143L216.413 155.99H217.229V157.79H218.627V158.606H217.229V162.464C217.229 162.684 217.251 162.846 217.295 162.95C217.343 163.05 217.421 163.114 217.529 163.142C217.637 163.17 217.789 163.184 217.985 163.184H218.663V163.928C218.587 163.956 218.471 163.98 218.315 164C218.163 164.02 217.973 164.03 217.745 164.03ZM222.653 164.12C222.077 164.12 221.569 163.994 221.129 163.742C220.689 163.49 220.345 163.128 220.097 162.656C219.849 162.184 219.725 161.618 219.725 160.958C219.725 160.306 219.837 159.734 220.061 159.242C220.285 158.75 220.609 158.366 221.033 158.09C221.461 157.814 221.975 157.676 222.575 157.676C223.159 157.676 223.653 157.802 224.057 158.054C224.461 158.306 224.767 158.662 224.975 159.122C225.187 159.578 225.293 160.12 225.293 160.748V161.156H220.847C220.847 161.548 220.911 161.904 221.039 162.224C221.171 162.54 221.369 162.792 221.633 162.98C221.897 163.168 222.231 163.262 222.635 163.262C223.031 163.262 223.371 163.17 223.655 162.986C223.943 162.802 224.127 162.536 224.207 162.188H225.251C225.179 162.608 225.011 162.962 224.747 163.25C224.487 163.538 224.173 163.756 223.805 163.904C223.441 164.048 223.057 164.12 222.653 164.12ZM220.853 160.406H224.225C224.225 160.05 224.165 159.73 224.045 159.446C223.925 159.158 223.741 158.932 223.493 158.768C223.249 158.6 222.941 158.516 222.569 158.516C222.181 158.516 221.859 158.61 221.603 158.798C221.347 158.982 221.157 159.22 221.033 159.512C220.909 159.8 220.849 160.098 220.853 160.406Z" fill="#1E293B"/>
<path d="M319.5 160C319.5 153.649 324.649 148.5 331 148.5H351C357.351 148.5 362.5 153.649 362.5 160C362.5 166.351 357.351 171.5 351 171.5H331C324.649 171.5 319.5 166.351 319.5 160Z" fill="#3B5B63"/>
<path d="M319.5 160C319.5 153.649 324.649 148.5 331 148.5H351C357.351 148.5 362.5 153.649 362.5 160C362.5 166.351 357.351 171.5 351 171.5H331C324.649 171.5 319.5 166.351 319.5 160Z" stroke="#374E53"/>
<g filter="url(#filter3_dd_6214_585)">
<path d="M341 160C341 154.477 345.477 150 351 150C356.523 150 361 154.477 361 160C361 165.523 356.523 170 351 170C345.477 170 341 165.523 341 160Z" fill="white" shape-rendering="crispEdges"/>
<path fill-rule="evenodd" clip-rule="evenodd" d="M354.997 156.718C355.153 156.854 355.169 157.091 355.032 157.247L349.782 163.247C349.714 163.325 349.616 163.371 349.512 163.375C349.409 163.378 349.308 163.339 349.235 163.265L346.985 161.015C346.838 160.869 346.838 160.631 346.985 160.485C347.131 160.338 347.369 160.338 347.515 160.485L349.482 162.451L354.468 156.753C354.604 156.597 354.841 156.581 354.997 156.718Z" fill="#374E53"/>
</g>
</g>
</g>
<path d="M93 99.5C86.0964 99.5 80.5 105.096 80.5 112V168C80.5 174.904 86.0964 180.5 93 180.5H359C365.904 180.5 371.5 174.904 371.5 168V112C371.5 105.096 365.904 99.5 359 99.5H93Z" stroke="url(#paint6_linear_6214_585)"/>
<rect y="338" width="495" height="82" fill="url(#paint7_linear_6214_585)"/>
</g>
</g>
<defs>
<filter id="filter0_d_6214_585" x="-4" y="0" width="413" height="488" filterUnits="userSpaceOnUse" color-interpolation-filters="sRGB">
<feFlood flood-opacity="0" result="BackgroundImageFix"/>
<feColorMatrix in="SourceAlpha" type="matrix" values="0 0 0 0 0 0 0 0 0 0 0 0 0 0 0 0 0 0 127 0" result="hardAlpha"/>
<feOffset dy="4"/>
<feGaussianBlur stdDeviation="2"/>
<feComposite in2="hardAlpha" operator="out"/>
<feColorMatrix type="matrix" values="0 0 0 0 0 0 0 0 0 0 0 0 0 0 0 0 0 0 0.25 0"/>
<feBlend mode="normal" in2="BackgroundImageFix" result="effect1_dropShadow_6214_585"/>
<feBlend mode="normal" in="SourceGraphic" in2="effect1_dropShadow_6214_585" result="shape"/>
</filter>
<filter id="filter1_f_6214_585" x="46" y="65" width="360" height="150" filterUnits="userSpaceOnUse" color-interpolation-filters="sRGB">
<feFlood flood-opacity="0" result="BackgroundImageFix"/>
<feBlend mode="normal" in="SourceGraphic" in2="BackgroundImageFix" result="shape"/>
<feGaussianBlur stdDeviation="15" result="effect1_foregroundBlur_6214_585"/>
</filter>
<filter id="filter2_dd_6214_585" x="339" y="109" width="24" height="24" filterUnits="userSpaceOnUse" color-interpolation-filters="sRGB">
<feFlood flood-opacity="0" result="BackgroundImageFix"/>
<feColorMatrix in="SourceAlpha" type="matrix" values="0 0 0 0 0 0 0 0 0 0 0 0 0 0 0 0 0 0 127 0" result="hardAlpha"/>
<feOffset dy="1"/>
<feGaussianBlur stdDeviation="0.5"/>
<feComposite in2="hardAlpha" operator="out"/>
<feColorMatrix type="matrix" values="0 0 0 0 0 0 0 0 0 0 0 0 0 0 0 0 0 0 0.06 0"/>
<feBlend mode="normal" in2="BackgroundImageFix" result="effect1_dropShadow_6214_585"/>
<feColorMatrix in="SourceAlpha" type="matrix" values="0 0 0 0 0 0 0 0 0 0 0 0 0 0 0 0 0 0 127 0" result="hardAlpha"/>
<feOffset dy="1"/>
<feGaussianBlur stdDeviation="1"/>
<feComposite in2="hardAlpha" operator="out"/>
<feColorMatrix type="matrix" values="0 0 0 0 0 0 0 0 0 0 0 0 0 0 0 0 0 0 0.1 0"/>
<feBlend mode="normal" in2="effect1_dropShadow_6214_585" result="effect2_dropShadow_6214_585"/>
<feBlend mode="normal" in="SourceGraphic" in2="effect2_dropShadow_6214_585" result="shape"/>
</filter>
<filter id="filter3_dd_6214_585" x="339" y="149" width="24" height="24" filterUnits="userSpaceOnUse" color-interpolation-filters="sRGB">
<feFlood flood-opacity="0" result="BackgroundImageFix"/>
<feColorMatrix in="SourceAlpha" type="matrix" values="0 0 0 0 0 0 0 0 0 0 0 0 0 0 0 0 0 0 127 0" result="hardAlpha"/>
<feOffset dy="1"/>
<feGaussianBlur stdDeviation="0.5"/>
<feComposite in2="hardAlpha" operator="out"/>
<feColorMatrix type="matrix" values="0 0 0 0 0 0 0 0 0 0 0 0 0 0 0 0 0 0 0.06 0"/>
<feBlend mode="normal" in2="BackgroundImageFix" result="effect1_dropShadow_6214_585"/>
<feColorMatrix in="SourceAlpha" type="matrix" values="0 0 0 0 0 0 0 0 0 0 0 0 0 0 0 0 0 0 127 0" result="hardAlpha"/>
<feOffset dy="1"/>
<feGaussianBlur stdDeviation="1"/>
<feComposite in2="hardAlpha" operator="out"/>
<feColorMatrix type="matrix" values="0 0 0 0 0 0 0 0 0 0 0 0 0 0 0 0 0 0 0.1 0"/>
<feBlend mode="normal" in2="effect1_dropShadow_6214_585" result="effect2_dropShadow_6214_585"/>
<feBlend mode="normal" in="SourceGraphic" in2="effect2_dropShadow_6214_585" result="shape"/>
</filter>
<linearGradient id="paint0_linear_6214_585" x1="81.2923" y1="100" x2="365.877" y2="194.54" gradientUnits="userSpaceOnUse">
<stop stop-color="#F4B62B"/>
<stop offset="0.5" stop-color="#BC52AD"/>
<stop offset="1" stop-color="#4F868E"/>
</linearGradient>
<linearGradient id="paint1_linear_6214_585" x1="26" y1="113.5" x2="85" y2="113.5" gradientUnits="userSpaceOnUse">
<stop stop-color="white" stop-opacity="0"/>
<stop offset="1" stop-color="#020617" stop-opacity="0.15"/>
</linearGradient>
<linearGradient id="paint2_linear_6214_585" x1="14" y1="126.5" x2="85" y2="126.5" gradientUnits="userSpaceOnUse">
<stop stop-color="white" stop-opacity="0"/>
<stop offset="1" stop-color="#020617" stop-opacity="0.25"/>
</linearGradient>
<linearGradient id="paint3_linear_6214_585" x1="0" y1="139.5" x2="85" y2="139.5" gradientUnits="userSpaceOnUse">
<stop stop-color="white" stop-opacity="0"/>
<stop offset="1" stop-color="#020617" stop-opacity="0.35"/>
</linearGradient>
<linearGradient id="paint4_linear_6214_585" x1="22" y1="152.5" x2="85" y2="152.5" gradientUnits="userSpaceOnUse">
<stop stop-color="white" stop-opacity="0"/>
<stop offset="1" stop-color="#020617" stop-opacity="0.35"/>
</linearGradient>
<linearGradient id="paint5_linear_6214_585" x1="37" y1="165.5" x2="85" y2="165.5" gradientUnits="userSpaceOnUse">
<stop stop-color="white" stop-opacity="0"/>
<stop offset="1" stop-color="#020617" stop-opacity="0.15"/>
</linearGradient>
<linearGradient id="paint6_linear_6214_585" x1="81.2923" y1="100" x2="365.877" y2="194.54" gradientUnits="userSpaceOnUse">
<stop stop-color="#F4B62B"/>
<stop offset="0.5" stop-color="#BC52AD"/>
<stop offset="1" stop-color="#4F868E"/>
</linearGradient>
<linearGradient id="paint7_linear_6214_585" x1="247.5" y1="338" x2="247.5" y2="370.087" gradientUnits="userSpaceOnUse">
<stop stop-color="white" stop-opacity="0.05"/>
<stop offset="1" stop-color="white"/>
</linearGradient>
<clipPath id="clip0_6214_585">
<rect width="403" height="420" fill="white"/>
</clipPath>
<clipPath id="clip1_6214_585">
<rect width="403" height="135" fill="white"/>
</clipPath>
<clipPath id="clip2_6214_585">
<rect width="78" height="16" fill="white" transform="translate(63 59.5)"/>
</clipPath>
<clipPath id="clip3_6214_585">
<path d="M81 112C81 105.373 86.3726 100 93 100H359C365.627 100 371 105.373 371 112V168C371 174.627 365.627 180 359 180H93C86.3726 180 81 174.627 81 168V112Z" fill="white"/>
</clipPath>
</defs>
</svg>
