<svg width="55" height="54" viewBox="0 0 55 54" fill="none" xmlns="http://www.w3.org/2000/svg">
<path d="M54.3129 18.8536C54.3132 20.2035 53.8569 21.5132 53.0192 22.5667C52.1815 23.6202 51.0125 24.3546 49.705 24.6487C48.3974 24.9428 47.0294 24.7791 45.8266 24.1847C44.6238 23.5902 43.658 22.6004 43.0884 21.3786L27.05 24.6643C27.0605 24.8239 27.068 24.9847 27.068 25.1467C27.0681 25.6293 27.0193 26.1107 26.9223 26.5834L31.1966 28.0914C31.7805 27.1104 32.705 26.3826 33.791 26.0489C34.8769 25.7152 36.0471 25.7994 37.0751 26.2851C38.103 26.7709 38.9154 27.6236 39.3552 28.6783C39.7949 29.7329 39.8307 30.9145 39.4555 31.9941C39.0803 33.0738 38.3208 33.9748 37.3242 34.5227C36.3275 35.0706 35.1645 35.2264 34.0604 34.9599C32.9563 34.6935 31.9896 34.0237 31.3474 33.0804C30.7053 32.137 30.4333 30.9871 30.5843 29.8533L26.3072 28.3446C25.877 29.1963 25.2812 29.9519 24.5551 30.5667L30.8809 40.6062C31.7585 40.3137 32.7119 40.3544 33.5618 40.7207C34.4117 41.087 35.0994 41.7536 35.4956 42.5951C35.8918 43.4366 35.9691 44.3949 35.7131 45.2899C35.457 46.1848 34.8852 46.9546 34.1052 47.4544C33.3252 47.9542 32.3908 48.1496 31.4779 48.0038C30.5649 47.858 29.7363 47.3811 29.1479 46.6628C28.5595 45.9444 28.2519 45.0342 28.2831 44.1034C28.3142 43.1725 28.6818 42.2852 29.3168 41.6084L22.9916 31.5678C21.7282 32.1585 20.3187 32.3561 18.9432 32.1355L17.577 36.7515C18.3627 37.2238 18.9517 37.9672 19.2349 38.8438C19.518 39.7204 19.476 40.6707 19.1167 41.5185C18.7574 42.3663 18.1052 43.054 17.2809 43.4541C16.4567 43.8542 15.5164 43.9396 14.6345 43.6944C13.7526 43.4492 12.9888 42.89 12.4849 42.1206C11.9809 41.3512 11.771 40.4238 11.8941 39.5103C12.0171 38.5969 12.4647 37.7593 13.154 37.1531C13.8432 36.5469 14.7273 36.2131 15.6422 36.2136C15.6955 36.2136 15.7484 36.2136 15.8012 36.2177L17.1708 31.5999C16.293 31.2013 15.5055 30.6259 14.8568 29.9091C14.208 29.1922 13.7117 28.3492 13.3985 27.4319L8.96238 27.9657C8.84424 28.8875 8.39592 29.7339 7.70175 30.3459C7.00757 30.958 6.11538 31.2933 5.193 31.2889C4.27061 31.2845 3.3816 30.9407 2.69319 30.3221C2.00477 29.7036 1.5644 28.8529 1.4549 27.93C1.3454 27.0072 1.57432 26.0759 2.0986 25.3112C2.62288 24.5466 3.40639 24.0013 4.30175 23.7779C5.19711 23.5546 6.14262 23.6685 6.96042 24.0984C7.77822 24.5283 8.41196 25.2444 8.74243 26.1121L13.037 25.5952C13.0277 25.4466 13.0213 25.297 13.0213 25.1461C13.0202 23.6834 13.4716 22.2568 14.3126 21.0646L9.73424 16.6106C8.55234 17.5075 7.07839 17.9227 5.60621 17.7734C4.13403 17.6241 2.77175 16.9213 1.79095 15.805C0.810153 14.6888 0.282871 13.2411 0.314218 11.7506C0.345566 10.2601 0.933241 8.83627 1.96009 7.7629C2.98694 6.68953 4.37754 6.04549 5.85468 5.95917C7.33182 5.87285 8.78699 6.35058 9.93011 7.29715C11.0732 8.24371 11.8203 9.58956 12.0225 11.0664C12.2247 12.5433 11.867 14.0427 11.0209 15.2657L15.5708 19.6939C16.7972 18.6691 18.3337 18.096 19.9268 18.0693C21.5199 18.0427 23.0744 18.5639 24.334 19.5472L27.0802 16.2837C26.3398 15.346 25.9723 14.1642 26.0492 12.9685C26.1261 11.7727 26.6419 10.6486 27.4962 9.81502C28.3505 8.98142 29.4821 8.49799 30.6707 8.45885C31.8593 8.41971 33.0198 8.82767 33.9263 9.6033C34.8327 10.3789 35.4203 11.4667 35.5745 12.6548C35.7287 13.8429 35.4386 15.0464 34.7605 16.0308C34.0825 17.0152 33.0652 17.7102 31.9066 17.9803C30.748 18.2505 29.5311 18.0766 28.4927 17.4924L25.6438 20.878C26.0902 21.4707 26.4407 22.1309 26.6821 22.834L42.5731 19.577C42.4742 18.7724 42.5399 17.956 42.7661 17.178C42.9923 16.4 43.3743 15.6769 43.8885 15.0533C44.4026 14.4297 45.0381 13.9189 45.7557 13.5522C46.4734 13.1855 47.2579 12.9708 48.061 12.9214C48.8641 12.8719 49.6688 12.9887 50.4254 13.2645C51.182 13.5403 51.8745 13.9694 52.4603 14.5252C53.046 15.081 53.5126 15.7518 53.8312 16.4962C54.1498 17.2406 54.3138 18.0429 54.3129 18.8536Z" fill="#C3DCDE"/>
<circle cx="20.0885" cy="25.125" r="6.62009" fill="#4F868E" stroke="url(#paint0_linear_6126_701)"/>
<circle cx="48.4297" cy="18.8473" r="5.92392" fill="#4F868E"/>
<circle cx="6.23886" cy="11.9051" r="5.34161" fill="#4F868E" stroke="url(#paint1_linear_6126_701)"/>
<circle cx="15.624" cy="40.0122" r="3.8125" fill="#4F868E"/>
<mask id="mask0_6126_701" style="mask-type:alpha" maskUnits="userSpaceOnUse" x="0" y="5" width="55" height="44">
<path d="M54.3129 18.8536C54.3132 20.2035 53.8569 21.5132 53.0192 22.5667C52.1815 23.6202 51.0125 24.3546 49.705 24.6487C48.3974 24.9428 47.0294 24.7791 45.8266 24.1847C44.6238 23.5902 43.658 22.6004 43.0884 21.3786L27.05 24.6643C27.0605 24.8239 27.068 24.9847 27.068 25.1467C27.0681 25.6293 27.0193 26.1107 26.9223 26.5834L31.1966 28.0914C31.7805 27.1104 32.705 26.3826 33.791 26.0489C34.8769 25.7152 36.0471 25.7994 37.0751 26.2851C38.103 26.7709 38.9154 27.6236 39.3552 28.6783C39.7949 29.7329 39.8307 30.9145 39.4555 31.9941C39.0803 33.0738 38.3208 33.9748 37.3242 34.5227C36.3275 35.0706 35.1646 35.2264 34.0604 34.9599C32.9563 34.6935 31.9896 34.0237 31.3474 33.0804C30.7053 32.137 30.4333 30.9871 30.5843 29.8533L26.3072 28.3446C25.877 29.1963 25.2812 29.9519 24.5551 30.5667L30.8809 40.6062C31.7585 40.3137 32.7119 40.3544 33.5618 40.7207C34.4117 41.087 35.0994 41.7536 35.4956 42.5951C35.8918 43.4366 35.9691 44.3949 35.7131 45.2899C35.457 46.1848 34.8852 46.9546 34.1052 47.4544C33.3252 47.9542 32.3908 48.1496 31.4779 48.0038C30.5649 47.858 29.7363 47.3811 29.1479 46.6628C28.5595 45.9444 28.2519 45.0342 28.2831 44.1034C28.3142 43.1725 28.6818 42.2852 29.3168 41.6084L22.9916 31.5678C21.7282 32.1585 20.3187 32.3561 18.9432 32.1355L17.577 36.7515C18.3627 37.2238 18.9517 37.9672 19.2349 38.8438C19.518 39.7204 19.476 40.6707 19.1167 41.5185C18.7574 42.3663 18.1052 43.054 17.2809 43.4541C16.4567 43.8542 15.5164 43.9396 14.6345 43.6944C13.7526 43.4492 12.9888 42.89 12.4849 42.1206C11.9809 41.3512 11.771 40.4238 11.8941 39.5103C12.0171 38.5969 12.4647 37.7593 13.154 37.1531C13.8432 36.5469 14.7273 36.2131 15.6422 36.2136C15.6955 36.2136 15.7484 36.2136 15.8012 36.2177L17.1708 31.5999C16.293 31.2013 15.5055 30.6259 14.8568 29.9091C14.208 29.1922 13.7117 28.3492 13.3985 27.4319L8.96238 27.9657C8.84424 28.8875 8.39592 29.7339 7.70175 30.3459C7.00757 30.958 6.11538 31.2933 5.193 31.2889C4.27061 31.2845 3.3816 30.9407 2.69319 30.3221C2.00477 29.7036 1.5644 28.8529 1.4549 27.93C1.3454 27.0072 1.57432 26.0759 2.0986 25.3112C2.62288 24.5466 3.40639 24.0013 4.30175 23.7779C5.19711 23.5546 6.14262 23.6685 6.96042 24.0984C7.77822 24.5283 8.41196 25.2444 8.74243 26.1121L13.037 25.5952C13.0277 25.4466 13.0213 25.297 13.0213 25.1461C13.0202 23.6834 13.4716 22.2568 14.3126 21.0646L9.73424 16.6106C8.55234 17.5075 7.07839 17.9227 5.60621 17.7734C4.13403 17.6241 2.77175 16.9213 1.79095 15.805C0.810153 14.6888 0.282871 13.2411 0.314218 11.7506C0.345566 10.2601 0.933241 8.83627 1.96009 7.7629C2.98694 6.68953 4.37754 6.04549 5.85468 5.95917C7.33182 5.87285 8.78699 6.35058 9.93011 7.29715C11.0732 8.24371 11.8203 9.58956 12.0225 11.0664C12.2247 12.5433 11.867 14.0427 11.0209 15.2657L15.5708 19.6939C16.7972 18.6691 18.3337 18.096 19.9268 18.0693C21.5199 18.0427 23.0744 18.5639 24.334 19.5472L27.0802 16.2837C26.3398 15.346 25.9723 14.1642 26.0492 12.9685C26.1261 11.7727 26.6419 10.6486 27.4962 9.81502C28.3505 8.98142 29.4821 8.49799 30.6707 8.45885C31.8593 8.41971 33.0198 8.82767 33.9263 9.6033C34.8327 10.3789 35.4203 11.4667 35.5745 12.6548C35.7287 13.8429 35.4386 15.0464 34.7605 16.0308C34.0825 17.0152 33.0652 17.7102 31.9066 17.9803C30.748 18.2505 29.5311 18.0766 28.4927 17.4924L25.6438 20.878C26.0902 21.4707 26.4407 22.1309 26.6821 22.834L42.5731 19.577C42.4742 18.7724 42.5399 17.956 42.7661 17.178C42.9923 16.4 43.3743 15.6769 43.8885 15.0533C44.4026 14.4297 45.0381 13.9189 45.7557 13.5522C46.4734 13.1855 47.2579 12.9708 48.061 12.9214C48.8641 12.8719 49.6688 12.9887 50.4254 13.2645C51.182 13.5403 51.8745 13.9694 52.4603 14.5252C53.046 15.081 53.5126 15.7518 53.8312 16.4962C54.1498 17.2406 54.3138 18.0429 54.3129 18.8536Z" fill="white"/>
</mask>
<g mask="url(#mask0_6126_701)">
<g opacity="0.35" filter="url(#filter0_f_6126_701)">
<path d="M36.8129 34.9492C51.4484 34.9492 63.3129 22.8609 63.3129 7.94922C63.3129 -6.96247 51.4484 -19.0508 36.8129 -19.0508C22.1774 -19.0508 10.3129 -6.96247 10.3129 7.94922C10.3129 22.8609 22.1774 34.9492 36.8129 34.9492Z" fill="#C3DCDE"/>
</g>
</g>
<defs>
<filter id="filter0_f_6126_701" x="-4.6871" y="-34.0508" width="83" height="84" filterUnits="userSpaceOnUse" color-interpolation-filters="sRGB">
<feFlood flood-opacity="0" result="BackgroundImageFix"/>
<feBlend mode="normal" in="SourceGraphic" in2="BackgroundImageFix" result="shape"/>
<feGaussianBlur stdDeviation="7.5" result="effect1_foregroundBlur_6126_701"/>
</filter>
<linearGradient id="paint0_linear_6126_701" x1="21.1987" y1="18.0049" x2="21.4959" y2="21.1929" gradientUnits="userSpaceOnUse">
<stop stop-color="#3B5B63"/>
<stop offset="1" stop-color="#4F868E"/>
</linearGradient>
<linearGradient id="paint1_linear_6126_701" x1="1.96999" y1="7.18686" x2="6.91289" y2="14.6012" gradientUnits="userSpaceOnUse">
<stop stop-color="#3B5B63"/>
<stop offset="1" stop-color="#4F868E"/>
</linearGradient>
</defs>
</svg>
