<svg width="55" height="54" viewBox="0 0 55 54" fill="none" xmlns="http://www.w3.org/2000/svg">
<path d="M0.666687 6C0.666687 2.68629 3.35298 0 6.66669 0H48.6667C51.9804 0 54.6667 2.68629 54.6667 6V48C54.6667 51.3137 51.9804 54 48.6667 54H6.66669C3.35298 54 0.666687 51.3137 0.666687 48V6Z" fill="#DFECEE"/>
<path d="M39.531 30.2932C39.532 33.9686 42.511 36.9491 46.1888 36.9491C46.705 36.9491 47.1243 37.3675 47.1243 37.8865V45.5625C47.1243 46.0801 46.7046 46.5 46.1888 46.5H38.5936C38.0769 46.5 37.6561 46.0792 37.6561 45.5625C37.6561 41.8863 34.6767 38.9048 30.9984 38.9048C27.322 38.9048 24.3406 41.8862 24.3406 45.5625C24.3406 46.0801 23.9209 46.5 23.4051 46.5H15.6867C15.17 46.5 14.7492 46.0792 14.7492 45.5625V39.2412V38.8178L14.3315 38.7481C11.6405 38.2989 9.32387 36.597 8.09127 34.1623L8.09119 34.1621C6.85852 31.7295 6.85852 28.8533 8.09119 26.4204L8.09125 26.4203C9.32406 23.9855 11.6406 22.2836 14.3316 21.8345L14.7492 21.7648V21.3413V15.02C14.7492 14.5033 15.17 14.0826 15.6867 14.0826H22.008H22.4315L22.5012 13.6649C22.9503 10.9738 24.6522 8.65718 27.0869 7.42458L27.0871 7.4245C29.5197 6.19184 32.396 6.19183 34.8288 7.42451L34.829 7.42457C37.2637 8.65737 38.9656 10.9739 39.4147 13.6649L39.4845 14.0826H39.9079H46.2292C46.7459 14.0826 47.1667 14.5033 47.1667 15.02V22.6556C47.1667 23.1718 46.7468 23.5922 46.2309 23.5931C44.4508 23.5811 42.7392 24.2821 41.4806 25.5426C40.22 26.8013 39.519 28.5131 39.531 30.2932ZM39.531 30.2932C39.531 30.2926 39.531 30.2919 39.531 30.2913H40.031L39.531 30.2948C39.531 30.2943 39.531 30.2937 39.531 30.2932Z" fill="#4F868E" stroke="url(#paint0_linear_6126_28)"/>
<mask id="mask0_6126_28" style="mask-type:alpha" maskUnits="userSpaceOnUse" x="6" y="6" width="42" height="41">
<path d="M40.031 30.2913C40.031 33.6915 42.7866 36.4491 46.1888 36.4491C46.9816 36.4491 47.6243 37.0918 47.6243 37.8865V45.5625C47.6243 46.3554 46.9816 47 46.1888 47H38.5936C37.8007 47 37.1561 46.3554 37.1561 45.5625C37.1561 42.1623 34.4005 39.4048 30.9984 39.4048C27.5981 39.4048 24.8406 42.1623 24.8406 45.5625C24.8406 46.3554 24.1979 47 23.4051 47H15.6867C14.8939 47 14.2492 46.3554 14.2492 45.5625V39.2412C11.4013 38.7659 8.94963 36.9648 7.64518 34.3881C6.34052 31.8134 6.34052 28.7693 7.64518 26.1944C8.94983 23.6178 11.4014 21.8166 14.2492 21.3413V15.02C14.2492 14.2272 14.8939 13.5826 15.6867 13.5826H22.008C22.4833 10.7346 24.2844 8.28295 26.8611 6.97849C29.4358 5.67384 32.4799 5.67384 35.0548 6.97849C37.6315 8.28314 39.4326 10.7347 39.9079 13.5826H46.2292C47.022 13.5826 47.6667 14.2272 47.6667 15.02V22.6556C47.6667 23.4484 47.022 24.0931 46.2292 24.0931C44.582 24.0815 42.9983 24.73 41.8341 25.8962C40.668 27.0604 40.0195 28.6441 40.031 30.2913Z" fill="#4F868E"/>
</mask>
<g mask="url(#mask0_6126_28)">
<g opacity="0.35" filter="url(#filter0_f_6126_28)">
<path d="M49.1667 31C63.8022 31 75.6667 18.9117 75.6667 4C75.6667 -10.9117 63.8022 -23 49.1667 -23C34.5311 -23 22.6667 -10.9117 22.6667 4C22.6667 18.9117 34.5311 31 49.1667 31Z" fill="#C3DCDE"/>
</g>
</g>
<defs>
<filter id="filter0_f_6126_28" x="7.66669" y="-38" width="83" height="84" filterUnits="userSpaceOnUse" color-interpolation-filters="sRGB">
<feFlood flood-opacity="0" result="BackgroundImageFix"/>
<feBlend mode="normal" in="SourceGraphic" in2="BackgroundImageFix" result="shape"/>
<feGaussianBlur stdDeviation="7.5" result="effect1_foregroundBlur_6126_28"/>
</filter>
<linearGradient id="paint0_linear_6126_28" x1="12.1859" y1="9.94231" x2="29.5321" y2="35.9615" gradientUnits="userSpaceOnUse">
<stop stop-color="#3B5B63"/>
<stop offset="1" stop-color="#4F868E"/>
</linearGradient>
</defs>
</svg>
