<svg width="54" height="54" viewBox="0 0 54 54" fill="none" xmlns="http://www.w3.org/2000/svg">
<path d="M28 6C28 3.79086 29.7909 2 32 2H48C50.2091 2 52 3.79086 52 6V22C52 24.2091 50.2091 26 48 26H32C29.7909 26 28 24.2091 28 22V6Z" fill="#4F868E"/>
<path d="M0.5 4C0.5 2.067 2.067 0.5 4 0.5H22C23.933 0.5 25.5 2.067 25.5 4V22C25.5 23.933 23.933 25.5 22 25.5H4C2.067 25.5 0.5 23.933 0.5 22V4Z" fill="#4F868E" stroke="url(#paint0_linear_6126_377)"/>
<path d="M4 32C4 29.7909 5.79086 28 8 28H22C24.2091 28 26 29.7909 26 32V46C26 48.2091 24.2091 50 22 50H8C5.79086 50 4 48.2091 4 46V32Z" fill="#4F868E"/>
<path d="M28 32C28 29.7909 29.7909 28 32 28H50C52.2091 28 54 29.7909 54 32V50C54 52.2091 52.2091 54 50 54H32C29.7909 54 28 52.2091 28 50V32Z" fill="#4F868E"/>
<mask id="mask0_6126_377" style="mask-type:alpha" maskUnits="userSpaceOnUse" x="0" y="0" width="54" height="54">
<path d="M28 6C28 3.79086 29.7909 2 32 2H48C50.2091 2 52 3.79086 52 6V22C52 24.2091 50.2091 26 48 26H32C29.7909 26 28 24.2091 28 22V6Z" fill="white"/>
<path d="M0 4C0 1.79086 1.79086 0 4 0H22C24.2091 0 26 1.79086 26 4V22C26 24.2091 24.2091 26 22 26H4C1.79086 26 0 24.2091 0 22V4Z" fill="white"/>
<path d="M4 32C4 29.7909 5.79086 28 8 28H22C24.2091 28 26 29.7909 26 32V46C26 48.2091 24.2091 50 22 50H8C5.79086 50 4 48.2091 4 46V32Z" fill="white"/>
<path d="M28 32C28 29.7909 29.7909 28 32 28H50C52.2091 28 54 29.7909 54 32V50C54 52.2091 52.2091 54 50 54H32C29.7909 54 28 52.2091 28 50V32Z" fill="white"/>
</mask>
<g mask="url(#mask0_6126_377)">
<g opacity="0.35" filter="url(#filter0_f_6126_377)">
<path d="M48.5 31C63.1355 31 75 18.9117 75 4C75 -10.9117 63.1355 -23 48.5 -23C33.8645 -23 22 -10.9117 22 4C22 18.9117 33.8645 31 48.5 31Z" fill="#C3DCDE"/>
</g>
</g>
<g opacity="0.8">
<path fill-rule="evenodd" clip-rule="evenodd" d="M34.9542 45.1122H47.0462V36.9798H34.9542V45.1122ZM48.0231 47.092H33.9774C33.4379 47.092 33 46.6504 33 46.1022L33.0005 35.9899C33.0005 35.4435 33.4376 35.0001 33.9769 35.0001L48.0231 35C48.5627 35 48.9998 35.4435 48.9998 35.99L49 46.1021C49 46.6503 48.5621 47.0921 48.0231 47.092Z" fill="white"/>
<path fill-rule="evenodd" clip-rule="evenodd" d="M39.9544 40.7008V41.3934L40.8718 41.0461L39.9544 40.7008ZM38.9775 43.8097C38.7822 43.8097 38.5868 43.7496 38.4206 43.6327C38.1579 43.447 38 43.1429 38 42.8199L38.0007 39.2743C38.0007 38.9496 38.1578 38.6471 38.4206 38.4615C38.6837 38.2759 39.0194 38.2329 39.3196 38.3463L43.0092 40.1199C43.3924 40.2642 43.6449 40.6338 43.6449 41.0462C43.645 41.4604 43.392 41.8299 43.0088 41.9743L39.3202 43.7462C39.208 43.7891 39.0923 43.8098 38.9775 43.8097Z" fill="white"/>
</g>
<g opacity="0.8">
<path fill-rule="evenodd" clip-rule="evenodd" d="M36.5642 20.2244C35.9797 20.2244 35.5054 19.7441 35.5054 19.1521L35.506 9.20542C35.506 8.70472 35.8453 8.27284 36.3265 8.15928L45.4407 6.02764C45.7548 5.95321 46.0853 6.03142 46.337 6.23431C46.5913 6.43715 46.7376 6.74626 46.7376 7.07395L46.7378 17.7297C46.7378 18.3236 46.2636 18.8022 45.6794 18.8022C45.0959 18.802 44.6212 18.3237 44.6212 17.7299L44.6214 8.42164L37.6224 10.058V19.1522C37.6224 19.7441 37.1477 20.2244 36.5642 20.2244Z" fill="white"/>
<path fill-rule="evenodd" clip-rule="evenodd" d="M34.8116 18.448C34.4288 18.448 34.1164 18.7628 34.1164 19.1518C34.1172 19.5389 34.4287 19.8555 34.8109 19.8555C35.1952 19.8554 35.5054 19.5394 35.5054 19.1521C35.506 18.763 35.1949 18.4481 34.8116 18.448ZM34.8116 22C33.2607 22 32 20.7212 32 19.1518C32.0008 17.5806 33.2604 16.3035 34.8109 16.3035C36.3617 16.3034 37.6224 17.5809 37.6224 19.1522C37.6231 20.7214 36.3615 22 34.8116 22Z" fill="white"/>
<path fill-rule="evenodd" clip-rule="evenodd" d="M43.9269 17.026C43.5433 17.026 43.2306 17.3426 43.2306 17.7298C43.2308 18.1188 43.5428 18.4335 43.9268 18.4335C44.3089 18.4334 44.6212 18.1189 44.6212 17.7299C44.6214 17.3425 44.3089 17.0261 43.9269 17.026ZM43.9269 20.578C42.3768 20.578 41.1142 19.301 41.1142 17.7298C41.1144 16.1605 42.3762 14.8815 43.9268 14.8815C45.4762 14.8814 46.7378 16.1604 46.7378 17.7297C46.738 19.3009 45.4754 20.5781 43.9269 20.578Z" fill="white"/>
</g>
<g opacity="0.8">
<path fill-rule="evenodd" clip-rule="evenodd" d="M15.0004 32.8205C11.5931 32.8205 8.82061 35.5926 8.82061 39C8.82097 42.4072 11.5927 45.1793 15 45.1793C18.4076 45.1793 21.1794 42.4073 21.1794 39C21.1799 35.5926 18.4074 32.8206 15.0004 32.8205ZM15.0004 47C10.5896 47 7 43.4109 7 39C7.00036 34.5891 10.5891 31 15 31C19.4111 30.9999 23 34.5891 23 39C23.0005 43.4108 19.4109 47 15.0004 47Z" fill="white"/>
<path fill-rule="evenodd" clip-rule="evenodd" d="M19.8209 45.1096C19.5663 45.1096 19.3115 45.0022 19.1312 44.7952C17.8153 43.2716 17.0894 41.214 17.0894 38.9999C17.0899 36.7857 17.8149 34.728 19.1312 33.2045C19.4603 32.8252 20.0353 32.7826 20.4162 33.1113C20.7959 33.4399 20.8381 34.0153 20.5094 34.3961C19.4937 35.5719 18.91 37.2488 18.91 38.9999C18.9106 40.7509 19.4932 42.4278 20.5094 43.6036C20.8386 43.9844 20.7954 44.5597 20.4162 44.8884C20.244 45.037 20.032 45.1097 19.8209 45.1096Z" fill="white"/>
<path fill-rule="evenodd" clip-rule="evenodd" d="M10.1786 45.1096C9.96799 45.1096 9.7562 45.037 9.58396 44.8884C9.20355 44.5597 9.16195 43.9845 9.49062 43.6035C10.5072 42.4278 11.0901 40.751 11.0901 38.9998C11.0903 37.2487 10.507 35.5719 9.49062 34.3961C9.16231 34.0152 9.20309 33.44 9.58396 33.1113C9.96519 32.7825 10.5401 32.8252 10.8688 33.2045C12.1855 34.7279 12.9107 36.7857 12.9107 38.9998C12.9109 41.2139 12.1854 43.2717 10.8688 44.7952C10.6893 45.0022 10.4342 45.1097 10.1786 45.1096Z" fill="white"/>
</g>
<g opacity="0.8">
<path fill-rule="evenodd" clip-rule="evenodd" d="M6.8016 17.9748H19.2003V16.0197H6.8016V17.9748ZM20.0995 19.8H5.90094C5.40215 19.8 5 19.3929 5 18.8875L5.00035 15.1071C5.00035 14.6033 5.4018 14.1945 5.90059 14.1945L20.0994 14.1945C20.5982 14.1945 20.9995 14.6033 20.9995 15.1071L21 18.8874C21 19.3929 20.5977 19.8001 20.0995 19.8Z" fill="white"/>
<path fill-rule="evenodd" clip-rule="evenodd" d="M20.0995 16.0198C19.602 16.0198 19.1999 15.6127 19.1999 15.1073C19.2003 11.6438 16.4184 8.82523 12.999 8.82523C9.58152 8.82518 6.80118 11.6439 6.80118 15.1073C6.80153 15.6127 6.39787 16.0199 5.90059 16.0199C5.40216 16.0198 5.00035 15.6125 5.00035 15.1071C5.00071 10.6375 8.58827 7 12.999 7C17.4117 7 20.9995 10.6376 20.9995 15.1071C21 15.6125 20.5977 16.0199 20.0995 16.0198Z" fill="white"/>
<path fill-rule="evenodd" clip-rule="evenodd" d="M11.0619 13.3911H10.7713C10.2738 13.3911 9.87043 12.9824 9.87043 12.4786C9.87068 11.9747 10.2738 11.566 10.771 11.566H11.0619C11.5593 11.566 11.9624 11.9748 11.9624 12.4786C11.9625 12.9824 11.5591 13.3912 11.0619 13.3911Z" fill="white"/>
<path fill-rule="evenodd" clip-rule="evenodd" d="M15.2289 13.3911H14.9376C14.4409 13.3911 14.0369 12.9824 14.0369 12.4786C14.037 11.9747 14.4403 11.566 14.9375 11.566H15.2289C15.7257 11.566 16.1289 11.9748 16.1289 12.4786C16.1295 12.9824 15.7255 13.3912 15.2289 13.3911Z" fill="white"/>
<path fill-rule="evenodd" clip-rule="evenodd" d="M13.1466 11.4551H12.8553C12.3585 11.4551 11.9546 11.0464 11.9546 10.5426C11.9547 10.0387 12.358 9.62996 12.8551 9.62996H13.1466C13.6433 9.62996 14.0466 10.0387 14.0466 10.5426C14.0472 11.0464 13.6432 11.4552 13.1466 11.4551Z" fill="white"/>
</g>
<defs>
<filter id="filter0_f_6126_377" x="7" y="-38" width="83" height="84" filterUnits="userSpaceOnUse" color-interpolation-filters="sRGB">
<feFlood flood-opacity="0" result="BackgroundImageFix"/>
<feBlend mode="normal" in="SourceGraphic" in2="BackgroundImageFix" result="shape"/>
<feGaussianBlur stdDeviation="7.5" result="effect1_foregroundBlur_6126_377"/>
</filter>
<linearGradient id="paint0_linear_6126_377" x1="3.5" y1="2.5" x2="14.5" y2="19" gradientUnits="userSpaceOnUse">
<stop stop-color="#3B5B63"/>
<stop offset="1" stop-color="#4F868E"/>
</linearGradient>
</defs>
</svg>
